<mxfile host="Electron" agent="Mozilla/5.0 (X11; Linux x86_64) AppleWebKit/537.36 (KHTML, like Gecko) draw.io/27.0.9 Chrome/134.0.6998.205 Electron/35.4.0 Safari/537.36" version="27.0.9">
  <diagram name="Page-1" id="spyC6W2PUUyhCMagK1de">
    <mxGraphModel dx="1426" dy="875" grid="1" gridSize="10" guides="1" tooltips="1" connect="1" arrows="1" fold="1" page="1" pageScale="1" pageWidth="850" pageHeight="1100" math="0" shadow="0">
      <root>
        <mxCell id="0" />
        <mxCell id="1" parent="0" />
        <mxCell id="KT6xFQYIPRrfO0EYKUDw-51" style="edgeStyle=orthogonalEdgeStyle;rounded=0;orthogonalLoop=1;jettySize=auto;html=1;exitX=0.5;exitY=1;exitDx=0;exitDy=0;strokeWidth=2;" edge="1" parent="1" source="KT6xFQYIPRrfO0EYKUDw-41" target="KT6xFQYIPRrfO0EYKUDw-16">
          <mxGeometry relative="1" as="geometry" />
        </mxCell>
        <mxCell id="KT6xFQYIPRrfO0EYKUDw-41" value="" style="rounded=0;whiteSpace=wrap;html=1;strokeWidth=2;" vertex="1" parent="1">
          <mxGeometry x="220" y="210" width="385" height="340" as="geometry" />
        </mxCell>
        <mxCell id="KT6xFQYIPRrfO0EYKUDw-1" value="" style="rounded=0;whiteSpace=wrap;html=1;strokeWidth=2;" vertex="1" parent="1">
          <mxGeometry x="430" y="630" width="369" height="210" as="geometry" />
        </mxCell>
        <mxCell id="KT6xFQYIPRrfO0EYKUDw-49" style="edgeStyle=orthogonalEdgeStyle;rounded=0;orthogonalLoop=1;jettySize=auto;html=1;exitX=0;exitY=0.5;exitDx=0;exitDy=0;entryX=0.5;entryY=0;entryDx=0;entryDy=0;strokeWidth=2;" edge="1" parent="1" source="KT6xFQYIPRrfO0EYKUDw-7" target="KT6xFQYIPRrfO0EYKUDw-47">
          <mxGeometry relative="1" as="geometry" />
        </mxCell>
        <mxCell id="KT6xFQYIPRrfO0EYKUDw-52" style="edgeStyle=orthogonalEdgeStyle;rounded=0;orthogonalLoop=1;jettySize=auto;html=1;exitX=0.5;exitY=1;exitDx=0;exitDy=0;entryX=0.5;entryY=0;entryDx=0;entryDy=0;strokeWidth=2;" edge="1" parent="1" source="KT6xFQYIPRrfO0EYKUDw-7" target="KT6xFQYIPRrfO0EYKUDw-42">
          <mxGeometry relative="1" as="geometry" />
        </mxCell>
        <mxCell id="KT6xFQYIPRrfO0EYKUDw-7" value="" style="rounded=0;whiteSpace=wrap;html=1;strokeWidth=2;" vertex="1" parent="1">
          <mxGeometry x="225" y="30" width="380" height="130" as="geometry" />
        </mxCell>
        <mxCell id="KT6xFQYIPRrfO0EYKUDw-9" value="&lt;b&gt;GitHub&amp;nbsp;&lt;span style=&quot;background-color: transparent; color: light-dark(rgb(0, 0, 0), rgb(255, 255, 255));&quot;&gt;Repository&lt;/span&gt;&lt;/b&gt;" style="verticalLabelPosition=bottom;html=1;verticalAlign=top;align=center;strokeColor=none;fillColor=#00BEF2;shape=mxgraph.azure.github_code;pointerEvents=1;" vertex="1" parent="1">
          <mxGeometry x="293.9" y="66.4" width="50" height="50" as="geometry" />
        </mxCell>
        <mxCell id="KT6xFQYIPRrfO0EYKUDw-10" value="&lt;font style=&quot;color: rgb(255, 255, 255);&quot;&gt;&lt;b&gt;Terraform&lt;/b&gt;&lt;/font&gt;" style="sketch=0;points=[[0,0,0],[0.25,0,0],[0.5,0,0],[0.75,0,0],[1,0,0],[0,1,0],[0.25,1,0],[0.5,1,0],[0.75,1,0],[1,1,0],[0,0.25,0],[0,0.5,0],[0,0.75,0],[1,0.25,0],[1,0.5,0],[1,0.75,0]];outlineConnect=0;fontColor=#232F3E;fillColor=#C925D1;strokeColor=#ffffff;dashed=0;verticalLabelPosition=bottom;verticalAlign=top;align=center;html=1;fontSize=12;fontStyle=0;aspect=fixed;shape=mxgraph.aws4.resourceIcon;resIcon=mxgraph.aws4.application_composer;" vertex="1" parent="1">
          <mxGeometry x="500" y="70" width="46.4" height="46.4" as="geometry" />
        </mxCell>
        <mxCell id="KT6xFQYIPRrfO0EYKUDw-11" value="&lt;b&gt;Version Controlled IAC&lt;/b&gt;" style="text;strokeColor=none;align=center;fillColor=none;html=1;verticalAlign=middle;whiteSpace=wrap;rounded=0;" vertex="1" parent="1">
          <mxGeometry x="346.47999999999996" y="36.4" width="138.05" height="30" as="geometry" />
        </mxCell>
        <mxCell id="KT6xFQYIPRrfO0EYKUDw-14" value="" style="shape=cylinder3;whiteSpace=wrap;html=1;boundedLbl=1;backgroundOutline=1;size=15;" vertex="1" parent="1">
          <mxGeometry x="466.53" y="740" width="60" height="82.42" as="geometry" />
        </mxCell>
        <mxCell id="KT6xFQYIPRrfO0EYKUDw-15" value="" style="shape=image;aspect=fixed;image=data:image/png,iVBORw0KGgoAAAANSUhEUgAAASAAAAEiCAYAAABZSw+LAAAMPmlDQ1BJQ0MgUHJvZmlsZQAASImVVwdYU8kWnluSkEBogVCkhN4E6VVKCC2CgFTBRkgChBJjQhCxI6KCaxcL2NBVEUXXAsiiIqLYFsXeFwsqK+tiwYbKmxTQdV/53uSbO3/+OfOfM+fO3HsHAI0WjkiUi2oCkCfMF8eFBzPGp6QySM8AERgDHP6cOFyJiBkbGwVgGWr/Xt7dAIisveoo0/pn/38tWjy+hAsAEgtxOk/CzYP4MAB4FVckzgeAKOMtpueLZBhWoCOGAUK8WIYzFbhKhtMV+IDcJiGOBXEbACpqHI44EwD1y5BnFHAzoYZ6H8TOQp5ACIAGA+KAvLypPIjTILaFNiKIZfre6d/pZP5NM31Yk8PJHMaKuciLSohAIsrlzPg/0/G/S16udMiHNaxqWeKIONmcYd5u5UyNlGE1iHuF6dExEGtD/EHAk9tDjFKypBGJCnvUiCthwZwBOsTOPE5IJMRGEIcJc6OjlHx6hiCMDTFcIWihIJ+dALE+xIv5ktB4pc1W8dQ4pS+0PkPMYir5sxyx3K/M1wNpTiJTqf86i89W6mPqRVkJyRBTILYsECRFQ6wOsZMkJz5SaTO6KIsVPWQjlsbJ4reEOI4vDA9W6GMFGeKwOKV9WZ5kaL7Y1iwBO1qJD+ZnJUQo8oO1cTny+OFcsMt8ITNxSIcvGR81NBcePyRUMXfsOV+YGK/U+SDKD45TjMUpotxYpT1uzs8Nl/HmELtLCuKVY/GkfLggFfp4hig/NkERJ16UzRkTq4gHXwGiAAuEAAaQwpoOpoJsIOjobeiF/xQ9YYADxCAT8IGjkhkakSzvEcJrPCgCf0LEB5LhccHyXj4ogPyXYVZxdQQZ8t4C+Ygc8BTiPBAJcuF/qXyUcNhbEngCGcE/vHNg5cJ4c2GV9f97foj9xjAhE6VkpEMeGRpDlsRQYggxghhGtMMN8QDcD4+C1yBYXXFv3GdoHt/sCU8JnYRHhOuELsLtKYJi8Q9RjgVdUD9MmYv073OBW0NNDzwY94fqUBmn44bAEXeHfph4IPTsAVmWMm5ZVhg/aP9tBt/dDaUd2ZmMkvXIQWTbH0eq26t7DKvIcv19fhSxpg/nmzXc86N/1nfZ58E28kdLbDF2CGvHTmLnsGasATCwE1gjdhE7JsPDq+uJfHUNeYuTx5MDdQT/8Dd0Z2WZlDjXOvc4f1b05fMLZc9owJoqmiEWZGblM5jwjcBnsIVcp5EMV2dXNwBk7xfF4+sNXf7eQOjnv3HFbwHw5w0ODjZ/46LgXj+8EG7/p984m+PwMaEHwNlyrlRcoOBw2YUAnxIacKcZABNgAWzhfFyBJ/ADQSAUjAExIAGkgMkw+iy4zsVgOpgF5oNSUA5WgLVgI9gCtoPdYB84CBpAMzgJzoAL4DK4Du7C1dMNXoA+8A4MIAhCQqgIDTFATBErxAFxRbyRACQUiULikBQkDclEhIgUmYUsQMqRVchGZBtSg/yCHEVOIueQTuQ28hDpQV4jn1AMVUN1UGPUGh2FeqNMNBJNQCehmeg0tAgtQZeh69FqdC9aj55EL6DX0S70BdqPAUwVo2NmmCPmjbGwGCwVy8DE2BysDKvAqrE6rAne56tYF9aLfcSJOA1n4I5wBUfgiTgXn4bPwZfiG/HdeD3ehl/FH+J9+FcClWBEcCD4EtiE8YRMwnRCKaGCsJNwhHAa7qVuwjsikUgn2hC94F5MIWYTZxKXEjcR9xNbiJ3Ex8R+EolkQHIg+ZNiSBxSPqmUtIG0l3SCdIXUTfqgoqpiquKqEqaSqiJUKVapUNmjclzlisozlQGyJtmK7EuOIfPIM8jLyTvITeRL5G7yAEWLYkPxpyRQsinzKespdZTTlHuUN6qqquaqPqrjVAWq81TXqx5QPav6UPWjmraavRpLbaKaVG2Z2i61FrXbam+oVKo1NYiaSs2nLqPWUE9RH1A/qNPUndTZ6jz1ueqV6vXqV9RfapA1rDSYGpM1ijQqNA5pXNLo1SRrWmuyNDmaczQrNY9q3tTs16JpuWjFaOVpLdXao3VO67k2SdtaO1Sbp12ivV37lPZjGkazoLFoXNoC2g7aaVq3DlHHRoetk61TrrNPp0OnT1db1103SbdQt1L3mG4XHaNb09n0XPpy+kH6DfonPWM9ph5fb4lend4Vvff6I/SD9Pn6Zfr79a/rfzJgGIQa5BisNGgwuG+IG9objjOcbrjZ8LRh7widEX4juCPKRhwccccINbI3ijOaabTd6KJRv7GJcbixyHiD8SnjXhO6SZBJtskak+MmPaY00wBTgeka0xOmfzB0GUxGLmM9o43RZ2ZkFmEmNdtm1mE2YG5jnmhebL7f/L4FxcLbIsNijUWrRZ+lqeVYy1mWtZZ3rMhW3lZZVuus2q3eW9tYJ1svsm6wfm6jb8O2KbKptblnS7UNtJ1mW217zY5o522XY7fJ7rI9au9hn2VfaX/JAXXwdBA4bHLoHEkY6TNSOLJ65E1HNUemY4FjreNDJ7pTlFOxU4PTy1GWo1JHrRzVPuqrs4dzrvMO57su2i5jXIpdmlxeu9q7cl0rXa+5Ud3C3Oa6Nbq9cndw57tvdr/lQfMY67HIo9Xji6eXp9izzrPHy9IrzavK66a3jnes91Lvsz4En2CfuT7NPh99PX3zfQ/6/uXn6Jfjt8fv+Wib0fzRO0Y/9jf35/hv8+8KYASkBWwN6Ao0C+QEVgc+CrII4gXtDHrGtGNmM/cyXwY7B4uDjwS/Z/myZrNaQrCQ8JCykI5Q7dDE0I2hD8LMwzLDasP6wj3CZ4a3RBAiIiNWRtxkG7O57Bp23xivMbPHtEWqRcZHbox8FGUfJY5qGouOHTN29dh70VbRwuiGGBDDjlkdcz/WJnZa7K/jiONix1WOexrnEjcrrj2eFj8lfk/8u4TghOUJdxNtE6WJrUkaSROTapLeJ4ckr0ruGj9q/OzxF1IMUwQpjamk1KTUnan9E0InrJ3QPdFjYunEG5NsJhVOOjfZcHLu5GNTNKZwphxKI6Qlp+1J+8yJ4VRz+tPZ6VXpfVwWdx33BS+It4bXw/fnr+I/y/DPWJXxPNM/c3VmT1ZgVkVWr4Al2Ch4lR2RvSX7fU5Mzq6cwdzk3P15KnlpeUeF2sIcYdtUk6mFUztFDqJSUdc032lrp/WJI8U7JYhkkqQxXwd+yF+U2koXSh8WBBRUFnyYnjT9UKFWobDw4gz7GUtmPCsKK/p5Jj6TO7N1ltms+bMezmbO3jYHmZM+p3WuxdySud3zwuftnk+ZnzP/t2Ln4lXFbxckL2gqMS6ZV/J4YfjC2lL1UnHpzUV+i7YsxhcLFncscVuyYcnXMl7Z+XLn8oryz0u5S8//5PLT+p8Gl2Us61juuXzzCuIK4YobKwNX7l6ltapo1ePVY1fXr2GsKVvzdu2Utecq3Cu2rKOsk67rWh+1vnGD5YYVGz5vzNp4vTK4cn+VUdWSqvebeJuubA7aXLfFeEv5lk9bBVtvbQvfVl9tXV2xnbi9YPvTHUk72n/2/rlmp+HO8p1fdgl3de2O291W41VTs8doz/JatFZa27N34t7L+0L2NdY51m3bT99ffgAckB7445e0X24cjDzYesj7UN1hq8NVR2hHyuqR+hn1fQ1ZDV2NKY2dR8ccbW3yazryq9Ovu5rNmiuP6R5bfpxyvOT44ImiE/0topbek5knH7dOab17avypa23j2jpOR54+eybszKl2ZvuJs/5nm8/5njt63vt8wwXPC/UXPS4e+c3jtyMdnh31l7wuNV72udzUObrz+JXAKyevhlw9c4197cL16OudNxJv3Lo58WbXLd6t57dzb7+6U3Bn4O68e4R7Zfc171c8MHpQ/bvd7/u7PLuOPQx5ePFR/KO7j7mPXzyRPPncXfKU+rTimemzmueuz5t7wnou/zHhj+4XohcDvaV/av1Z9dL25eG/gv662De+r/uV+NXg66VvDN7seuv+trU/tv/Bu7x3A+/LPhh82P3R+2P7p+RPzwamfyZ9Xv/F7kvT18iv9wbzBgdFHDFH/imAwYpmZADwehcA1BQAaPB8RpmgOP/JC6I4s8oR+E9YcUaUF08A6mAj+4xntQBwAFbreVA7CADZJ3xCEEDd3Ibr0FlNfq6UFSI8B2wNkKHr+rx54IeiOHN+F/ePLZCpuoMf238B3tR6sv9VZBAAAACKZVhJZk1NACoAAAAIAAQBGgAFAAAAAQAAAD4BGwAFAAAAAQAAAEYBKAADAAAAAQACAACHaQAEAAAAAQAAAE4AAAAAAAAAkAAAAAEAAACQAAAAAQADkoYABwAAABIAAAB4oAIABAAAAAEAAAEgoAMABAAAAAEAAAEiAAAAAEFTQ0lJAAAAU2NyZWVuc2hvdLm8PucAAAAJcEhZcwAAFiUAABYlAUlSJPAAAAHWaVRYdFhNTDpjb20uYWRvYmUueG1wAAAAAAA8eDp4bXBtZXRhIHhtbG5zOng9ImFkb2JlOm5zOm1ldGEvIiB4OnhtcHRrPSJYTVAgQ29yZSA2LjAuMCI+CiAgIDxyZGY6UkRGIHhtbG5zOnJkZj0iaHR0cDovL3d3dy53My5vcmcvMTk5OS8wMi8yMi1yZGYtc3ludGF4LW5zIyI+CiAgICAgIDxyZGY6RGVzY3JpcHRpb24gcmRmOmFib3V0PSIiCiAgICAgICAgICAgIHhtbG5zOmV4aWY9Imh0dHA6Ly9ucy5hZG9iZS5jb20vZXhpZi8xLjAvIj4KICAgICAgICAgPGV4aWY6UGl4ZWxZRGltZW5zaW9uPjI5MDwvZXhpZjpQaXhlbFlEaW1lbnNpb24+CiAgICAgICAgIDxleGlmOlBpeGVsWERpbWVuc2lvbj4yODg8L2V4aWY6UGl4ZWxYRGltZW5zaW9uPgogICAgICAgICA8ZXhpZjpVc2VyQ29tbWVudD5TY3JlZW5zaG90PC9leGlmOlVzZXJDb21tZW50PgogICAgICA8L3JkZjpEZXNjcmlwdGlvbj4KICAgPC9yZGY6UkRGPgo8L3g6eG1wbWV0YT4Kn3JsEgAAABxpRE9UAAAAAgAAAAAAAACRAAAAKAAAAJEAAACRAAAz7pMn3FEAADO6SURBVHgB7Jz5k13Hdd/PW2bBMgOCIDYuAEgRoLiA1ELtolmWHW2mQ6nKjpVFqspvsURKVCmuyp+QqlRkLk4qP0SSU/nBiWXTIhXFlmWRkhOtFKkFpEiCuwgQK0nsg5k37718P+d0vxmAdDKjl8Ijqk4D9917+3af7j59+nNP9713Gt3uv+1bhtRAaiA1MAINNBJAI9B6FpkaSA24BhJAaQipgdTAyDSQABqZ6rPg1EBqIAGUNpAaSA2MTAMJoJGpPgtODaQGEkBpA6mB1MDINJAAGpnqs+DUQGogAZQ2kBpIDYxMAwmgkak+C04NpAYSQGkDqYHUwMg0kAAameqz4NRAaiABlDaQGkgNjEwDCaCRqT4LTg2kBhJAaQOpgdTAyDSQABqZ6rPg1EBqIAGUNpAaSA2MTAMJoJGpPgtODaQGEkBpA6mB1MDINJAAGpnqs+DUQGogAZQ2kBpIDYxMAwmgkak+C04NpAYSQGkDqYHUwMg0kAAameqz4NRAaiABlDaQGkgNjEwDCaCRqT4LTg2kBhJAaQOpgdTAyDSQABqZ6rPg1EBqIAGUNpAaSA2MTAMJoJGpPgtODaQGEkBpA6mB1MDINJAAGpnqs+DUQGogAZQ2kBpIDYxMAwmgkak+C04NpAYSQGkDqYHUwMg0kAAameqz4NRAaiABlDaQGkgNjEwDCaCRqT4LTg2kBhJAaQOpgdTAyDSQABqZ6rPg1EBqIAGUNpAaSA2MTAMJoJGpPgtODaQGEkBpA6mB1MDINJAAGpnqs+DUQGrgDQ+gvjX8X5++6vPL+ZkhYktcg7O+/vU8eaOxKLULWSyBa0rreciv835Tm/aNnkXWHhcUSmY/LjJJtzgM5BC5OA3HbFEvrlqjGc1RvF/VT9SZFpNa5Ume7z0f9dJmbMiJ6xzHpl3JSf1DammLdIEsT7eojsQM8khOlFXivG3E1HIipWepP6TRZdKErnQu+XRTVTttColFlk4atR3sS728HE8YtdIFzxd74tQfFEb7S928cI+reXS5ZKvyOI18xJC3pU26r/rw/Eq0KAzqLrH12KX0aGfo1kvkp+qz7hfJycP/twbe8ADC4BraMONer2dNDdxmsQrOyyjWVaVqKq0MoW9d6/bnbL7btbH2mOdHFb1e19M1JCPMKAZMr88A5X/L+j0ZpzZrdK3dwnTnyUl2BVkc/5U/TsO8y4nL8AQewTUFGTv1N2RLTme+Y622Yhpjqh+QbFpLY6LdaKnWHevOz6kdqp2ye6tVDy+/31ba2ICjb5LX57jUv2VttZtRIR3pmM3bQxs8j2R5O5VEeX1I+2AOvdHawSBXburmUCSl9IpUtBstU0ovmpgYmNSbi71+1/sJHc+rHxi05KVEQqNPn7RVb22Ko7+8HTqqQKINURL6QweS6WlbShIbefoqq0HbPJA/jpBKQIrrj7JVbk+b9bQN9FHzenL90DdoQf8AjtpEDZDU6ajvWtJrs2092ZaDtlnqnACqClzW/g0PIL9rFTPCIAAQho1d9X2wcRBW52BpzcvUOrrccWNq+cCP6z2lJ2/IEBRkez2MW0bEP2FAstoxQJrzipGs/qzietZqihJuxIgFKNrIQl20eX4ZYYM0fl7iHWhCW1ODTlk6XQ1IiWrYmMmG1YaWDFrt8jqoTEGypWMkxsADgAzAcaUdVwZtglJfG9cZ1Axgr5vaCpNbzXEdTSitoDffdBg31J5Gi8GqpF5xcjI8oy1RHkii/uhB18gv2ZQVwHPNK42ESOdAxfXAqXQUOpRSXA9RTlc6pEhhVpKpp3KrDU1tfYHAAd9U3gpa5Q05IRsINryt85Ih/QDhrnq1qfYpX3f+tAOchoUevFO8nKobWhH6QSeTOpxUeUC5bF5DJRnsSR9tpV0RaCR1Efz0r9dV/2CL6itvl9e/JM3dkjVwHgAIw1Lf0+06cLNw8EQbMW5iB1EyhG6/Y/ACjyCGRRgTQyZSc04emWxfhq27HEbUV/qmwNDU4NW92+Z7MxrQcxLft3Hd+TA1INaUEfrAHUwFqAWVo6YEjJV6s5dkkaYtN4dyVDtdJ53qpgFuKo/B0e113Jhb7i2Qk420dSNdgZDaGIOtykJCDBQA1NYduknaHgMFyAjGGmxNDVju6DEYaU0Z5NpTVvEzdR1PS3XrCRoMLOXrSR8UgZdJ2xoASEp2T0a/put4mKQMfSoxg1ft4Sol1TqSBz33VTe8TwbxYEr0fwEQZQDVnqA61hJIJHR+fka6lfAGdabv6QeVoHNq0+3N2pjkhx4FIMAsAKEPh5DrV9FeS2qqy97H4e/1ZB899Q1tbrfJL53qRsg57SdbX2nCg/Ps+bMMDZwHAAqDkJW6EXvbZLTAA1fZzVtG4LOxuCjDxODYzGZmmdK0bHxsXGYPkDSU5jUYGei4JBi/x2pQl0HXbEwoj1IKPg0ZqmZiUY4GAEM+TNOt3g3RR0IpjzIdPG6Z3DHlATCIBcWOBijjN9alJjRYNIApS3nwFBhA+inlKVL55L/4VeDTw2NgCjGYPgCiACl3YzBC6cgAPl2N17GW5GvK54DQdKinyEaLSijKSwZ1ASBp0csDxD49EoDcM5GOADQBj5Lg+oYv5EWNApsDQBdIjXxg13bPhzjyh2bwhvpAjLzqBx/PCHWA0x/0HVrBCyMNefGk8PpUPnpj+iY9cOvw/lOW7jwwE9y4WbgIQd+9YXmx7hHLe+wtQBz9uhdEWaqPTnxzu9AR3plPHKW3rqbL3HiYgtEqAnytbV24+fil/FmiBs4TAMmwAIa6ng6vUy+8hRowaGzO7ciPuCannXUfjZCWjIchirn2NUhaGhykQB6DnyP3GhgwujNr7iJDxugYlEgmDfdUpOABBYAYIDFYtKvBKxHxzaYg5oNgRgDCC4mB17RJxaosDQjWVwg0h1zUhVA9IB8EeEqCz2IAMaipNdMB1iUAJXdjBiXaAkBNeQIaMwrhNfm6GQ0nQA6lBAu1LCDEAGOA+xRMg5S7O/9cY6pagIPeiLIBT7tNIdIlHg1Q0T/6ieMASk9SyROyWE8ZU55WQ0AgJzrzev3DAKINAIi1LWNq62XQv6XOWlejX7AF8UJBfdXCgwVA2rsOmcYCcfKFTkLr0oXy+T/qTKUEHgDVcvlMZZVHaQAU9aUu9Jn31sD7Vb4MS9bAeQCgapCYu5u4erzcSX0AyQwxBgEGQ2JAdrsyc8UxZ5/HE5DdMPB8UVF5GAYACDlMwTpysTV+NXWZ1JW2dWYVL9d95aoxeU6S2hR4eqc1XhncAR5qg6HLQsumXZhinDuYVC/lASB9m3V8kZ68DVthHQ2E2dMteWSaflEvWbMPWHcJaCOehCrPHvgUCMXAqdei3HFVdJyx1T2tQYfnxEDkHP0Jm6o2TSYwxYhBExEce1kOWQZzWSTuMY2R/tROaoMe52Y1HZF+m5pStltax5rXtEce5di4gEU7JbulY+I7ImAPr0TtassLm5wc8/WavvTd6Zy2iXGhRDIin+paBnHUjt6mDdKVIAB8wgti2qc4eUGkQ3d4la3WCsWvUNtaNjvX1SZvVfVsNLnO2pdkAB48J7XP154KhICKQ4iydARUxscAt2T0TtrEGK0njzwhbmgVblrXY0pK70qwtgzL1cB5AyA3DLWOOTkGAkYiyHx1N2zIGHztAkORob388gk7fPiozc52ba4jc+tooOi22JY7wHoMXlCsWcg4NTg73Y48CZnw5Gpd04Bp9e3ii9fZ6qkJm5zQ0B+jXO6kxdTcaDmrNatGGMPZ433gCl7zsxqUIKGtp0J4UeRZJSBM2dFjXXv1lSN2/PhJm5mZVT11x2VEKU1AgQHMwNbAAUIMIh84mL2e8o017MILp23tBVM2vUYDvKk6Nk47bH0qAWzklbRos/bABwUCBYLX2uMY4FoA99EVujQApPLmtWB8aqZvJ47P2NEjJ+zEsZN2WnVlWusgpkWapiGyymNP8KmWT4FNQJ+wdarrhWtXCj6kPa0+YYrsuVSvQE/kXQyggE8ASOBX/+DZAWy8ElrS708IagL6XNNOnpy1g4eO2NwceqPf51xX8QgeParDAVIFEBK4YWhD9ROq3KaN623DxpUC3BHdnLTQLXoHnqAPfQMA1UO6WbguQ500OcMyNHCeACiGrCxExicQuDHEICWup7WKpp6KdGVAx493bfcTe+zRx563p5960U6e6siIMC7BS7bD0yyMiXUg7us+b5Hh+5RBhg3aeE8Fb2Lduim77ror7fobLrdLL1lj7XEZsoRg+Mp8VmDYAAsGPBfrRv0AAMiUd6U7KIY7MzNmv/rVEdv1ixfs8cefFoSOaaDgpURd/a4s8LhM5fD1KaZFTD+ABNe0tcd6dsGaFbZjxxa7bucW2759s61YEfn8yRR3bFWtrdcRqEeX+ksHddAw5GNKy4BUPZEtiDvM9bRp5vSYHTh82h555Bn7xc8ft5MnZq0jDwPPJjxKYKasqnZXfeMLtIrwxWoi1Wr00ZJXNjnZtu1XbpE+r7Ab3vImgV0L/XqKhYfSFAxQG1pkw/uJvNQVDyi2wABy0S8h9p3OuB0+NGsPP7LbfvqzJ1TPOdVd8gX0gC3pKCDqtAAgtVcFs6jufa/+a2kuu2P75XbD27baNddcbKunAaB0oyT4O+EFR7sAOt7roDpKmWHpGjgPACT78Ds0jQqvBYCwGMrg4X9PAxMAzc717cUXj9i99z5o//vvf2mPPX7ETp1kQOGiCzc6rOzoyCtiWsD6iGYp5dF4Q1OigB2excRE0z7wm1farbfeZO9695vlYVAiXpQgJUP1wl06SEEIZRFPKAavfawZxTSG2ZXGrh06MGff/NuH7FvffNh+/NAeO35MBq66MC3pzitREUN9PdQo9jVOe9aTqefb3rrBfvuDN9gtt7zXNm5a4cOXd6EANoPOAaSGOoDkDdVBQ3teD0AAj6dNr7zat4cefs7+8t7v2t/93W7rojexgT6Y01SVqjC9YwxqrAuiMYCdPbXqpS0q1q679kL7wG9db3/wiQ+qnpMOHgDjj9glrGhSOZXYYYHwCiC8HfSpwa8U6LIuGB8/0bLHHt1j/+3PvmVf/8aTal/DTqsvsYlx9fNAj9SJzFS8bjrnsOocO9mxfZXd/Jtvtk/9yw/bJZeuUDlkksfprNE7W97VsgOde3AB5Th3S9bAGx9A6ne6HgtiCFcPCAD5dMKbyrRkwo4dP22/fHSf/Yc/+Qv72c/2awrGom/k1SjT3VAGq3MGbRivsgEmFdDRwMFZmBgPS+KXddU3XX6Bvef9O+xffOrDtnXbal1XJIuRA9gswKdOmXTRa8W+p0Hk0xAGlKYNkO74iRnbvfuwfeVL37CHfvy8vbQvpnY0dMDagYRyoJ3rwROozqUIBhaHWy6btHe8c4t98lMftCt3XGhTqyd1x6Zu3L2jDrFwq1O/Y5MRoOofI07peNrEHR4PiPWTbqdhL7w4Y1/507+2v/9fu+3ZZ49rnUwpmdKKCWKQwI5OaafEIRJ9K8xLnwtp8IBYP+rbRRe17S1v22R/+OmP2Zuv2WhrpoGQ+klbhQ/71wKIdrAhVyAQrVtadPaaq/4v7T1tX/3zB+2Bbz9mux47ojapP9Gng8Kz6WdRoAgCdWaPcmkDxwoTEw3bftWU/dG/+X3becMmeZkrVUfdfDx9S9N66sw6EbpVIQ6oyJu/S9fAeQCg8BziBTCMio5nSMlTEDG4H5o/SRm3gweP2c9++qLddedX7cknXrVTp8p0SU+cgMC8XA+mHwDIH3k7RGLwYPQYH1MlXdT/GR80mzZO2dtuvMw+c/vv2ZXb1/g0gneE6uIwtQNGC/DB4msgVtDRFJHFz77gw1Oao1rv+eWjB+3uu75qu3Yd0LpKTBPcE2EgeNDd1YdXPWdPaYzwMHggRCpi1l7Qsuuu32C3ffZjdvW1F9m0D+y6psObu+R2WtA8BeUqryAAIW+T5Eqruqa1KsFnXt7DU8+dtLvu/it76Ccv2sH9MxpnSk0SUgneTLnwBvAmJUT9g+58LPuPr9fwYmRLb3kr4YoVTdtx1bTd8YXfE4gusfWa5jYaWij2x+S0OPr7DABRJ9ZrgCT69o1fWi9vRFG/euGk/af/eJ/94HvPODTFKA/0aa/LTUNzas9XYYFM+lH/XSQpkUcZEbZcvsK+8Ecft3e+e4tt3rxO8dge13XzU3Z/GufrV8jUlmHZGjgPAMTwkmFo8GKegIPpD7jgUwt3wQUg1oFe2vey/eShF+xP7vmaPfvMibIIicny7kcMFtL7W8eS4y+Qyfh8Vi93h8VpXhrkbWRGGd7S+nWTPlDu+MLv2/YdAEhPPtzYYqgU6/W6ORgkza1aMewDGCwAy7dQHZjaHD1+StOFg/bv/91/t8d/+bKd0DTR105KTu0UGAxnGjXjJGRrkId4TwUzV0027aqr1+qO/U/s2p3rbXpKT/T0HlNLrxI0eIdIo9SfbqlRdZ1GET5wmIZF3asH1NKCrvl09Cnp8Y/v/Et75Gf77OVDWjSW98PrD0xDgfXcXEfegNnkCtrGNCwAxHSSt7+ZTvZ9jW7OPUq8ym1XrLLP/+uP243vvNQ2rl+ramhga+BTw4U24lkImLrino/rnPoRQ2o9vdSDhbYWwtHx88/N2J1f/HP78Q9fsH37T0c9lJYmxgK+Cqadpe8qMLjuAYWqjwYI1OllW1fYpz/7EXvfTVfYti2bVY4aykMQpeNtc72lqT6VPeqdsSqvisv90jRw3gDIXz6T8QwApEGAx4DRc8fuyx3ev+8Ve0gAuufu++zZp49r/s9TH9kMi6rstbE2EN8Osa7g0b5XJP8jEel0yLb+okl769svsdvv+Lju3Gts5Yp4byfgoIQe6tDhnMFcczOg4tgB6MOnba8ePWGP/kIe0J332mOPHbJjehLmyQbian4iaqQXNJh6efpSEjfh6akx93w+e8fHNGVYL49opbIKQH7Hln7cC4snNy6JxvoUjMFDGdKt3/0BltJrkM2c7NgTu4+5B/TwTwNAoVDWkNQy8kvB6Jh1IIL3B9X3oMhSbqOh96G02DyuNa43XbnKbv/8LQLQxbZ5w0UqD8+L8iNj7IUa1WHB40OvAf3QDu9vccRUXFPF52btzj/+C/vRD35le186rjjVjeuV1K579IycEqI4pdG5p+Mmp1zKy/7SrRP26ds/au+/+XIB6GIlApTUgXYhW3s8M2S6h1YF536pGjgPAKROliG6S67OxzPhjgNIMHbMzO+UAGj/y1pTedEB9MzTx3wBMtIw8AgYVgCIfB6KEXJW7ZHxWI83OIAutts/d6vtePO0AMRnGmGgIaCKQULdSEGdqxSvpdcTUL6qR9m7BKB77rrPPSEexXt7yO8iqCX5qzzlr6KIrcfSAYPFAbR6lV173Vr7zOf+sV3/lovsQgGIFyBZ3A2gBAyoudfLZSCXwUM5ASDKZGrB78zJOXv8SQD0NXtEADp8aEaXJcE/5tTAoz8IZC9i/VzHRPEYvz76dgBpqsXaypu2rxbQPyIAbRaA1nvW2tqqM9efGup7r1/UsYIfEPDMjutdweCF5zt21xfvtR/+AAC9omqSkveZIl+AR8febv/xqsaP4lGqpsmE2v+XbmnJA/ode/9N22zbtkuUFQ8M7Klc3jECQIJqQAh9ZFiuBs4DAGGa2mQgmBTTBX8iAYD4h+3oekMDe9/+wwLQHg3s++0Z94BIwXWl5UChekD1XJckuhik0iCVs2rzGy5aaW+9cbMA9LsC0JQAxAtvkcYF8oPxegY/iasOTSQpra75I3EMV1PJANChANCug3oXSJCgiVUW8mizS4oWIL80gUp64Jxi2dZMTdk1111gtzmA1glAq3RVHtAAQBpc8kaQgia9CJcJgBAXuqXMBQDNLgKQFvUPnfRKNvT2dtzxARBt06nL0M+iugV8uIHgMellSwFxAUAftRvftQhAEuJ1KgJCw3hAXlsvh1oG9PCY3BKwBk0pK4D+SgB60fbuPez5AkC0j3qyKdR6xpl+0WLZ+ZRPSVQRkl26ta21v4/a+27e5h5QAAgPSKWrTP+zIg7wWoZLyp9laOA8ABCmEJsDSE8cFgAk88FwZRALANqrgf31swAUGomBIsPRwGPa4IPGQRZm6KUQj/lil9o2XLRaU7CNumMLQFevtpWTAChqVEZxPfMMZAt4kAqIYLDhLcSwYQp23Hb9/LB7ao/tOiQAMT2hLUVy3ZfBQX18AHFZIcrQXufUk23N1HQB0O/KA6oA4mMPrVv4FLR6QGqb8rkMZaxvHxPDkCb4Y26mYKcA0HG76y48oAN6qnhc1aCieBblzk8+6uCPv8BClS9ZDOiyxaN2AWi8ZVfs0BTsDgC0qXhA6kEHUGmg6gB40DL7aD81I1BHejw8ILQbAJqXByQAfX+PPKCDnoIF/9Bb5FHSCEFLrzeyCN7fJHD4ABcANGafYQ3oN7b+AwBSeq+m5IeAkJ+/S9bAGx5AZ7RERgqEorPDmqo54hbvO3DIHvrRSwLQ/7Bnnjphs1owxbzCxLTXQUAnjsN4Qs5gMCu9rwGUjBvWTcsD2qABc4sAtKoAiEGhfGQaeDpRU6IW1i5IxfRKg1VTRwfQwAMSgDQFe3TXy1oD0tMlxjXA8spq75WLmi8AKM7jN8ojPaVMC0DXugckAN0gAK1d8IBYI/PpEB6Q7tjukZUB4/V1UegqJC8A6HQB0H328E8PahH6qOoHVCqAeHSuPJ6N9RPkAyBi1TPoxtPHsjG6AEBv2rHSbgNA7z4LQNQjuiNE6gTRrmuu6QTZQIUr7v3oyAH0XFcA+poAtNf27tunq8CwAqhMj4psCUGa7MEr7scu2yMpTf+kmADQh+39v7HFtmoNiPrHGpBkUxfaN5C5SFZIzN8laOA8ARCdC3y0956nZRhYnGJs3IH3HdAUzAH0jQCQ3th1RpCc3MoQj+01QORJuSdQDV4nsfiIYcVGAevXrdNj+IsKgFZoCsbaCtf9VxUoey+jnHoc9cOUC4C0Dw9IUzD3gF5eAJDeXwoASQiNogTf+1GVvPikXva6kmBaU7Brd67VY/jqAa1WLB4Qg08DkcXgAYAC4hThVfUW6bjoNgCkt7VPLQDIPaBDxzxDfImOXOSQj13AZgFwAIiL6hs2h0ZPABrTGlABEB7Qxg26Jk0hhOCAUbY4K7/IcSzonMIk21MIBzqNReiunoItBpBnUbqqS+09X0SRPcpQfAlhX1HO6wEI+ASAsCUEILPkXxBTxeV+CRo4DwDEMK4Gpxa5tdPbMcCZtvhAdwDhAe2ze+4EQKfkAfENkK4ruX+17gbDYOCcu6gCd2vfdC6bIs73nqkhAG0UgC7UU5uP6jH3pAMIy8VMXXDkQCLSXJZPvbxegJFFYAZrAAjSvOKL0HhAX7fHdh3WFGxW0W7+SKiiXHIRG8deOV2OovwSdSVMT6/2RWgAtNMXoVcrj74r87LxgAQIviDnqVhZtxisfQEPBX+xU/VDQ5SxAKBFUzDF+52/wId83iV+oHKQrYcE6L1WdLFeA0Cr5AH9jr1DANoEgCSgtt6Vr9ylWUjVNWQBOO0LfMLLkmUoDgi9sMgD2oMHRBZtCPL6+gKz6qb8MdWkzWFDJIono0qsTLEGhAekNaDPVg/oEqWuHhByaw2pOfWisAzL1cB5ACBAAYDYaqCzWVCVAclgMIDwgA7aQz/cr4H9P+2Z3TMBICXFVGJ6E/kwaO5gbjIaHYMnQSXOBwMfuMroA0AXFABNlEVoBJLbJZR9GGSsqcQ198xktO4FCQb+FgsAGnhAFUBaA+KNbEnCsF1qse/B8VlFRVoyhO1PTa0UgC6Mp2A38BRsSrLqn5LA+5EABxAL3gxE3rthECI49q8F0ExZhL5Pa0AsQp+ofPBstUqDsYinxXRTgzEG/0JbSAuIJsbwgAqA9BRs06YAkC4r4JXSstL4ugc+1NH3JY2DSEhQ0rMBxBSM5vZ5Y1UXG/40ju/blLgALGpWAKQ4v0n4VLkCqCkAtQYA2ralPgXDC5Ik3cBCHjJCf4rIsEwNnAcAwlRKZ9M4bFOD2O9eMsgAEFFMwQ7IAxKA3AMCQLNKDmDICHRAD2sVGJALUjTXOY4NDHDqj1g1ZVkA0EfsqmvGYwrGdeQhtoJoIANJlOCS9Itxk5JFU8Wr7q8eOW6/+AVTsK/rfSCtAfkUTKmiYl4+oj14WeWY6wTFRdl1wOMBTQpA6zRg9Bhe7wEtAIjaSF/uAVEGAAISeGV18MQAYiATx8e26GfmFABiERoAHbCXDzMFo3yv6OCmHwBSnNaGQr68DDwCXfAqK0/oFABNaA1IAPrcLfp05GIBiPeAEBp97H29SJdci5uH2qr+PuO6ytC3tQGg5+cXTcH2F4cp6oBonzYiayAb2wk7Cmiij+h7dMDNJzygWIS+fAAgaiM5WtMjfehQ5dDeDMvWwHkBIDcMOh1TVZ8zSQgPiPMwX5h0JoBOLnhA2IbykRc7qR6Qa0vnmJEi+R8DhXOMVnfO9es22dvescZu+/yHBSB5QP4UjLskiTyH76ldifR6co361nUlLg8AdPSYvix/RQC6X4vQr2gR+hSfiJV8dRBIbCnD15v8zh0lerQWd/0NX/29G+7q02vG7Rp9gnGbA2hDARCfYlALKQdoyC0IQNRPSSqAVLhSBYB4ZE7ZFUAn9MmIFqEfAUAsQuua5AUIOPak+qEkvskLwHkyLzvSUH10NtleaVdoDeh2vS5w47sAEJ84AEQlcA2VhJ4XKWg24EMZ0dvSpITRMurM9sIAQHoKtv+AA9D54uJCp0jzoPZhCw4PyQwAIVNRxEtXASA9BbtdALp5mzmAlIknsGitx19lILEyUQ/+Z1i+Bs4DANGoYjrABuNgAIg4Dh/iZBQBoP2L1oAEIH19qstujFgcRvd6APISdKHCgoES44Ep2GYH0O2f/5DtwAOa1EeJA2tz4cpe6uD1ZIUBawzDpLYOEOrp6cID2iXP524H0KsCkKY2DqCFpro902y/6wMI7rghOTwC/jaQ1lyap7V1BaC2HsOvF4Butev1TdiFF0wrb6xZOLBRhANI7+O4B8Sb4AwlZLNpeRUGSJG8K4WyZk6dssefAED3l6dgr5LAB2d4UH6qd2K0F3z8j+bzvg9/0N8VSOoInDblhU2MrYxFaNVzACD/Jov60L6qfLSF4AogFLQYQMgVulTPBQCVx/D79Rie6ReFIw49kohmka0E7CHaDgB1WNJHnlY8BavvAV12qWvLkS2BCwAqMsmbYdkaOE8AVNolgwmIMKzxAGSubAMAMQWri9B4QBVAkd/z6tDHlw8aTmLDFv1QB25Luo7hrl+3QQC60B8bX3WNnoJN6uttpcXsAIHDRTk4C0v3izqrFlkBxPBSTg3whSkYHhCP4asH5GJDgH6r7IWpR6m0wwxosOjLnw2VBzQ9rilY8YC0CL12zbTyx3M3f0cnxnKAQenj7yxTb+pJi+KJUsBdcVLWKU3BnhCAmIL5Y/jDR3y0oX0/qL8or4DMF7l9EVqRqIRLCuiS9ky2V7gHxAuT71jkAcXf/CGlC/M2cQyEArh4caA/rp/pAfWLB8SLiPKA9h3ym46KizrQ8WQrlSklUJjbT6w7+an/UFcJEIAm4kVEvQl9+dZLlV1Ax9a47B9CK6GMKfp+IX8eLV0Db3wADayldLTahgGc4QFxrjteTMEqgMpTMCUeiOBA525ANdKFKZ6gOE4xPn8srPMNF6098z2g8ikGj2NjYDAcuS8isAh1IXHmg9UvMZR0Qa5OLELzFKwASH9pEA/OcxcRVMPrQR5GknsUMn5OPU14LzzpQjPT0yvkAQmUWlvxTzEEIFyTGDAhPPIps2Toou+j3hxWAJ01BXMA4QHFFMwHJ9k9qORaX5epSCeNSy8/UZxHK+3CGpCmYHyK4WtAsVA/kIkYr1+hJhWmT9iHlkpSpmDFA3quozWg8ia0PkqmWixED+pLRK3jmVJcll8qbanHl22djG/Bbrrctm3lPSC+hqcXVTs8KkKVOSgoovN3aRo4DwDkplhaQ6fHIPS7toySAcCCJ9OGfQf0FGywCF3WgBbpgbQ+vZDRxCK0Lg4MyEXrAl4Nrj5vEAtA66f0JvQmDexb7So+xVjJt2BMbcpTJF9oiKHhGVQ/N83FBglAFOn+CB6QPkZdeBO6Pob3JOUnJHnlBgOvuGS65PI9icpVo2jC9JS+Bdt5gZ6CASC9iAiAokRdR09RB/I6MCGZrte1F/Tp+pEnE35GWQN6QovQdwtAj+hFRK0BkWtQAemJ7/D0F3oEUGRxUUGyXQulog4fonXOY/gr/Fuw8jEqa0BlquhAp66qAXXjKOqnUw61GwQ/YQqmlNoG34J9X59i6KPkii5P7zpExFlCqkBF136PP/nhtwp5QJPFA7pcANqsZvExKsBXmymAGrkM5CIkw3I1kACqRsh+kSEmgBJACaDl4mT56RNACSBZDbfz9ID81Qt5tmWynB7Q8nmy7BwJoARQAmiR55tTsGUzZKgMCaAEUAIoATQURIbJnABKACWAEkDDMGSovAmgBFACKAE0FESGyZwASgAlgBJAwzBkqLwJoARQAigBNBREhsmcAEoAJYASQMMwZKi8CaAEUAIoATQURIbJnABKACWAEkDDMGSovAmgBFACKAE0FESGyZwASgAlgBJAwzBkqLwJoARQAigBNBREhsmcAEoAJYASQMMwZKi8CaAEUAIoATQURIbJnABKACWAEkDDMGSovAmgBFACKAE0FESGyZwASgAlgBJAwzBkqLwJoARQAigBNBREhsmcAEoAJYASQMMwZKi8CaAEUAIoATQURIbJnABKACWAEkDDMGSovAmgBFACKAE0FESGyZwASgAlgBJAwzBkqLwJoARQAigBNBREhsmcAEoAJYASQMMwZKi8CaAEUAIoATQURIbJnABKACWAEkDDMGSovAmgBFACKAE0FESGyZwASgAlgBJAwzBkqLwJoARQAigBNBREhsmcAEoAJYASQMMwZKi8CaAEUAIoATQURIbJnABKACWAEkDDMGSovAmgBFACKAE0FESGyZwASgAlgBJAwzBkqLwJoARQAigBNBREhsmcAEoAJYASQMMwZKi8CaAEUAIoATQURIbJnABKACWAEkDDMGSovAmgBFACKAE0FESGyZwASgAlgBJAwzBkqLwJoARQAigBNBREhsmcAEoAJYASQMMwZKi8CaAEUAJoSAD1TQIaCIngJrVwqsizjMzTRoI+u0ZDKRYyRP5eERZ5SedplNZT+o/yDc49QZTVJw8bccghcYnj2qCuNV6XRxQSQPQLofSX9Zvqn5ZOOx69Yf2UvfXtm+y2z91qV715ylaunNC1rjW19fVLejJXMXQ23brQyTqm0xXZU/p+o2mvHj1hu35+2O65+z57bNdhO3ps1hQd+TwzAgjkQzbSZUjFcBaS6Iosk6vTU6vs2p0X2Gc+d4td/5Z1duGaac+jEj1/v9SBvA2vR5WJgbIppS42rKUjjLxvM6dm7PEnjttdd99vDz9y0F4+fFRXFGoFpKc+m82r/tSPiwo+KJSopKPaXGI/MT5mV2xfbbffcYvd+M6LbfOmdYpHnz0lD13Gvue1iAGkzEUG4j14WeoJxfe0vfB8x+764r32w++/aHv3veItUnQE1yEizhJS60vC0u+mfm0oN5cu3Tppn7n9o/a+my63bVs3q1nzqqHaKh31URmp9L+vhvGvivP9oPCSzhOqfQDBoYAAleT9p35ElIQCFOK7vTlr6riBYei8r2u9Xs9arbZK6llXDW+1sNMWBSi96ubp25IpGdill0V7iq26HPWu29HiCnqNXc65/kkAVd2zX2SICaAE0FIA5GN9EYAwIzepMr7drPwmFSABcP1GV4m0AQTRs9kEJECkYy0dwKBud95aTU4EGO4MyCORAykA1NS1hvJyod9DJodtEZkbg/ZN3UQFzYag6TcYwAloBwCqQnXZM7M/tyEBRKcR2NMf5U6YAEoA/X8DEJ4dpHIPT56MIBReEJ6N/NECoPkOXo8u8SOPJwAkz3RenhGgId6NFG+IQ3lI5FV0Tx4QYOmbwCOv1LemwOMAwpvHU8XLBXYy9LOnZkoxipAAok8JtW8TQDJTTDQBtDwAxbQNM3KTcuBUs6oA0pWSgB1A6DF/JFL/e92etdtMgfGWFN+ft67gw7TLKSModeXpNAWiRlNxpJN3NC/Pqa+0TZ028IDwuNgGADrTA9JFhxX7CNRmNCEBVHXPnv5IAMmsE0CYw9IAJFS/3hSM8YyHws5/YzUO0tR1HgDUFXSARhN6CDC+Dse6kGeUbNkkUy0nVFnZ6mvNDJmtttZ7BDCmbk2twTXcq8HLkSzghPfT6CjlvNIjIzwgoU7xbuyKI1DYaEICqOo+LCUBJENNAIU3sxQAMXZxdvAY+cWMfIrDeFZUoDxiPa2nWIDRvACEh9NyQJi8mXnrdQQNEci9IU2xBl6SBDItAzgdeUbt9lgUzuJ4k7IBDSBDPhDSArTWmmIROqZlgCjqtxhAVJrzcx8SQNgGgb33iYafz5PzKVg+BVvKU7AynGU/dWDXPQYVx25hbmDgYF5PsJqCTlMwwJcJLyeeP5KHf5gjNwJ/YqlfVo568nzaWoSWz+NP/lg/IiXgaTS7Lq2u9bgHhKejDY+HtSHWf1gbqibvtXLw8GQuAeT6eM2PK7nGBrXdPXXSqwMU1VcEd4x9Bw7aQz/ab/fc+Q175qmTNqtFvcVqJa27v+qBPieE2hvsicopmBs+gyABtAQASVvhAQECDKhOhUBDDP5iWLrmPoliw0NxC5Qddua7vrbTZhrmQVcUj60yNQNCna6gw5OxtjwjFqM1LZvvyAtqjckTQhLrPLHYHChjykXgGr1ZAdSWvGL0VNyfyAEg6nruQ3pApS+8T7yv0gPC5BNAS1sDEiVcVz6WdcRgDxBxzP2t+jMFBf0xeS9j9uqR03bk6DE7PTtvs7OaUmnv60DkgAXKDoB4D4h9V2s9PU29WOcZazcFHdZ/zKampmzt2klbs2ZMXpVuuPWxvvIAQwQN3rGS98NZODvV8ClI6dIDkq5eL6QHJJMsxlSMJEwbZekKd0od5YuIo3wRkSlO9EMAqBiybJe+YdDHVXkynXE7drxn3/vez+273/2xPfvsATt+vKOnXbxYCHwEGk3R2JrARx4QLysCJ9Z5uvKE6H/STq2esKuu2mZvv3G73XzzW2z9xhXyjkiPJwR84nE/a0DYChvTNo5eExJAr1FJRCSAZDCYzMJdKgEkdfgo0tCSMjRmR/gmtNAjD4J1mTqwmUgBHX8UTqx7HuF9HD/Wsl27XrRv/s2P7MEHf2L7D562uVnJUPf6YrPa4nJ4ktUDXKWt8miaWmzGU/F3gBS9cmVTb5KvtetvuMz++Sc/bFddvdEuuGCVyhOA/P0f0rMQzfSM4NIGh5QTMTryQuPSufzNKVhVfO2NXAPCSZdh5hrQ0p6CVQDVqVcs/waAMCp0WR+BN+3QoXm7/77vCUCP2E8e3qP1nxjupOzMhZ/Ucm9HUzU5Lj1/70dPwnxe1rH2GF5MQIhZ1pg8oS3bVti/+sNb7Z3vudIuu2yj1oVYh+IRfHhBPAmLsAhARAxOJYgKjCAkgKri2dMhCaAEkLxNzGHpAALXZ0/BJEHeewAoFp1B0759c/Zf/8s37cFvP2q/fPJl92bEE6WVhGp/eE9AS7YIbAAN8k3v9DR9vUaXCYpiPXrzxRP2zz55k33gt3baNVdfqWlbff8HANVF8ZKBTB6oWw2Lj2vcudkngKru2VcD8EeV+Rg+n4It4SmY7Gbxi4gYUZiUXyjDPdaAuPLS3o796Zf/2r7zncftyd0CkGwOyAAfn2rzDRfTr7oN1v0AUUyt5CBRjG+UtUkA+oNPvNt++0M32M7rd2iWxmI1LyCSCACVxDqLjOyjlhydeRwx5+o3AVT7gb33E08JeFciAZQAWiKAMBy3IwyIQ/aKGKxfKkZujANoz7x95ct/Y9994Al78qlDASBdYYblr4g4gMgLZdgQE3LxgOKdH6UlShvFOoD+qQD0wZ12/c4diqwAIk0BomfAs8OXIhcboe7j7Fz/JoCq/tl7pyaAcg1oOVOwGLIBiQDFawDk8MG85AHt6QpA37TvPLjbdu/e7wDiKRe25396Qzc/wOXwYQpW4OPYcLCwqCxfCa9J0AJRmy6RB+QAus4BFJ4SsCrBZVO3swE0SFFTnvN9Aqj2AXv6SJ2eHlDcJ9MDWpoHxKitfsXANWH4Vw9oAKC+ANS3r3zpWw6gJ3e/5PmYhp0NoMEiNmL4p31MqwJATOr0YvQiAL1LHpAAdP12T8dLifH01AUorgKIJ3ZgS/ELiNLxaEICiH4gsE8ASQ35LRhvMGMOS1uExngCEu75uD1hSDrQzqc7fghGTACyAqCntQa0R3F6ouV2pxwCVfwpDSQiCMwoKkQVAKluStc8wwMaLx7QtQKQ1oAac8rNEkLIQEA8EaNdLExT0wohnY4wJIDoIwJ77+30gHIKtlwAYTgKZboUhlQMCy9I8fGvAujb9p0HntEa0K88fgFACBEYKnUAxcB7AiJ6uuWLyosApLSbLhWAtAj9jz50rRahwwNq2FyRFaBJAKHbXyfQgYN83jPqCCLoKF1TVH4Llm9Cj/JPsjoxzoBPNdiAUMUP1vvSnoY8oAcEoGcFoOf9CRg+CaEgy8VxhsgAEGtBXAVA8qkWe0AaA5suGXMPCABdv1MAauoPmwlA/v4R60g6i3eBACvvBEXcohIpfiQhPaDa6+ydb+kBpQe0fA/odRehfUiDjOr/9G3vnmYB0HMC0HNnAIh3erihuh1qFyZJ/gBQwGMRgHwNqCUAtQSg98gDuiYApClYUxsAir8NxFNdJS5/miMB5B2zxJ/0gGQ8mCLPabHOgX3qiLukrzLkt2DPj/ZbsIVecVxo8NNnbFzhXxwFgB7Ui4jP2e6nnvH46gENABRJPXfwqHox8dr0wAMCQHpsv+nSpgD0XgHo6tcBULzQGJ9k8LlIekDeFUv+SQDJaBJAjNQYzsVy/ETDSfGsoYxuCia4lDUefBVwAy6obYVQACiu7d3Tsq/8ZwHogecFoKc95RkAonlK6s3TPnJxpiUH92AQXdaAuuzHBCArAMID0pvQZ3hAAEibfxMGgIBYTsGkhCWGBJCMBgNMD8gHZTUbP3njAMj7J7BRfmtFgUh4QMAk1oAWLULLg3UAAR3Wi0lUgq8B6biCjD+bUZodzrCbRMs2+xTsvXoTOtaAmH4BIUlUZtZKgReJyc+fNkNK3aIwlxuH5/Q314Cq5tn77SbXgHINaDlrQJADwICRMqh103Sz8inzAnwwL38P6Mt6D+iBp/QYfl+sARXoxMOVYofaLYTqTalepQiHE0xRos2X8BTsff4UzBehiwck18xFNLiJe1106nWN+AX5IWfx+bk6TgDVvmCfAJJB53tAy3sPCAABH4xHUxu8DaZL7mfENTcraZb9S3v1JvSX/lbfgj1pTz55KP7+D6AgKYtAhMUr0R5RjRQJCjolhmTsN/Mm9Ce0BsSnGDyGt1lfhHaZ+vG0+uXIJRChABrL4WAfV87dbwJocQ/QOzKgfBMaQ80/x7G0FxGhQALo10VWAigBJNthAHH35o6aHlB6QL8uTpaf7/8AAAD//6v9SDkAAC1kSURBVO2d+ZNkx3Hfq4+ZPbC7OBc3uCSIgyQIkCApGZCCtBwKyiGBFuUjbEqW7d9sKwgERCv8P/gH28ThcPgXmz/4CNpBSqIl0RJl2qRs8RB4CARAaAUChHBocRLYe+fobn8/mZXvvZmdhWeajcH2RNbue/VeVVZWVlbm92XV6+nujUb/YlLO5zTplVZArial10Pgvi5Vp6KJCno6jrz4Unnomy+UB+/7vfLkEyfL0spyp63oRAtd0f8JNyTjVXNj3y+9yUDFK1Z9+cH95fYPXlnuvvfj5eZ37S979+5S3Ui9j8QbGXSoJNiowPvsVf5wkZwUjkU/6fXLa0dPlEcefqU8+MAXymOPvFKOHlsqKvZ2nWYuKLzhPtatV7YkqtE4qD2w/4Jyy60XlU/e+7Fy2/svLZdceMDaqEdrP6ky0LZncgRP8YU3ZarslYGu0PmknD51ujz+Z8fL/Q/89/Lt77xUXn3lqGqUQgDpacJRViU/8lGpJB2bFiodYlNFvmtxoVx/475yz69/rHzoJ68uV115qcrR51htXJeej02K0kM2pcrDb3S2vjQTKh/r+IunV8r9//o3yze+9mx5/siPbEQq9qSxQ24yhYzUxDWEmkfmvWhee2pN1bWHdpdP3vML5ac//I7y9kNXaVirklBjlY4mJpaobHDcwAQdMgaOVn5jr1bkf/n8qHzm33+pfOUrh8vhwy+Lz0Tyi48qe/0qkNkm1JFquXFQGd0q8/kq5aprdpW/94mfKh/9uVvLbbfdqLql0u8tO0+1MVqduTKulR36qJdNHj1uV95LAKqq9lnSpCUAJQAlACUAhQb0dGifBVwJtQ22CRlUp6KMgDICyggoI6CAjNnmCUAKj0FcljgOxS0g5xIsl2C5BJst4KznlgCUAIRNCHVjv8JMxG5yDwg15B6QWcSbdEoASgDCtBKAXAnoQqgD8OQmNMp4s1MCUAIQNpYA5EpAFwlAaGGbUgJQAhCmlgDkSkAXCUBoYZtSAlACEKaWAORKQBcJQGhhm1ICUAIQppYA5EpAFwlAaGGbUgJQAhCmlgDkSkAXCUBoYZtSAlACEKaWAORKQBcJQGhhm1ICUAIQppYA5EpAFwlAaGGbUgJQAhCmlgDkSkAXCUBoYZtSAlACEKaWAORKQBcJQGhhm1ICUAIQppYA5EpAFwlAaGGbUgJQAhCmlgDkSkAXCUBoYZtSAlACEKaWAORKQBcJQGhhm1ICUAIQppYA5EpAFwlAaGGbUgJQAhCmdj4DkAnH17IKGcxeQQgJbImcL8b148jzy+U//ccvlf/95cfK9x9/tYz1laz+9a4ig1Tftse/+EpbvjSVr9A13nxdLF9RK/Yk/hq+r69xvfrqxfIrv/rh8td+9rZyy7uvV9my6HQYw/gi1vhiP29s0lU+dNxcOuttO+dXsobmyZmV/EpWmbs7QH4n9Ca/ExrDie+urq5rDl7delKGsiu+P3tYXnl5ufzu7/5x+f0vPlQeeuhIWVlx5+e7ypfOTMqCSBf0vdmrqyMHJ9ljvzdUWwx0tQyHfIc0depSuDRc6JVDb9tT/vE/vav8lTvfVQ5dd7AMhvr28T7fac5XywKMLo2LFgbPXRg9l10ap9yOcwJQzEfMRQJQApA57ua/lD4ijYmcOBzev1WaqEeGNVkQgCwoXywnTo7LY48+Xb70P/64fPnL3ytHjpwpK0vu/KsCo4FAZTAYlhUBkIPOUNigH0kQCPX6q8KEJQGQR0F7LuiXq67arS+iv678yt+/Sz+acF256KI9Fv0UAZDLUqOmii9u7pLYAE13BjyqTAA6B97mEkyGhNlgdG5F1ZZUphrF4dTmr2K8Rb+Kgdm6V+vC5wjHJ+6I1ERAioRGK4Ny4sRq+drX/lS/jPGt8ueHj5STujdMgY8egPxiy6pCHOa91yNy0iJMeX8wKaPRktUPh/2y/8BCuenmK8oHP/Su8pGP/EQ5ePmBMtQPe0wKvwYDAGEp2IdyAxyzmBZ8VOORm+oTgGK61uUJQJihlJIA1Pg5JmI358FXspogCKPDlmHMEz8xhPMDQ+S+/2O5lmHjsUDo+FJ5/fWT5dix02VZkQ8AxJ4OB4mf6JmoMMCH+vGECGhcFhb6OkQ7XhEI7S4XXbyvHDiwV8suAZ+WZ4AQ/Ya+zH4MgFQSeVOrDgGfdUtIOGxHyiVYO0vMmY78WZ7cA9rCz/LYBnEAzMgcuddTLqDwJVAbDTm26BfQsDFFNADS0vJqGUMuEOj3PfrRLo+iHeIWUElU2uwZrYqPCAdao/U5RD8arQhsejoMcTDeerhR+4OLc93EVr/YtzrTQSJXG8AnAcg0cvYpIyCZCYaCkbgJ+xlVqSaXYHLot/CHCatzW7xhTizgiZw50+Fw5vAA6Gh7R0CyoJ831F7PyPd6AJUhyy2j58cRmV2Sn+FCRDTUXhDXY21Ie7jk1sBvGjrUrF8AUuo82uin5WtdGAi1VuVl23POCKjOjc0Rc5ARkFyEp2/+MuqmfhnVDMd2WYQAGFAAEJAEAFkco9xp+FVVwY8OIiHV8lzpD8qAV1pKIy2zRqv+BquvfZ6BQAm4MbDRmzJROo2Aa+BrLbpo2nPjyz9jZ6cqXVuw5iocYE3htt0kAIX+yROA5Cb508wAB+awaQASMabj4GNGpOsuAMENGPAYRbGO14rUl0eADzcWRxmfkfZyjJ/OCql08h78c0Zca+ll4CSA04+j8Rq/b3Q0CAiCjjrPqbH74GV0sSSjj+1PCUCh95jjjIAyAtoKAFX7cXjoOjtg4o7vcBaGBsCz1FKtqnm7RT4as8Gsz/VoKeagpEhIy6yx3oaxNxTmOR5xLx5qB5wBNSOVjcWEvSI+mEhyCPL+raQBoZArqBKATGHnPOUekBkaT8PcA+pYiXuVliPSjI637qeZXSYc3gDH5HLHp4ayNQCkBxxvtgAdjqE+80OyvR+BDfs8HgmJn7CBqAbQ6QmEABijVTsAR40MjHoqB6gsNVGQUeokIh1tFJQAZHra9CkBKAEIY5Ef+bO9Ws55BUAIh6OTIu9eh+QAj67Npr3MhxHbxIIxAZBiGuNjAKR4ic8FOVvFRop++CAiUY9HPHxIkY1tPnDI2zU4evzjjZAnAYjZmC4lACUAYTnyI3fZakbuuedJBIRwOHqk9dchufJqzwYWIo/IxcEGOgCIaIYDPr5vBAiNFOUM9fYMABqzCa3oCT5QAUgeJXl05W1VEalZgkVBNw/5umXbc517QKF7cmYy94ByD6gumja1CW32I8NZA0A4L8a0UVpncEQ3JLVnuebtAny4h77u08StSoy0u9xS3UT3vi8U9RCSok+/a0WjHKZK60i88M0/JwCF4mMuEoASgGYCQDhvde5z+nEXdKCNowtAgE8cMDoXz64hQ0cC0iivR7Oa6NJ6n75HZI229ZQAdNZcaB3NH//pb2lIlx/cX27/4JXl7ns/rj/221/27t2lupFMQh8gwzAEWExwsMFAzES6T0RNPIVatesp1S+vHT1RHnn4lfLgA18ojz3ySjl6bMk2HK2dnaxr40vI7txllJVnS6IaPUHpO/8W7C36WzCb+Jib1gpiBpvcJs3rY/484oFCJXVu2ygoqMLGsDPK4tClsQs63a9LbhkUQqgjAWidhjZz2ygNYle+R55MjKZLRRZ6qvDIiy+Vh775Qnnwvt8rTz5xsiyt8Ed5bYLWNumYiyb0rfXMkbFPAOKlLzCaX8exla/j6FoaNoVBKTX2W++jXFVR4oZnxJzWJVHxkOMwkDIjFQ3GHBDTlqk7Sz6D0QM5fBze2p4p97YZAbnezj43SqMqlMV1AhCGlBGQIkuZxVv3Gl6d259eYJukjtM3tlsBwECgS2MNNjit5WGfC7JIu9vX2dcOOpTD8v8nDzQQQicgqxEYpduZcgnWmWufi4yAMgLyT+5sbhPaHTiWUO681agaAKI0DO2N3LtL0/KwJbh4rY2A4APY1P4rkKwFH2iCp3KRRszUljufBCD0sFFaM4mu7FyChaIyAjo/Poi4bg8IsDhXaiKN+KxOEHbbcO2AcXYtPhCpXjc8Ke/Wcx98a77GnyirkLSGB+22J2UE1J0fw7eMgDIC2koEhKPKcHDgNc5dXb9x7AAGHN4MzT7pU1sr6xoipdwT+3i7yKnZWgq+tKrXbyjn1rj/uNQJQDE/5GYXCUAJQLMBIJzTzGoNCDn4dB03ICZAZ22OLLyW5yB1DdZL2rK436gk6ry3uHsjypbmzbtKAOrOZwKQzDv/Gn5Lfw1v9iPD2SACatz2LACiJoAgYhsY6cWKAYyubRmn3Da4+X4g/jyDZB3WnOvuvW6DrS7jxihMhqj0nJ59AdblYw237ZQA1J0/5kVvG/JzQG6a+Rp+M6/h8VUZzhsCkNP4rk+AAGWRMMIKPva2y+8Bh16Pv5KPI4Ai8mgDH8ribJc6mUFb7pvMfu+QF3X8KUcAX7TbvjwByOfNZ87mJAEol2DTLsFw3IhoOk5sNhYOH+Xch/FRFmBCe8prnSIgj342WoJVOlgFPZdNsgrdieO6CCikbPvqytIweNMvEoBC7+RmIwlACUA/DgDhs2FU7r/8XM/ZibK1dHZvpFGuvPmMUfCIOjjW66g6uxMrMapGho2IuzzPweRNKk4ACt2TMze5BNOzmOdjfhJ6c58DwjNlOI2Dc59psxpIAEoAkq0Q3vO9MzxTcxN66k3ozXpd0jUaSABKAJIxJABF5Ktv1hEIT7kEa9wqLzargQSgBKAEoM7SOwFos9AxG7oEoASgBKAEoNmgyRRcEoASgBKAEoCmgI7ZNEkASgBKAEoAmg2aTMElASgBKAEoAWgK6JhNkwSgBKAEoASg2aDJFFwSgBKAEoASgKaAjtk0SQBKAEoASgCaDZpMwSUBKAEoASgBaAromE2TBKAEoASgBKDZoMkUXBKAEoASgBKApoCO2TRJAEoASgBKAJoNmkzBJQEoASgBKAFoCuiYTZMEoASgBKAEoNmgyRRcEoASgBKAEoCmgI7ZNEkASgBKAEoAmg2aTMElASgBKAEoAWgK6JhNkwSgBKAEoASg2aDJFFwSgBKAEoASgKaAjtk0SQBKAEoASgCaDZpMwSUBKAEoASgBaAromE2TBKAEoASgBKDZoMkUXBKAEoASgBKApoCO2TRJAEoASgBKAJoNmkzBJQEoASgBKAFoCuiYTZMEoASgBKAEoNmgyRRcEoASgBKAEoCmgI7ZNEkASgBKAEoAmg2aTMElASgBKAEoAWgK6JhNkwSgBKAEoASg2aDJFFwSgBKAEoASgKaAjtk0SQBKAEoASgCaDZpMwSUBKAEoASgBaAromE2TBKAEoASgBKDZoMkUXBKAEoASgBKApoCO2TRJAEoASgBKAJoNmkzBJQEoASgBKAFoCuiYTZMEoASgBKAEoNmgyRRcEoASgBKAEoCmgI7ZNEkASgBKAEoAmg2aTMElASgBKAEoAWgK6JhNkwSgBKAEoASg2aDJFFwSgBKAEoASgKaAjtk0mQsA8qGCFBP9G5eegUa/TGQ4k6KbyaCU3qC88MKr5aE/ebb8m/u/UJ78wbGytIxlQdPnZPSl11d7+Iyszut1FptepSuTnmhGFJWDB3eV2z9wbbnn3r9dbrr5orJ374LqVlVDPX1DxeF9WS7+PcnpZZKz0o3LUNcL5bXXT5ZHvvdiefD+z5fHHn2pHDsuXrCy8aiZ0UvmmuBe4Ce+3cQdVNQf2L9Y3nPLZeXuX/94ufV9l5dLLrpApSuqQ04fv1GbvLVVbyzxkVM61T/42ZhEP1Hx6dNL5fDh4+X++3+7fOe7L5RXXj7hOhRhT/ouZaB72qkf+NCNM1Ed4qpOR28inZdVG+OuxV65/oZ95Z5Pfbx86CevKVdecZmaIaPmQ3RIwHy5NMgGQw6vUUWTxsipNqNxrzzzF2fK/Z/+XPnm158uzz1/vIzVxPk4J28kfut0aOX0iw1pPMjZt/kt5dq37S6fvOcXyk9/+Iby9kNXSv5lq0efNk7GZfKos434eqd5fgMNzAUA9WyWmWnBz1iGLHvpyVhWx4ARxrqo8gUB0Gvl2996ujz4wOfKU0+eLMsAkCxlMpHjyxEwyj705iircruRGRLGNBgMS7/fL6urK9aGLgeDXrnssmF5//uvKfd+6hPlxhsvLbv39EUHYIhOPbv9uWxuhAE+ABwOVB1VRjuuch59fak8+uhfln/1L/9LOfxnPyonT44lv4SwNJCcXSeEH3UbOw8u2+/3yr4L+uXd77ms3PvP/m55761XlAsv2qWx4jDLUBigABqD3lB9IS96EACF86vEgFI5QLC6OinLS6PyA+nx05/+vADoiADoVFldgaov3SyUwXBYRiNxGJ8WO8kotuhS01IGEmzQXyiaLvU9kIxLalOKmpS3v/OC8hv//G+WD/zEdeWKgxerGQCkRho3crleGXN7mA4MLKnVeNRmZST6HnM/FACdKA/c91/LN7/xVHn++aWygpwab1+dTrABceOhUeBBN16gC4xBgslGyPu9JbVZtTZXX7tbD567BEA3CYCuEO0ZNV1WHW0khfi7bYpny1DXmTargfkAILMYTBBH1RNKwAAAjXhMm8HultXvLq+8eqo8/N2nyn334dhHyyk5tkhlGwtqq2fbqgCrPzRHGOtJh0HylKTOWIk/TuLO7gB0xRWL5QMfuK588u5PlBveeVAApL77cmpzbmjdnt0A4YRMgI8DkDiKfwUhyTiZ7CnHFfE8/v3nywP3/2cB0YvltR8hizgIGKD1A2CFFyDrefcpy7BIpgn5w0UXDRQBXVF+7e6/IwC6ulx88S7VntRxWjQCTYu+cG4dY3hLJgFQyAoUUUuif3B4RccPf3hKEdDny0MPPVNeOHKqEjAO0UlpEyF1r68IaKCC6tg4vJjoEPCP5NRFYDg4qaJR2SMAv/Hm/QLKXyq3f/C6ctmlF6oZEVhEajART9obE93Z+Ct4UKxyWYKAb0HAtld2sFCeefpo+Xf/9r+Vb3z9BwKj02UkAJ2MpQOxY5TGTlFtqdGNs2FeNOoKPj3lvd6pOr+KgK7bUz71G79U7vipG8u1114qyiXRL4mX5gkAkk6F/SYNM5dp6xqYAwBiULhZNbuRIqAhk69IQZOOMZTJLp13y7FXyuOPawn24GfLw3/6cnnllRXMS0ZljcuK/JzoB5Ah4OjJejwakrPJYMeyz127VCZ6jqHQ6/rr95Y777yx/Oo//Fg59LZLyq7dMJNnKgIyqdyyrQNq3HPcoTB9rvBHooqJZOz19pSTJ8blySdfLJ/5D79V/uShp8uzz5ypDu1PavjQxPnpwq+4aMZi1/VegVu59urdiijeJjl/vtz87qvKhfsBXUUmdgzkKoumKyKWnqIgAIgIyAFI0SBCqkP0BQCNFV2sSl/PPnu6fOYzXyz/548OlyefOmmRDWA9kgKXlgRa0tFQy6o+vhyCw1W6HEunAMlQAvYFUERVlx5cKO+//bLyT37tb5R3CzAvvHCf+kQONCUGNQqysaMEpRaAHUrswSN5JxrTEADS6J5/7lj57Gd/v3z1K4/KBo7aXI4UBa1KTqIUY2vMXIc2J9zThw1dJ66hVbZHD5qbbgIo/5Yi4ENaiu+XnHr4KQJCUuwHAMoISMr6MdKcABC2jVmMFXbLCARAWkzYsGXncl4tB+TYywpMnnv+tfJbv/k/y//9o8fK9x8/ZssbnKABHSxbB2CkVZfK5WhySpYxgM7yksxLF4tyqsWFXvmZn7mu/OIvfqTcced75SxqICMc2NNeQCgTDIcxYZoTPNypooiYQ/BmT+uVlX558YXj5Q++9LXyv778nfKtb79Yjh1VBCB2C+qTJQyjJdFqfbKySuCA2it33nFF+fm77ig/99fvKBdfyj6Vll86+gaUivq090S8N1ohylM9zlMByJeiuJWcSicASJoxEPrRa2NFFYfL7/zO18tXv/oDgbx2slSNnOyxGZCrDVtCXOPYAKJFlBoHESh80S0iv/e9B8rPfvTW8su//NFy8EqBoghZrlFrAAS10MKvKWZeHHiYf6rR+0jzQIS2uLBPpYNy7Niqospny+c+94fli188XJbPjMuZMw56Q8mKnpqEQKSqwzU5/HXceOO+8pG/ekP5B//ornLNNQe0dNSOk3SpuFsNtfQE2HTHQ8za5x6QqXSrp/MfgMwwMTqeeOw3KPLQpLOoIOFU7PH0eywLhuX4iZXy54ef1ebuU+WJJ57TMmxF4TjRh8xXnj3QoxpjXB0RxeAsupHFsQfD0gHjw6YAn4sv2VduueX6cuttN8gIFf3sUsw1Yf8HI8Rh1db2A5BFjZoDh8FZMFJvM4Cpntgrq/Q1lHOU8swzL5dHHnlST+ynbGN6NGJ/SbIibDiHLi2MqPdwsX50z/VgYVIOHNhV3vWed5Tb3nd9ecc7rzQ5BaWq1xjZA9LexkB7JbAgCulrGUoE6Usw4kj2wtzJGb85lupZZpw5MyxHXjhRvvfwD7VcfLK8+upxLc8Yr0dBUANkvYGivYkiKVRDWd1vKtr/YWkzGK7Y8vWGG68pt912qLzvfYfK4q5lRSiKUo0dunI9qrVkZnQ1FwD5A6gOWjXElmPxHvQBdYHhmV45emxZke8T5bvfPaz9quOK0MRG4+Klgyk0ctNEhz/91L76g5FFue+84epy663vEGAeKnu1n9+bSE49eIi7Ae8WgJivVi4xyrQFDcwRADEqPdFk5AYS1WgAIECgJwfjyUQ0NJGDv/rqCS3BXpcRjmwzenV1pGXBSE9/LUf0CB8LSMbyFkyTzdQVrTfGqt+7Z68Z1FDGdtVVl5V9+3YrGtITf5EnIFGPO6wBDE68HoBwnMbQcWqce9mjJgEQG+O9HnsXe1S224AHOY8fP12WFZ20m9Fq2iTGiFviKErVOXnLtKBtjksPXlgOXLinXLBPwDKQo5icIIE2UwVCgMJwgH602EEk4wQQM3oO6QIAMgBGPtUZGIhe+mSD/9SpkaKMMwZAJwXqKwoh+wJzAJP9n754AUAs8fBHQG6gcbIJjcMuLAKUu8sll1xQLrp4oSwM2U85ZdrUhUnh46vjrGP0CCjkhI5+NBf0y3xLzpFEB9R5w7iy3CsnTi6X5559ySIkItuRomafL/iQyFvQ8WvKBb2KdPZdsFgOXn5hueTSvdKd9oTYmNac+kMEBQp0tF8XEZAvX4M3fDJtVgNzAUA8xfpCHf7xtAYCSJgg5sCT2tYA7LPoaT/i7Yg2WtVKBoQBqpV4jGWpLK9sExsUk6fAiycYBk10hBGuAkbynL17d2mpoahEEc9orDcgevtFn60xA0AVhKxcT3CTBfn84G2Zv7YnGsGxFyznWcoykLdKLAFFZEbNk933FUSmRG+WADrd8c9KAV39mxCNSS6WjCw1xE2lgA9gRpSnnohG1C+6Gte+ABhUQD36tQhI13CwfmzNAoF0Ckdt4LPEXV6WfP1F6cR1BTVvlnB0AIjxLy7uMoDiLRr98DaMt18LknHAsq+nPa/xKS2ltZzlrZxY0EeMzcGPwiijk06SWMwZUQhA0BfzQY9N96EeUHp7JxlXBOZEezxkFhbYCO8mxkUyBfiljZsSzbGiucVFyS1gXV46oYiI9gD4iuZKe0AA+lA6EMiSTH/SXaata+C8ByCeeCx7BvIW/nEfoEEZJuMGjCFgmZSxlGGjtW+RjTzGAAYQ42mFUdoTFFIl+IXxT2wpRqkcVxsY0QOOzUHyHoxCfVYQMhNXjfUPFaAiSWwvZkV3ejMj58cZiYAAI57k9Awh47LEbb2zy1poTlnHxudqYpxjAZC90VME4oDMRmnrDK41gJle1E46ULdK4u7/a28UhiatU6Nlt8XLqWMBEm/1xIduDKjQqYBP7Fna0Y/Nk5oYUBl4aqvYlqGMWa/JV09btDGQYxvAqU1oO3JVNGVIZN1xoVIAyA560yYS0QicNX3Gj49nIJ8/vKyFtXO9hWYjhzPVSMIDIHTBQ2tF0SPwBdioB+tXfQI+Aj+LHKlOAJIStp7OfwCyCeepi1kz05r3anxECh4tYJAyFiwOg2RpoJy7JW0E9GRAC0NtVMuIFMvoKcbygcgGA3QjxHhHFsvLkbU7TbgN1Lk5E69wpSWG+rEoyu7ZJ0EmHQYOLT+oSfaZITNcPpsiZ5ZjLCwsqlcMGjf1/ld9rWIyRb8hm1HUflh22bKPdiqbKPohAgpwNIdAU3VsrjOiOm2gavlJNOQfX0A675srlxeZXe4mJ7pp9IDMLHXETyDOchFd0dXKsj7nMyTaURSipaxFlIpu6H+keQGgcGR6ND2OtSy1JaBHUsRKLk2bI0rchaxMMSDgn+cCZIzI5p5+zSbUj/fkrYmaRaiefZ6Aak/qEX0a4GhUTQ4tc08LtwMeHmZXGpPxkXBjRYUjPRwNAG0s1iRPW9DAHACQGxxGzlMNQ/SnkJukAZAqLQyWkeG8Ezabtc8DDLGkoRRqDJwrv/anF040lBPRjmv6wEmhZb9pbPsH2l1gDWHcMEzAEF6ccQKoOUiR154ARpyPV0f1KWoAqr7cgeUsAkPeREVLOGP2bUJ2ar2/iH4s7xOV8U7ojByfN1RaGmi5Bf0KH+Zh+WWODz8/OHtf6I2r6Dn6bGlteaV2I5ZXeuIPxJ9oAwr2zQYG7EQf0pX+MTfoL/RpQC+JkGfE2kU1tpy2OWNpK0CXfF2ZQhoKQ041VJK80htL5MVFffZLYLC6qqWxeBGtkny+/cHh43UQsUrTH/PgdhTcHWxoE+2UEybKFnhQ8PKC5fuQDbf6KFrWg81AVqDLWDMCcg1v9XzeA1AYiT3A5Cw9OSuO14AQyGTm60Zgf2ahp5IbBBAR9bYdbHcRFaiF8eFpaiBlXoCreCv44jREFQtyEu5pE7XIBlSEjG2uItVYkqzsuwz16huDNkBTE5yGTXHEV3ET+bA5biuVaG/84SzCDaKtiT4EyN7EyD4kF3tMLPHUlwGqYFjLA/j68sLFQnKDOQMgRtSOw0eJ/K7TvjmjKcf2XYhy0BGfRMcJuYabt0NWP0x/6ndgjqzIS/TMnUUvgJRuAV41V7Frkja0t6Qum+u4srlHX6Y06ZO51n+LQBzgGBuQDHefq5AI8NHBstlSlDNO2ipX2+Ywuk6UK262pFQzIkrmzsyRNhY9GdM8bUEDcwFAOAeAI3/ShONk3MtM6uFrdxmuDAIAMgPUa9ORIo8FlgjVpPwJrNY4BAaM5ct4eKpCZHwxJv3nHsfBrbwdvHEequF4rkQdDGoy0BBnlksq4m3cUNEU47DX1kQA9CWnJorAsP2T3rR3Pi6lzgYWCEAffky0yT2xfSacTX+WoPNEG/DI6PtgOJv4jnhiE53QjkSsAC+4u05NEOO91hEBr6Ft0OsT0qt6eyW98KcryADIAdA8GNAPuofeQYelGp8aR5dEEowHSAAEoFUOOMp5+Zs0l8znTwT2H37GQGeSz5siVgEPEdjCImCr0Wiu+YgGG85wXtWbR5ZUDkBGIn6ACXJ7/85XvRr48DCo4646sr8zEy4R9QE88eaPaEtSixdvOAEv5Kp9ZLYlDcwBALXjYbnA05YZ96UDdcw8RqoD8DEAwpBkOSCUGcZaI272bVTprcPonZMaW8KoaAkfKOp/r7Sz1arY805Fc2nLNJy8PnUBUhzVLNb4itTkDqOujmjjUF3DGkkhJfdr8oleuXMwXj6Zyx+8FnslrbEZyEJLPcsxaGDIgY58U9llQxfoFSCpjhidd2RmOYLs/COZXoLOvLBty4hwVKfC6Zm7qosKfPHHsB4BBW3I2M4LfXkCUjQK6SF06SpiqQ0QRpuIaKIduYALALK5kPyhSwBIB2/A6rCsES8YTB8GlPRXeWluArS8JLRR6zPbtAbmBIDqzMto3eAxYhwgDuoxCmoxYhniGieiPmjD8DBijNnbmrNAYvfkbfI+nZJSI8MIm7b0GSn68nu2rx3wcEDKrHUQe1779ZYt3y7RmlY2dmpViuPgQHIeLfTUFw5GVBDyyjkAKEVKeieocnfyACDfVA4ZXa+hE1tWrNEzbAGVSGukqsNr+Tsfi8lUp/EbcKAHjgoEmicDIeUxdzZ/xk2aNz1Hf8pNHp87Lw0ZmHMkU//N3Ics0Z4+Q0e0q0fVH3q0sVWW7bwhuydXPfpE53zkAVBtAbmSZbZJDcwBALlDYsy+6aurNU6BtYRLABVuhG6MbXljbFZUgewsAOrStxps+jWDbcvNYSoQeb/UwYM7N27nWC062rsVV0ZRh295K68IWbir5VbULVeVtaFM+gnnIgqqiZoAII+E3CnZ9ralCKAFOFhEIlksd37wbJPqbKzWE1zbqnrlwwqnB1C6fHDUehgAVSAyNkGnttZHBSO7dhma3urcOzhEKbnzaECI+6Y9dcgV4IN+1CbsCDCpINQdlvcBKEtW8XJJaEpE6YctIzUuByIVZ9qSBuYCgPzJyPS3js01BtQYhdUydpXIWFrjp4wEfc2tFsPiyUVhpTcj83sorY3OLQDhQJEw+q6jUG4dKKdOnDFwcwKMn4NyUjdvr2kdd0ZWZYtr6toRt30ZPJkz1T0OHIZkfZOz/MJhiIBo51GJA5DaBAAZ+DBGaOrRCBT9qQq+za0kqv14EePkqgtAurWRwbseJqOuTW4fmenIopfatolkaO8cuvRrH0QhkOcROfneEp+VcgDiz0KaJRjaxAYaABJN6Ez9NQAkmQ1+rA7+LQABaoCQAxFSZtqKBuYAgKqTmwGFoTJEXLF73x2213RL3GGC3g0PHnDBYSxvDIz9BGiVtK8Rhuj7OVZoVQEuvtyjqDqBHNnby8Hq05L3Mm1q5XCHjJraZ/Rt/KpD1Ws4ez+1Lxl/CyAeVbAUc2eutBWA+PyNj3czAIRMah86aRwz+qXek5dEhBAAVPtu5GVsgE/kXMtxAb0G+GgbIKB53xCARGI8GIl4WdvQG3XrksCFT4ujfwOJdQDkvIiA6C/mKEaEbPSj3MaPXdDregAChNqoc50EefsGGpgDAGLCq2Hqqk3VANsCXVF/toMYSX3SOgd3Q4yrXnkuI7NN08bZnNo2I+PJTR/RRXWQjQDInA0gap6uGK3zM3nsmvsoW38NVXTUzbluD3eqrhOrT5zSxlDpTAY+yY0TRlv4i86e3rV91VHDv9EDtG+QTG/Ud3l3r6nzcTowx1ilf+tTSxjL1cZ4QeXXa3lWPrA2fpWPtaWM5P34NbcAEMARAORjZu49KQd8eEDYfDYtaVwfPsq7+oTWQIic6MejoG7LvN6cBuYCgDBCB6HuoMKAvLZb49dtvd1Xg2tL65UZM6YmPmaA8QQOjrgCTs2ypi5toqoCYwtAtQIAsCcz9O4AZxs3tCGN8q5DGBuTyK78hENyhcBxcF+d2NrjXBBFWwEqjmPjiiiANpGgd1mBYpeBtq4DRu6AAT3l505QtiTI101t241q/NPdojEnZ3QBQPBY36LD18YcvMnrtTXx69jgtjdkVh9zE3wYeX3AvQEA0dTGaPIAPBy0Y/8nl2Chza3mcwJADKsapY1wvVFWYzMDg6AaotHW69qkW2PVblnWogUgDKul5O+f2DfwNzneirMZroz2LHA0API25vyi8dfRbdu1V/RVj47zrKExcdwFzCmrsxq+QHgWgImRKq2F0YYMMS4cj+sAIHjASMnGxA0HMCQ6A1Sr5HR2sr7WF9OOMuV0pRu/Dd7oTlW6Jbc6yIyWi25qaruFunbitftBkAQTB9MWgFS+jhUjpDD2jWhNCp42/srOR1ABqwGg3IR2jW39fP4DUGMssgBzpCjwfOOnNEbmZuUqcVdrLa/lYW8v4klqT0A92SxvlXlOALI9A4yRp6EnYgqPlnBsIiD1VQGgktSsykDdGvColh6OZdSUhcwUBM96qcy6oIqhk1uCjntKqvNbOfwqAFnfOJDTkDV7L+ghdNNpZ6R2X09Nn/CAN8n78PbsXMGYeqpCZ+RQ+vx4bae9Csz5jai2tRbdayuop+jTGujEvWiNZW1TM+8l+AT46N6KvJaG7QuI2oWxZjTIjnTQ+rlDkZeb1MB5D0DxFPL9CqyDSVduxuz31cJ8yHIYN1o3DC/EQIKWknptzl8jAD3hY79m7ZIKUwNIeMNUAcWZ1k3LCMe90F25gk9EDY2s0NA3SbnKkcvl9dKNwGhNvbWr7ZXB2sdW269h4335OahCL9JJgEvwqPL4EswdbA3XoFePa5P34GX0U/uw8XNtsGwjdYFDZ3wwssvL24XTo4s1YzfSkCv6jJzegxc5fSq36iiHhgK4Kq/zEpqxumaM0AKczCXtRdVlU/lAZfyMl9/lefMamAMAwgAwJpxfxleNhuu1n/Vx63DA2sj4MDgUgwHSthoyoBJHbBgr7xplC0DwJQWv1pHCNp0i9oyC3ltVCWt7l8Pl8fqWCsqQwK+7FH5Ne5KcqYrjUYaXWVU98c7L+cHLr/Eml0dna88plpPoGf24jpwOZlxB35ZQ2iQJ4m8MqUcH9KUD/VZ922ed9GawfZMUvMhru5A32tcOvNtWLhPc5jN0EbzqGMXPI1xkUF3XdmzQMV7vwDRunXj7GEsDiOK2BhCtmWwAvdn4qqCZbVoD8wFAGKYZEOPC2PxoASgMTzVmQNy3ZX4d7bjTdRhjGBzGHk4XdXSn5EaHEWOYJNqThzOQe4KifWoGfdQiAyn6r7J4YXNujXz9OBqSeuH8TFx4ktQkevEC7kMXwQ+iKPNGvo9FSz8agDYmwbG2X9MWglpPteq8P27QWW0DmQS1eM8AHp0B4NRHctrG4Rtetd5IQ8bQecjW5cF19KvcZPCZcVmRUO3qPNt1NDfatn07l162vreGRwJQaHBL+RwAUBhSjMtNwGzRPS8qPDejjSKjihvl0Rbjo1i5GVz0QT115G1qHKpbHO2NZ1vhPerc8G35GO+4XddHFK/Nndvasg3umj9SUt0GTVy6qKi5FUYZzWIM5DqsKsq6fariHMVGZXXBlzyuqbUYrYlcY/O+BUhogl65eK2piyoTYCMhaB8piJ2P8/U2XqPrjeagYdtpbyybVtFBJ5eUG/HqUOTlxho47wFoY7GzNDWQGtgJGkgA2gmzmGNIDcypBhKA5nTiUuzUwE7QQALQTpjFHENqYE41kAA0pxOXYqcGdoIGEoB2wizmGFIDc6qBBKA5nbgUOzWwEzSQALQTZjHHkBqYUw0kAM3pxKXYqYGdoIEEoJ0wizmG1MCcaiABaE4nLsVODewEDSQA7YRZzDGkBuZUAwlAczpxKXZqYCdoIAFoJ8xijiE1MKcaSACa04lLsVMDO0EDCUA7YRZzDKmBOdVAAtCcTlyKnRrYCRpIANoJs5hjSA3MqQYSgOZ04lLs1MBO0EAC0E6YxRxDamBONZAANKcTl2KnBnaCBhKAdsIs5hhSA3OqgQSgOZ24FDs1sBM0kAC0E2Yxx5AamFMNJADN6cSl2KmBnaCBBKCdMIs5htTAnGogAWhOJy7FTg3sBA0kAO2EWcwxpAbmVAP/D1tUn4hc7umxAAAAAElFTkSuQmCC;" vertex="1" parent="1">
          <mxGeometry x="480.42999999999995" y="777.5799999999999" width="32.2" height="32.42" as="geometry" />
        </mxCell>
        <mxCell id="KT6xFQYIPRrfO0EYKUDw-16" value="&lt;font style=&quot;font-size: 14px;&quot;&gt;&lt;b&gt;Clickhouse Clusters&lt;/b&gt;&lt;/font&gt;" style="text;strokeColor=none;align=center;fillColor=none;html=1;verticalAlign=middle;whiteSpace=wrap;rounded=0;" vertex="1" parent="1">
          <mxGeometry x="542" y="630" width="140" height="30" as="geometry" />
        </mxCell>
        <mxCell id="KT6xFQYIPRrfO0EYKUDw-19" style="edgeStyle=orthogonalEdgeStyle;rounded=0;orthogonalLoop=1;jettySize=auto;html=1;exitX=1;exitY=0.5;exitDx=0;exitDy=0;entryX=0;entryY=0.5;entryDx=0;entryDy=0;strokeWidth=2;" edge="1" parent="1" source="KT6xFQYIPRrfO0EYKUDw-20" target="KT6xFQYIPRrfO0EYKUDw-1">
          <mxGeometry relative="1" as="geometry" />
        </mxCell>
        <mxCell id="KT6xFQYIPRrfO0EYKUDw-20" value="" style="rounded=0;whiteSpace=wrap;html=1;strokeWidth=2;" vertex="1" parent="1">
          <mxGeometry x="52" y="630" width="315" height="210" as="geometry" />
        </mxCell>
        <mxCell id="KT6xFQYIPRrfO0EYKUDw-21" value="&lt;b&gt;ADMIN SCRIPTS&lt;/b&gt;" style="sketch=0;pointerEvents=1;shadow=0;dashed=0;html=1;strokeColor=none;labelPosition=center;verticalLabelPosition=bottom;verticalAlign=top;outlineConnect=0;align=center;shape=mxgraph.office.concepts.folder;fillColor=#2072B8;" vertex="1" parent="1">
          <mxGeometry x="184.5" y="680" width="50" height="45" as="geometry" />
        </mxCell>
        <mxCell id="KT6xFQYIPRrfO0EYKUDw-22" value="&lt;b&gt;Databases&lt;/b&gt;" style="image;html=1;image=img/lib/clip_art/computers/Database_128x128.png" vertex="1" parent="1">
          <mxGeometry x="177" y="765" width="65" height="45" as="geometry" />
        </mxCell>
        <mxCell id="KT6xFQYIPRrfO0EYKUDw-23" value="&lt;span&gt;&lt;b&gt;Users&lt;/b&gt;&lt;/span&gt;" style="html=1;verticalLabelPosition=bottom;align=center;labelBackgroundColor=none;verticalAlign=top;strokeWidth=2;strokeColor=#0080F0;shadow=0;dashed=0;shape=mxgraph.ios7.icons.user;" vertex="1" parent="1">
          <mxGeometry x="89.5" y="770" width="40" height="40" as="geometry" />
        </mxCell>
        <mxCell id="KT6xFQYIPRrfO0EYKUDw-24" value="&lt;b&gt;Roles&lt;/b&gt;" style="aspect=fixed;sketch=0;html=1;dashed=0;whitespace=wrap;verticalLabelPosition=bottom;verticalAlign=top;fillColor=#2875E2;strokeColor=#ffffff;points=[[0.005,0.63,0],[0.1,0.2,0],[0.9,0.2,0],[0.5,0,0],[0.995,0.63,0],[0.72,0.99,0],[0.5,1,0],[0.28,0.99,0]];shape=mxgraph.kubernetes.icon2;prIcon=c_role" vertex="1" parent="1">
          <mxGeometry x="275.9" y="762" width="50" height="48" as="geometry" />
        </mxCell>
        <mxCell id="KT6xFQYIPRrfO0EYKUDw-25" value="" style="shape=cylinder3;whiteSpace=wrap;html=1;boundedLbl=1;backgroundOutline=1;size=15;" vertex="1" parent="1">
          <mxGeometry x="575.5" y="670" width="60" height="82.42" as="geometry" />
        </mxCell>
        <mxCell id="KT6xFQYIPRrfO0EYKUDw-26" value="" style="shape=cylinder3;whiteSpace=wrap;html=1;boundedLbl=1;backgroundOutline=1;size=15;" vertex="1" parent="1">
          <mxGeometry x="692" y="738.71" width="60" height="82.42" as="geometry" />
        </mxCell>
        <mxCell id="KT6xFQYIPRrfO0EYKUDw-27" value="" style="shape=image;aspect=fixed;image=data:image/png,iVBORw0KGgoAAAANSUhEUgAAASAAAAEiCAYAAABZSw+LAAAMPmlDQ1BJQ0MgUHJvZmlsZQAASImVVwdYU8kWnluSkEBogVCkhN4E6VVKCC2CgFTBRkgChBJjQhCxI6KCaxcL2NBVEUXXAsiiIqLYFsXeFwsqK+tiwYbKmxTQdV/53uSbO3/+OfOfM+fO3HsHAI0WjkiUi2oCkCfMF8eFBzPGp6QySM8AERgDHP6cOFyJiBkbGwVgGWr/Xt7dAIisveoo0/pn/38tWjy+hAsAEgtxOk/CzYP4MAB4FVckzgeAKOMtpueLZBhWoCOGAUK8WIYzFbhKhtMV+IDcJiGOBXEbACpqHI44EwD1y5BnFHAzoYZ6H8TOQp5ACIAGA+KAvLypPIjTILaFNiKIZfre6d/pZP5NM31Yk8PJHMaKuciLSohAIsrlzPg/0/G/S16udMiHNaxqWeKIONmcYd5u5UyNlGE1iHuF6dExEGtD/EHAk9tDjFKypBGJCnvUiCthwZwBOsTOPE5IJMRGEIcJc6OjlHx6hiCMDTFcIWihIJ+dALE+xIv5ktB4pc1W8dQ4pS+0PkPMYir5sxyx3K/M1wNpTiJTqf86i89W6mPqRVkJyRBTILYsECRFQ6wOsZMkJz5SaTO6KIsVPWQjlsbJ4reEOI4vDA9W6GMFGeKwOKV9WZ5kaL7Y1iwBO1qJD+ZnJUQo8oO1cTny+OFcsMt8ITNxSIcvGR81NBcePyRUMXfsOV+YGK/U+SDKD45TjMUpotxYpT1uzs8Nl/HmELtLCuKVY/GkfLggFfp4hig/NkERJ16UzRkTq4gHXwGiAAuEAAaQwpoOpoJsIOjobeiF/xQ9YYADxCAT8IGjkhkakSzvEcJrPCgCf0LEB5LhccHyXj4ogPyXYVZxdQQZ8t4C+Ygc8BTiPBAJcuF/qXyUcNhbEngCGcE/vHNg5cJ4c2GV9f97foj9xjAhE6VkpEMeGRpDlsRQYggxghhGtMMN8QDcD4+C1yBYXXFv3GdoHt/sCU8JnYRHhOuELsLtKYJi8Q9RjgVdUD9MmYv073OBW0NNDzwY94fqUBmn44bAEXeHfph4IPTsAVmWMm5ZVhg/aP9tBt/dDaUd2ZmMkvXIQWTbH0eq26t7DKvIcv19fhSxpg/nmzXc86N/1nfZ58E28kdLbDF2CGvHTmLnsGasATCwE1gjdhE7JsPDq+uJfHUNeYuTx5MDdQT/8Dd0Z2WZlDjXOvc4f1b05fMLZc9owJoqmiEWZGblM5jwjcBnsIVcp5EMV2dXNwBk7xfF4+sNXf7eQOjnv3HFbwHw5w0ODjZ/46LgXj+8EG7/p984m+PwMaEHwNlyrlRcoOBw2YUAnxIacKcZABNgAWzhfFyBJ/ADQSAUjAExIAGkgMkw+iy4zsVgOpgF5oNSUA5WgLVgI9gCtoPdYB84CBpAMzgJzoAL4DK4Du7C1dMNXoA+8A4MIAhCQqgIDTFATBErxAFxRbyRACQUiULikBQkDclEhIgUmYUsQMqRVchGZBtSg/yCHEVOIueQTuQ28hDpQV4jn1AMVUN1UGPUGh2FeqNMNBJNQCehmeg0tAgtQZeh69FqdC9aj55EL6DX0S70BdqPAUwVo2NmmCPmjbGwGCwVy8DE2BysDKvAqrE6rAne56tYF9aLfcSJOA1n4I5wBUfgiTgXn4bPwZfiG/HdeD3ehl/FH+J9+FcClWBEcCD4EtiE8YRMwnRCKaGCsJNwhHAa7qVuwjsikUgn2hC94F5MIWYTZxKXEjcR9xNbiJ3Ex8R+EolkQHIg+ZNiSBxSPqmUtIG0l3SCdIXUTfqgoqpiquKqEqaSqiJUKVapUNmjclzlisozlQGyJtmK7EuOIfPIM8jLyTvITeRL5G7yAEWLYkPxpyRQsinzKespdZTTlHuUN6qqquaqPqrjVAWq81TXqx5QPav6UPWjmraavRpLbaKaVG2Z2i61FrXbam+oVKo1NYiaSs2nLqPWUE9RH1A/qNPUndTZ6jz1ueqV6vXqV9RfapA1rDSYGpM1ijQqNA5pXNLo1SRrWmuyNDmaczQrNY9q3tTs16JpuWjFaOVpLdXao3VO67k2SdtaO1Sbp12ivV37lPZjGkazoLFoXNoC2g7aaVq3DlHHRoetk61TrrNPp0OnT1db1103SbdQt1L3mG4XHaNb09n0XPpy+kH6DfonPWM9ph5fb4lend4Vvff6I/SD9Pn6Zfr79a/rfzJgGIQa5BisNGgwuG+IG9objjOcbrjZ8LRh7widEX4juCPKRhwccccINbI3ijOaabTd6KJRv7GJcbixyHiD8SnjXhO6SZBJtskak+MmPaY00wBTgeka0xOmfzB0GUxGLmM9o43RZ2ZkFmEmNdtm1mE2YG5jnmhebL7f/L4FxcLbIsNijUWrRZ+lqeVYy1mWtZZ3rMhW3lZZVuus2q3eW9tYJ1svsm6wfm6jb8O2KbKptblnS7UNtJ1mW217zY5o522XY7fJ7rI9au9hn2VfaX/JAXXwdBA4bHLoHEkY6TNSOLJ65E1HNUemY4FjreNDJ7pTlFOxU4PTy1GWo1JHrRzVPuqrs4dzrvMO57su2i5jXIpdmlxeu9q7cl0rXa+5Ud3C3Oa6Nbq9cndw57tvdr/lQfMY67HIo9Xji6eXp9izzrPHy9IrzavK66a3jnes91Lvsz4En2CfuT7NPh99PX3zfQ/6/uXn6Jfjt8fv+Wib0fzRO0Y/9jf35/hv8+8KYASkBWwN6Ao0C+QEVgc+CrII4gXtDHrGtGNmM/cyXwY7B4uDjwS/Z/myZrNaQrCQ8JCykI5Q7dDE0I2hD8LMwzLDasP6wj3CZ4a3RBAiIiNWRtxkG7O57Bp23xivMbPHtEWqRcZHbox8FGUfJY5qGouOHTN29dh70VbRwuiGGBDDjlkdcz/WJnZa7K/jiONix1WOexrnEjcrrj2eFj8lfk/8u4TghOUJdxNtE6WJrUkaSROTapLeJ4ckr0ruGj9q/OzxF1IMUwQpjamk1KTUnan9E0InrJ3QPdFjYunEG5NsJhVOOjfZcHLu5GNTNKZwphxKI6Qlp+1J+8yJ4VRz+tPZ6VXpfVwWdx33BS+It4bXw/fnr+I/y/DPWJXxPNM/c3VmT1ZgVkVWr4Al2Ch4lR2RvSX7fU5Mzq6cwdzk3P15KnlpeUeF2sIcYdtUk6mFUztFDqJSUdc032lrp/WJI8U7JYhkkqQxXwd+yF+U2koXSh8WBBRUFnyYnjT9UKFWobDw4gz7GUtmPCsKK/p5Jj6TO7N1ltms+bMezmbO3jYHmZM+p3WuxdySud3zwuftnk+ZnzP/t2Ln4lXFbxckL2gqMS6ZV/J4YfjC2lL1UnHpzUV+i7YsxhcLFncscVuyYcnXMl7Z+XLn8oryz0u5S8//5PLT+p8Gl2Us61juuXzzCuIK4YobKwNX7l6ltapo1ePVY1fXr2GsKVvzdu2Utecq3Cu2rKOsk67rWh+1vnGD5YYVGz5vzNp4vTK4cn+VUdWSqvebeJuubA7aXLfFeEv5lk9bBVtvbQvfVl9tXV2xnbi9YPvTHUk72n/2/rlmp+HO8p1fdgl3de2O291W41VTs8doz/JatFZa27N34t7L+0L2NdY51m3bT99ffgAckB7445e0X24cjDzYesj7UN1hq8NVR2hHyuqR+hn1fQ1ZDV2NKY2dR8ccbW3yazryq9Ovu5rNmiuP6R5bfpxyvOT44ImiE/0topbek5knH7dOab17avypa23j2jpOR54+eybszKl2ZvuJs/5nm8/5njt63vt8wwXPC/UXPS4e+c3jtyMdnh31l7wuNV72udzUObrz+JXAKyevhlw9c4197cL16OudNxJv3Lo58WbXLd6t57dzb7+6U3Bn4O68e4R7Zfc171c8MHpQ/bvd7/u7PLuOPQx5ePFR/KO7j7mPXzyRPPncXfKU+rTimemzmueuz5t7wnou/zHhj+4XohcDvaV/av1Z9dL25eG/gv662De+r/uV+NXg66VvDN7seuv+trU/tv/Bu7x3A+/LPhh82P3R+2P7p+RPzwamfyZ9Xv/F7kvT18iv9wbzBgdFHDFH/imAwYpmZADwehcA1BQAaPB8RpmgOP/JC6I4s8oR+E9YcUaUF08A6mAj+4xntQBwAFbreVA7CADZJ3xCEEDd3Ibr0FlNfq6UFSI8B2wNkKHr+rx54IeiOHN+F/ePLZCpuoMf238B3tR6sv9VZBAAAACKZVhJZk1NACoAAAAIAAQBGgAFAAAAAQAAAD4BGwAFAAAAAQAAAEYBKAADAAAAAQACAACHaQAEAAAAAQAAAE4AAAAAAAAAkAAAAAEAAACQAAAAAQADkoYABwAAABIAAAB4oAIABAAAAAEAAAEgoAMABAAAAAEAAAEiAAAAAEFTQ0lJAAAAU2NyZWVuc2hvdLm8PucAAAAJcEhZcwAAFiUAABYlAUlSJPAAAAHWaVRYdFhNTDpjb20uYWRvYmUueG1wAAAAAAA8eDp4bXBtZXRhIHhtbG5zOng9ImFkb2JlOm5zOm1ldGEvIiB4OnhtcHRrPSJYTVAgQ29yZSA2LjAuMCI+CiAgIDxyZGY6UkRGIHhtbG5zOnJkZj0iaHR0cDovL3d3dy53My5vcmcvMTk5OS8wMi8yMi1yZGYtc3ludGF4LW5zIyI+CiAgICAgIDxyZGY6RGVzY3JpcHRpb24gcmRmOmFib3V0PSIiCiAgICAgICAgICAgIHhtbG5zOmV4aWY9Imh0dHA6Ly9ucy5hZG9iZS5jb20vZXhpZi8xLjAvIj4KICAgICAgICAgPGV4aWY6UGl4ZWxZRGltZW5zaW9uPjI5MDwvZXhpZjpQaXhlbFlEaW1lbnNpb24+CiAgICAgICAgIDxleGlmOlBpeGVsWERpbWVuc2lvbj4yODg8L2V4aWY6UGl4ZWxYRGltZW5zaW9uPgogICAgICAgICA8ZXhpZjpVc2VyQ29tbWVudD5TY3JlZW5zaG90PC9leGlmOlVzZXJDb21tZW50PgogICAgICA8L3JkZjpEZXNjcmlwdGlvbj4KICAgPC9yZGY6UkRGPgo8L3g6eG1wbWV0YT4Kn3JsEgAAABxpRE9UAAAAAgAAAAAAAACRAAAAKAAAAJEAAACRAAAz7pMn3FEAADO6SURBVHgB7Jz5k13Hdd/PW2bBMgOCIDYuAEgRoLiA1ELtolmWHW2mQ6nKjpVFqspvsURKVCmuyp+QqlRkLk4qP0SSU/nBiWXTIhXFlmWRkhOtFKkFpEiCuwgQK0nsg5k37718P+d0vxmAdDKjl8Ijqk4D9917+3af7j59+nNP9713Gt3uv+1bhtRAaiA1MAINNBJAI9B6FpkaSA24BhJAaQipgdTAyDSQABqZ6rPg1EBqIAGUNpAaSA2MTAMJoJGpPgtODaQGEkBpA6mB1MDINJAAGpnqs+DUQGogAZQ2kBpIDYxMAwmgkak+C04NpAYSQGkDqYHUwMg0kAAameqz4NRAaiABlDaQGkgNjEwDCaCRqT4LTg2kBhJAaQOpgdTAyDSQABqZ6rPg1EBqIAGUNpAaSA2MTAMJoJGpPgtODaQGEkBpA6mB1MDINJAAGpnqs+DUQGogAZQ2kBpIDYxMAwmgkak+C04NpAYSQGkDqYHUwMg0kAAameqz4NRAaiABlDaQGkgNjEwDCaCRqT4LTg2kBhJAaQOpgdTAyDSQABqZ6rPg1EBqIAGUNpAaSA2MTAMJoJGpPgtODaQGEkBpA6mB1MDINJAAGpnqs+DUQGogAZQ2kBpIDYxMAwmgkak+C04NpAYSQGkDqYHUwMg0kAAameqz4NRAaiABlDaQGkgNjEwDCaCRqT4LTg2kBhJAaQOpgdTAyDSQABqZ6rPg1EBqIAGUNpAaSA2MTAMJoJGpPgtODaQGEkBpA6mB1MDINJAAGpnqs+DUQGrgDQ+gvjX8X5++6vPL+ZkhYktcg7O+/vU8eaOxKLULWSyBa0rreciv835Tm/aNnkXWHhcUSmY/LjJJtzgM5BC5OA3HbFEvrlqjGc1RvF/VT9SZFpNa5Ume7z0f9dJmbMiJ6xzHpl3JSf1DammLdIEsT7eojsQM8khOlFXivG3E1HIipWepP6TRZdKErnQu+XRTVTttColFlk4atR3sS728HE8YtdIFzxd74tQfFEb7S928cI+reXS5ZKvyOI18xJC3pU26r/rw/Eq0KAzqLrH12KX0aGfo1kvkp+qz7hfJycP/twbe8ADC4BraMONer2dNDdxmsQrOyyjWVaVqKq0MoW9d6/bnbL7btbH2mOdHFb1e19M1JCPMKAZMr88A5X/L+j0ZpzZrdK3dwnTnyUl2BVkc/5U/TsO8y4nL8AQewTUFGTv1N2RLTme+Y622Yhpjqh+QbFpLY6LdaKnWHevOz6kdqp2ye6tVDy+/31ba2ICjb5LX57jUv2VttZtRIR3pmM3bQxs8j2R5O5VEeX1I+2AOvdHawSBXburmUCSl9IpUtBstU0ovmpgYmNSbi71+1/sJHc+rHxi05KVEQqNPn7RVb22Ko7+8HTqqQKINURL6QweS6WlbShIbefoqq0HbPJA/jpBKQIrrj7JVbk+b9bQN9FHzenL90DdoQf8AjtpEDZDU6ajvWtJrs2092ZaDtlnqnACqClzW/g0PIL9rFTPCIAAQho1d9X2wcRBW52BpzcvUOrrccWNq+cCP6z2lJ2/IEBRkez2MW0bEP2FAstoxQJrzipGs/qzietZqihJuxIgFKNrIQl20eX4ZYYM0fl7iHWhCW1ODTlk6XQ1IiWrYmMmG1YaWDFrt8jqoTEGypWMkxsADgAzAcaUdVwZtglJfG9cZ1Axgr5vaCpNbzXEdTSitoDffdBg31J5Gi8GqpF5xcjI8oy1RHkii/uhB18gv2ZQVwHPNK42ESOdAxfXAqXQUOpRSXA9RTlc6pEhhVpKpp3KrDU1tfYHAAd9U3gpa5Q05IRsINryt85Ih/QDhrnq1qfYpX3f+tAOchoUevFO8nKobWhH6QSeTOpxUeUC5bF5DJRnsSR9tpV0RaCR1Efz0r9dV/2CL6itvl9e/JM3dkjVwHgAIw1Lf0+06cLNw8EQbMW5iB1EyhG6/Y/ACjyCGRRgTQyZSc04emWxfhq27HEbUV/qmwNDU4NW92+Z7MxrQcxLft3Hd+TA1INaUEfrAHUwFqAWVo6YEjJV6s5dkkaYtN4dyVDtdJ53qpgFuKo/B0e113Jhb7i2Qk420dSNdgZDaGIOtykJCDBQA1NYduknaHgMFyAjGGmxNDVju6DEYaU0Z5NpTVvEzdR1PS3XrCRoMLOXrSR8UgZdJ2xoASEp2T0a/put4mKQMfSoxg1ft4Sol1TqSBz33VTe8TwbxYEr0fwEQZQDVnqA61hJIJHR+fka6lfAGdabv6QeVoHNq0+3N2pjkhx4FIMAsAKEPh5DrV9FeS2qqy97H4e/1ZB899Q1tbrfJL53qRsg57SdbX2nCg/Ps+bMMDZwHAAqDkJW6EXvbZLTAA1fZzVtG4LOxuCjDxODYzGZmmdK0bHxsXGYPkDSU5jUYGei4JBi/x2pQl0HXbEwoj1IKPg0ZqmZiUY4GAEM+TNOt3g3RR0IpjzIdPG6Z3DHlATCIBcWOBijjN9alJjRYNIApS3nwFBhA+inlKVL55L/4VeDTw2NgCjGYPgCiACl3YzBC6cgAPl2N17GW5GvK54DQdKinyEaLSijKSwZ1ASBp0csDxD49EoDcM5GOADQBj5Lg+oYv5EWNApsDQBdIjXxg13bPhzjyh2bwhvpAjLzqBx/PCHWA0x/0HVrBCyMNefGk8PpUPnpj+iY9cOvw/lOW7jwwE9y4WbgIQd+9YXmx7hHLe+wtQBz9uhdEWaqPTnxzu9AR3plPHKW3rqbL3HiYgtEqAnytbV24+fil/FmiBs4TAMmwAIa6ng6vUy+8hRowaGzO7ciPuCannXUfjZCWjIchirn2NUhaGhykQB6DnyP3GhgwujNr7iJDxugYlEgmDfdUpOABBYAYIDFYtKvBKxHxzaYg5oNgRgDCC4mB17RJxaosDQjWVwg0h1zUhVA9IB8EeEqCz2IAMaipNdMB1iUAJXdjBiXaAkBNeQIaMwrhNfm6GQ0nQA6lBAu1LCDEAGOA+xRMg5S7O/9cY6pagIPeiLIBT7tNIdIlHg1Q0T/6ieMASk9SyROyWE8ZU55WQ0AgJzrzev3DAKINAIi1LWNq62XQv6XOWlejX7AF8UJBfdXCgwVA2rsOmcYCcfKFTkLr0oXy+T/qTKUEHgDVcvlMZZVHaQAU9aUu9Jn31sD7Vb4MS9bAeQCgapCYu5u4erzcSX0AyQwxBgEGQ2JAdrsyc8UxZ5/HE5DdMPB8UVF5GAYACDlMwTpysTV+NXWZ1JW2dWYVL9d95aoxeU6S2hR4eqc1XhncAR5qg6HLQsumXZhinDuYVC/lASB9m3V8kZ68DVthHQ2E2dMteWSaflEvWbMPWHcJaCOehCrPHvgUCMXAqdei3HFVdJyx1T2tQYfnxEDkHP0Jm6o2TSYwxYhBExEce1kOWQZzWSTuMY2R/tROaoMe52Y1HZF+m5pStltax5rXtEce5di4gEU7JbulY+I7ImAPr0TtassLm5wc8/WavvTd6Zy2iXGhRDIin+paBnHUjt6mDdKVIAB8wgti2qc4eUGkQ3d4la3WCsWvUNtaNjvX1SZvVfVsNLnO2pdkAB48J7XP154KhICKQ4iydARUxscAt2T0TtrEGK0njzwhbmgVblrXY0pK70qwtgzL1cB5AyA3DLWOOTkGAkYiyHx1N2zIGHztAkORob388gk7fPiozc52ba4jc+tooOi22JY7wHoMXlCsWcg4NTg73Y48CZnw5Gpd04Bp9e3ii9fZ6qkJm5zQ0B+jXO6kxdTcaDmrNatGGMPZ433gCl7zsxqUIKGtp0J4UeRZJSBM2dFjXXv1lSN2/PhJm5mZVT11x2VEKU1AgQHMwNbAAUIMIh84mL2e8o017MILp23tBVM2vUYDvKk6Nk47bH0qAWzklbRos/bABwUCBYLX2uMY4FoA99EVujQApPLmtWB8aqZvJ47P2NEjJ+zEsZN2WnVlWusgpkWapiGyymNP8KmWT4FNQJ+wdarrhWtXCj6kPa0+YYrsuVSvQE/kXQyggE8ASOBX/+DZAWy8ElrS708IagL6XNNOnpy1g4eO2NwceqPf51xX8QgeParDAVIFEBK4YWhD9ROq3KaN623DxpUC3BHdnLTQLXoHnqAPfQMA1UO6WbguQ500OcMyNHCeACiGrCxExicQuDHEICWup7WKpp6KdGVAx493bfcTe+zRx563p5960U6e6siIMC7BS7bD0yyMiXUg7us+b5Hh+5RBhg3aeE8Fb2Lduim77ror7fobLrdLL1lj7XEZsoRg+Mp8VmDYAAsGPBfrRv0AAMiUd6U7KIY7MzNmv/rVEdv1ixfs8cefFoSOaaDgpURd/a4s8LhM5fD1KaZFTD+ABNe0tcd6dsGaFbZjxxa7bucW2759s61YEfn8yRR3bFWtrdcRqEeX+ksHddAw5GNKy4BUPZEtiDvM9bRp5vSYHTh82h555Bn7xc8ft5MnZq0jDwPPJjxKYKasqnZXfeMLtIrwxWoi1Wr00ZJXNjnZtu1XbpE+r7Ab3vImgV0L/XqKhYfSFAxQG1pkw/uJvNQVDyi2wABy0S8h9p3OuB0+NGsPP7LbfvqzJ1TPOdVd8gX0gC3pKCDqtAAgtVcFs6jufa/+a2kuu2P75XbD27baNddcbKunAaB0oyT4O+EFR7sAOt7roDpKmWHpGjgPACT78Ds0jQqvBYCwGMrg4X9PAxMAzc717cUXj9i99z5o//vvf2mPPX7ETp1kQOGiCzc6rOzoyCtiWsD6iGYp5dF4Q1OigB2excRE0z7wm1farbfeZO9695vlYVAiXpQgJUP1wl06SEEIZRFPKAavfawZxTSG2ZXGrh06MGff/NuH7FvffNh+/NAeO35MBq66MC3pzitREUN9PdQo9jVOe9aTqefb3rrBfvuDN9gtt7zXNm5a4cOXd6EANoPOAaSGOoDkDdVBQ3teD0AAj6dNr7zat4cefs7+8t7v2t/93W7rojexgT6Y01SVqjC9YwxqrAuiMYCdPbXqpS0q1q679kL7wG9db3/wiQ+qnpMOHgDjj9glrGhSOZXYYYHwCiC8HfSpwa8U6LIuGB8/0bLHHt1j/+3PvmVf/8aTal/DTqsvsYlx9fNAj9SJzFS8bjrnsOocO9mxfZXd/Jtvtk/9yw/bJZeuUDlkksfprNE7W97VsgOde3AB5Th3S9bAGx9A6ne6HgtiCFcPCAD5dMKbyrRkwo4dP22/fHSf/Yc/+Qv72c/2awrGom/k1SjT3VAGq3MGbRivsgEmFdDRwMFZmBgPS+KXddU3XX6Bvef9O+xffOrDtnXbal1XJIuRA9gswKdOmXTRa8W+p0Hk0xAGlKYNkO74iRnbvfuwfeVL37CHfvy8vbQvpnY0dMDagYRyoJ3rwROozqUIBhaHWy6btHe8c4t98lMftCt3XGhTqyd1x6Zu3L2jDrFwq1O/Y5MRoOofI07peNrEHR4PiPWTbqdhL7w4Y1/507+2v/9fu+3ZZ49rnUwpmdKKCWKQwI5OaafEIRJ9K8xLnwtp8IBYP+rbRRe17S1v22R/+OmP2Zuv2WhrpoGQ+klbhQ/71wKIdrAhVyAQrVtadPaaq/4v7T1tX/3zB+2Bbz9mux47ojapP9Gng8Kz6WdRoAgCdWaPcmkDxwoTEw3bftWU/dG/+X3becMmeZkrVUfdfDx9S9N66sw6EbpVIQ6oyJu/S9fAeQCg8BziBTCMio5nSMlTEDG4H5o/SRm3gweP2c9++qLddedX7cknXrVTp8p0SU+cgMC8XA+mHwDIH3k7RGLwYPQYH1MlXdT/GR80mzZO2dtuvMw+c/vv2ZXb1/g0gneE6uIwtQNGC/DB4msgVtDRFJHFz77gw1Oao1rv+eWjB+3uu75qu3Yd0LpKTBPcE2EgeNDd1YdXPWdPaYzwMHggRCpi1l7Qsuuu32C3ffZjdvW1F9m0D+y6psObu+R2WtA8BeUqryAAIW+T5Eqruqa1KsFnXt7DU8+dtLvu/it76Ccv2sH9MxpnSk0SUgneTLnwBvAmJUT9g+58LPuPr9fwYmRLb3kr4YoVTdtx1bTd8YXfE4gusfWa5jYaWij2x+S0OPr7DABRJ9ZrgCT69o1fWi9vRFG/euGk/af/eJ/94HvPODTFKA/0aa/LTUNzas9XYYFM+lH/XSQpkUcZEbZcvsK+8Ecft3e+e4tt3rxO8dge13XzU3Z/GufrV8jUlmHZGjgPAMTwkmFo8GKegIPpD7jgUwt3wQUg1oFe2vey/eShF+xP7vmaPfvMibIIicny7kcMFtL7W8eS4y+Qyfh8Vi93h8VpXhrkbWRGGd7S+nWTPlDu+MLv2/YdAEhPPtzYYqgU6/W6ORgkza1aMewDGCwAy7dQHZjaHD1+StOFg/bv/91/t8d/+bKd0DTR105KTu0UGAxnGjXjJGRrkId4TwUzV0027aqr1+qO/U/s2p3rbXpKT/T0HlNLrxI0eIdIo9SfbqlRdZ1GET5wmIZF3asH1NKCrvl09Cnp8Y/v/Et75Gf77OVDWjSW98PrD0xDgfXcXEfegNnkCtrGNCwAxHSSt7+ZTvZ9jW7OPUq8ym1XrLLP/+uP243vvNQ2rl+ramhga+BTw4U24lkImLrino/rnPoRQ2o9vdSDhbYWwtHx88/N2J1f/HP78Q9fsH37T0c9lJYmxgK+Cqadpe8qMLjuAYWqjwYI1OllW1fYpz/7EXvfTVfYti2bVY4aykMQpeNtc72lqT6VPeqdsSqvisv90jRw3gDIXz6T8QwApEGAx4DRc8fuyx3ev+8Ve0gAuufu++zZp49r/s9TH9kMi6rstbE2EN8Osa7g0b5XJP8jEel0yLb+okl769svsdvv+Lju3Gts5Yp4byfgoIQe6tDhnMFcczOg4tgB6MOnba8ePWGP/kIe0J332mOPHbJjehLmyQbian4iaqQXNJh6efpSEjfh6akx93w+e8fHNGVYL49opbIKQH7Hln7cC4snNy6JxvoUjMFDGdKt3/0BltJrkM2c7NgTu4+5B/TwTwNAoVDWkNQy8kvB6Jh1IIL3B9X3oMhSbqOh96G02DyuNa43XbnKbv/8LQLQxbZ5w0UqD8+L8iNj7IUa1WHB40OvAf3QDu9vccRUXFPF52btzj/+C/vRD35le186rjjVjeuV1K579IycEqI4pdG5p+Mmp1zKy/7SrRP26ds/au+/+XIB6GIlApTUgXYhW3s8M2S6h1YF536pGjgPAKROliG6S67OxzPhjgNIMHbMzO+UAGj/y1pTedEB9MzTx3wBMtIw8AgYVgCIfB6KEXJW7ZHxWI83OIAutts/d6vtePO0AMRnGmGgIaCKQULdSEGdqxSvpdcTUL6qR9m7BKB77rrPPSEexXt7yO8iqCX5qzzlr6KIrcfSAYPFAbR6lV173Vr7zOf+sV3/lovsQgGIFyBZ3A2gBAyoudfLZSCXwUM5ASDKZGrB78zJOXv8SQD0NXtEADp8aEaXJcE/5tTAoz8IZC9i/VzHRPEYvz76dgBpqsXaypu2rxbQPyIAbRaA1nvW2tqqM9efGup7r1/UsYIfEPDMjutdweCF5zt21xfvtR/+AAC9omqSkveZIl+AR8febv/xqsaP4lGqpsmE2v+XbmnJA/ode/9N22zbtkuUFQ8M7Klc3jECQIJqQAh9ZFiuBs4DAGGa2mQgmBTTBX8iAYD4h+3oekMDe9/+wwLQHg3s++0Z94BIwXWl5UChekD1XJckuhik0iCVs2rzGy5aaW+9cbMA9LsC0JQAxAtvkcYF8oPxegY/iasOTSQpra75I3EMV1PJANChANCug3oXSJCgiVUW8mizS4oWIL80gUp64Jxi2dZMTdk1111gtzmA1glAq3RVHtAAQBpc8kaQgia9CJcJgBAXuqXMBQDNLgKQFvUPnfRKNvT2dtzxARBt06nL0M+iugV8uIHgMellSwFxAUAftRvftQhAEuJ1KgJCw3hAXlsvh1oG9PCY3BKwBk0pK4D+SgB60fbuPez5AkC0j3qyKdR6xpl+0WLZ+ZRPSVQRkl26ta21v4/a+27e5h5QAAgPSKWrTP+zIg7wWoZLyp9laOA8ABCmEJsDSE8cFgAk88FwZRALANqrgf31swAUGomBIsPRwGPa4IPGQRZm6KUQj/lil9o2XLRaU7CNumMLQFevtpWTAChqVEZxPfMMZAt4kAqIYLDhLcSwYQp23Hb9/LB7ao/tOiQAMT2hLUVy3ZfBQX18AHFZIcrQXufUk23N1HQB0O/KA6oA4mMPrVv4FLR6QGqb8rkMZaxvHxPDkCb4Y26mYKcA0HG76y48oAN6qnhc1aCieBblzk8+6uCPv8BClS9ZDOiyxaN2AWi8ZVfs0BTsDgC0qXhA6kEHUGmg6gB40DL7aD81I1BHejw8ILQbAJqXByQAfX+PPKCDnoIF/9Bb5FHSCEFLrzeyCN7fJHD4ABcANGafYQ3oN7b+AwBSeq+m5IeAkJ+/S9bAGx5AZ7RERgqEorPDmqo54hbvO3DIHvrRSwLQ/7Bnnjphs1owxbzCxLTXQUAnjsN4Qs5gMCu9rwGUjBvWTcsD2qABc4sAtKoAiEGhfGQaeDpRU6IW1i5IxfRKg1VTRwfQwAMSgDQFe3TXy1oD0tMlxjXA8spq75WLmi8AKM7jN8ojPaVMC0DXugckAN0gAK1d8IBYI/PpEB6Q7tjukZUB4/V1UegqJC8A6HQB0H328E8PahH6qOoHVCqAeHSuPJ6N9RPkAyBi1TPoxtPHsjG6AEBv2rHSbgNA7z4LQNQjuiNE6gTRrmuu6QTZQIUr7v3oyAH0XFcA+poAtNf27tunq8CwAqhMj4psCUGa7MEr7scu2yMpTf+kmADQh+39v7HFtmoNiPrHGpBkUxfaN5C5SFZIzN8laOA8ARCdC3y0956nZRhYnGJs3IH3HdAUzAH0jQCQ3th1RpCc3MoQj+01QORJuSdQDV4nsfiIYcVGAevXrdNj+IsKgFZoCsbaCtf9VxUoey+jnHoc9cOUC4C0Dw9IUzD3gF5eAJDeXwoASQiNogTf+1GVvPikXva6kmBaU7Brd67VY/jqAa1WLB4Qg08DkcXgAYAC4hThVfUW6bjoNgCkt7VPLQDIPaBDxzxDfImOXOSQj13AZgFwAIiL6hs2h0ZPABrTGlABEB7Qxg26Jk0hhOCAUbY4K7/IcSzonMIk21MIBzqNReiunoItBpBnUbqqS+09X0SRPcpQfAlhX1HO6wEI+ASAsCUEILPkXxBTxeV+CRo4DwDEMK4Gpxa5tdPbMcCZtvhAdwDhAe2ze+4EQKfkAfENkK4ruX+17gbDYOCcu6gCd2vfdC6bIs73nqkhAG0UgC7UU5uP6jH3pAMIy8VMXXDkQCLSXJZPvbxegJFFYAZrAAjSvOKL0HhAX7fHdh3WFGxW0W7+SKiiXHIRG8deOV2OovwSdSVMT6/2RWgAtNMXoVcrj74r87LxgAQIviDnqVhZtxisfQEPBX+xU/VDQ5SxAKBFUzDF+52/wId83iV+oHKQrYcE6L1WdLFeA0Cr5AH9jr1DANoEgCSgtt6Vr9ylWUjVNWQBOO0LfMLLkmUoDgi9sMgD2oMHRBZtCPL6+gKz6qb8MdWkzWFDJIono0qsTLEGhAekNaDPVg/oEqWuHhByaw2pOfWisAzL1cB5ACBAAYDYaqCzWVCVAclgMIDwgA7aQz/cr4H9P+2Z3TMBICXFVGJ6E/kwaO5gbjIaHYMnQSXOBwMfuMroA0AXFABNlEVoBJLbJZR9GGSsqcQ198xktO4FCQb+FgsAGnhAFUBaA+KNbEnCsF1qse/B8VlFRVoyhO1PTa0UgC6Mp2A38BRsSrLqn5LA+5EABxAL3gxE3rthECI49q8F0ExZhL5Pa0AsQp+ofPBstUqDsYinxXRTgzEG/0JbSAuIJsbwgAqA9BRs06YAkC4r4JXSstL4ugc+1NH3JY2DSEhQ0rMBxBSM5vZ5Y1UXG/40ju/blLgALGpWAKQ4v0n4VLkCqCkAtQYA2ralPgXDC5Ik3cBCHjJCf4rIsEwNnAcAwlRKZ9M4bFOD2O9eMsgAEFFMwQ7IAxKA3AMCQLNKDmDICHRAD2sVGJALUjTXOY4NDHDqj1g1ZVkA0EfsqmvGYwrGdeQhtoJoIANJlOCS9Itxk5JFU8Wr7q8eOW6/+AVTsK/rfSCtAfkUTKmiYl4+oj14WeWY6wTFRdl1wOMBTQpA6zRg9Bhe7wEtAIjaSF/uAVEGAAISeGV18MQAYiATx8e26GfmFABiERoAHbCXDzMFo3yv6OCmHwBSnNaGQr68DDwCXfAqK0/oFABNaA1IAPrcLfp05GIBiPeAEBp97H29SJdci5uH2qr+PuO6ytC3tQGg5+cXTcH2F4cp6oBonzYiayAb2wk7Cmiij+h7dMDNJzygWIS+fAAgaiM5WtMjfehQ5dDeDMvWwHkBIDcMOh1TVZ8zSQgPiPMwX5h0JoBOLnhA2IbykRc7qR6Qa0vnmJEi+R8DhXOMVnfO9es22dvescZu+/yHBSB5QP4UjLskiTyH76ldifR6co361nUlLg8AdPSYvix/RQC6X4vQr2gR+hSfiJV8dRBIbCnD15v8zh0lerQWd/0NX/29G+7q02vG7Rp9gnGbA2hDARCfYlALKQdoyC0IQNRPSSqAVLhSBYB4ZE7ZFUAn9MmIFqEfAUAsQuua5AUIOPak+qEkvskLwHkyLzvSUH10NtleaVdoDeh2vS5w47sAEJ84AEQlcA2VhJ4XKWg24EMZ0dvSpITRMurM9sIAQHoKtv+AA9D54uJCp0jzoPZhCw4PyQwAIVNRxEtXASA9BbtdALp5mzmAlIknsGitx19lILEyUQ/+Z1i+Bs4DANGoYjrABuNgAIg4Dh/iZBQBoP2L1oAEIH19qstujFgcRvd6APISdKHCgoES44Ep2GYH0O2f/5DtwAOa1EeJA2tz4cpe6uD1ZIUBawzDpLYOEOrp6cID2iXP524H0KsCkKY2DqCFpro902y/6wMI7rghOTwC/jaQ1lyap7V1BaC2HsOvF4Butev1TdiFF0wrb6xZOLBRhANI7+O4B8Sb4AwlZLNpeRUGSJG8K4WyZk6dssefAED3l6dgr5LAB2d4UH6qd2K0F3z8j+bzvg9/0N8VSOoInDblhU2MrYxFaNVzACD/Jov60L6qfLSF4AogFLQYQMgVulTPBQCVx/D79Rie6ReFIw49kohmka0E7CHaDgB1WNJHnlY8BavvAV12qWvLkS2BCwAqMsmbYdkaOE8AVNolgwmIMKzxAGSubAMAMQWri9B4QBVAkd/z6tDHlw8aTmLDFv1QB25Luo7hrl+3QQC60B8bX3WNnoJN6uttpcXsAIHDRTk4C0v3izqrFlkBxPBSTg3whSkYHhCP4asH5GJDgH6r7IWpR6m0wwxosOjLnw2VBzQ9rilY8YC0CL12zbTyx3M3f0cnxnKAQenj7yxTb+pJi+KJUsBdcVLWKU3BnhCAmIL5Y/jDR3y0oX0/qL8or4DMF7l9EVqRqIRLCuiS9ky2V7gHxAuT71jkAcXf/CGlC/M2cQyEArh4caA/rp/pAfWLB8SLiPKA9h3ym46KizrQ8WQrlSklUJjbT6w7+an/UFcJEIAm4kVEvQl9+dZLlV1Ax9a47B9CK6GMKfp+IX8eLV0Db3wADayldLTahgGc4QFxrjteTMEqgMpTMCUeiOBA525ANdKFKZ6gOE4xPn8srPMNF6098z2g8ikGj2NjYDAcuS8isAh1IXHmg9UvMZR0Qa5OLELzFKwASH9pEA/OcxcRVMPrQR5GknsUMn5OPU14LzzpQjPT0yvkAQmUWlvxTzEEIFyTGDAhPPIps2Toou+j3hxWAJ01BXMA4QHFFMwHJ9k9qORaX5epSCeNSy8/UZxHK+3CGpCmYHyK4WtAsVA/kIkYr1+hJhWmT9iHlkpSpmDFA3quozWg8ia0PkqmWixED+pLRK3jmVJcll8qbanHl22djG/Bbrrctm3lPSC+hqcXVTs8KkKVOSgoovN3aRo4DwDkplhaQ6fHIPS7toySAcCCJ9OGfQf0FGywCF3WgBbpgbQ+vZDRxCK0Lg4MyEXrAl4Nrj5vEAtA66f0JvQmDexb7So+xVjJt2BMbcpTJF9oiKHhGVQ/N83FBglAFOn+CB6QPkZdeBO6Pob3JOUnJHnlBgOvuGS65PI9icpVo2jC9JS+Bdt5gZ6CASC9iAiAokRdR09RB/I6MCGZrte1F/Tp+pEnE35GWQN6QovQdwtAj+hFRK0BkWtQAemJ7/D0F3oEUGRxUUGyXQulog4fonXOY/gr/Fuw8jEqa0BlquhAp66qAXXjKOqnUw61GwQ/YQqmlNoG34J9X59i6KPkii5P7zpExFlCqkBF136PP/nhtwp5QJPFA7pcANqsZvExKsBXmymAGrkM5CIkw3I1kACqRsh+kSEmgBJACaDl4mT56RNACSBZDbfz9ID81Qt5tmWynB7Q8nmy7BwJoARQAmiR55tTsGUzZKgMCaAEUAIoATQURIbJnABKACWAEkDDMGSovAmgBFACKAE0FESGyZwASgAlgBJAwzBkqLwJoARQAigBNBREhsmcAEoAJYASQMMwZKi8CaAEUAIoATQURIbJnABKACWAEkDDMGSovAmgBFACKAE0FESGyZwASgAlgBJAwzBkqLwJoARQAigBNBREhsmcAEoAJYASQMMwZKi8CaAEUAIoATQURIbJnABKACWAEkDDMGSovAmgBFACKAE0FESGyZwASgAlgBJAwzBkqLwJoARQAigBNBREhsmcAEoAJYASQMMwZKi8CaAEUAIoATQURIbJnABKACWAEkDDMGSovAmgBFACKAE0FESGyZwASgAlgBJAwzBkqLwJoARQAigBNBREhsmcAEoAJYASQMMwZKi8CaAEUAIoATQURIbJnABKACWAEkDDMGSovAmgBFACKAE0FESGyZwASgAlgBJAwzBkqLwJoARQAigBNBREhsmcAEoAJYASQMMwZKi8CaAEUAIoATQURIbJnABKACWAEkDDMGSovAmgBFACKAE0FESGyZwASgAlgBJAwzBkqLwJoARQAigBNBREhsmcAEoAJYASQMMwZKi8CaAEUAIoATQURIbJnABKACWAEkDDMGSovAmgBFACKAE0FESGyZwASgAlgBJAwzBkqLwJoARQAigBNBREhsmcAEoAJYASQMMwZKi8CaAEUAJoSAD1TQIaCIngJrVwqsizjMzTRoI+u0ZDKRYyRP5eERZ5SedplNZT+o/yDc49QZTVJw8bccghcYnj2qCuNV6XRxQSQPQLofSX9Zvqn5ZOOx69Yf2UvfXtm+y2z91qV715ylaunNC1rjW19fVLejJXMXQ23brQyTqm0xXZU/p+o2mvHj1hu35+2O65+z57bNdhO3ps1hQd+TwzAgjkQzbSZUjFcBaS6Iosk6vTU6vs2p0X2Gc+d4td/5Z1duGaac+jEj1/v9SBvA2vR5WJgbIppS42rKUjjLxvM6dm7PEnjttdd99vDz9y0F4+fFRXFGoFpKc+m82r/tSPiwo+KJSopKPaXGI/MT5mV2xfbbffcYvd+M6LbfOmdYpHnz0lD13Gvue1iAGkzEUG4j14WeoJxfe0vfB8x+764r32w++/aHv3veItUnQE1yEizhJS60vC0u+mfm0oN5cu3Tppn7n9o/a+my63bVs3q1nzqqHaKh31URmp9L+vhvGvivP9oPCSzhOqfQDBoYAAleT9p35ElIQCFOK7vTlr6riBYei8r2u9Xs9arbZK6llXDW+1sNMWBSi96ubp25IpGdill0V7iq26HPWu29HiCnqNXc65/kkAVd2zX2SICaAE0FIA5GN9EYAwIzepMr7drPwmFSABcP1GV4m0AQTRs9kEJECkYy0dwKBud95aTU4EGO4MyCORAykA1NS1hvJyod9DJodtEZkbg/ZN3UQFzYag6TcYwAloBwCqQnXZM7M/tyEBRKcR2NMf5U6YAEoA/X8DEJ4dpHIPT56MIBReEJ6N/NECoPkOXo8u8SOPJwAkz3RenhGgId6NFG+IQ3lI5FV0Tx4QYOmbwCOv1LemwOMAwpvHU8XLBXYy9LOnZkoxipAAok8JtW8TQDJTTDQBtDwAxbQNM3KTcuBUs6oA0pWSgB1A6DF/JFL/e92etdtMgfGWFN+ft67gw7TLKSModeXpNAWiRlNxpJN3NC/Pqa+0TZ028IDwuNgGADrTA9JFhxX7CNRmNCEBVHXPnv5IAMmsE0CYw9IAJFS/3hSM8YyHws5/YzUO0tR1HgDUFXSARhN6CDC+Dse6kGeUbNkkUy0nVFnZ6mvNDJmtttZ7BDCmbk2twTXcq8HLkSzghPfT6CjlvNIjIzwgoU7xbuyKI1DYaEICqOo+LCUBJENNAIU3sxQAMXZxdvAY+cWMfIrDeFZUoDxiPa2nWIDRvACEh9NyQJi8mXnrdQQNEci9IU2xBl6SBDItAzgdeUbt9lgUzuJ4k7IBDSBDPhDSArTWmmIROqZlgCjqtxhAVJrzcx8SQNgGgb33iYafz5PzKVg+BVvKU7AynGU/dWDXPQYVx25hbmDgYF5PsJqCTlMwwJcJLyeeP5KHf5gjNwJ/YqlfVo568nzaWoSWz+NP/lg/IiXgaTS7Lq2u9bgHhKejDY+HtSHWf1gbqibvtXLw8GQuAeT6eM2PK7nGBrXdPXXSqwMU1VcEd4x9Bw7aQz/ab/fc+Q175qmTNqtFvcVqJa27v+qBPieE2hvsicopmBs+gyABtAQASVvhAQECDKhOhUBDDP5iWLrmPoliw0NxC5Qddua7vrbTZhrmQVcUj60yNQNCna6gw5OxtjwjFqM1LZvvyAtqjckTQhLrPLHYHChjykXgGr1ZAdSWvGL0VNyfyAEg6nruQ3pApS+8T7yv0gPC5BNAS1sDEiVcVz6WdcRgDxBxzP2t+jMFBf0xeS9j9uqR03bk6DE7PTtvs7OaUmnv60DkgAXKDoB4D4h9V2s9PU29WOcZazcFHdZ/zKampmzt2klbs2ZMXpVuuPWxvvIAQwQN3rGS98NZODvV8ClI6dIDkq5eL6QHJJMsxlSMJEwbZekKd0od5YuIo3wRkSlO9EMAqBiybJe+YdDHVXkynXE7drxn3/vez+273/2xPfvsATt+vKOnXbxYCHwEGk3R2JrARx4QLysCJ9Z5uvKE6H/STq2esKuu2mZvv3G73XzzW2z9xhXyjkiPJwR84nE/a0DYChvTNo5eExJAr1FJRCSAZDCYzMJdKgEkdfgo0tCSMjRmR/gmtNAjD4J1mTqwmUgBHX8UTqx7HuF9HD/Wsl27XrRv/s2P7MEHf2L7D562uVnJUPf6YrPa4nJ4ktUDXKWt8miaWmzGU/F3gBS9cmVTb5KvtetvuMz++Sc/bFddvdEuuGCVyhOA/P0f0rMQzfSM4NIGh5QTMTryQuPSufzNKVhVfO2NXAPCSZdh5hrQ0p6CVQDVqVcs/waAMCp0WR+BN+3QoXm7/77vCUCP2E8e3qP1nxjupOzMhZ/Ucm9HUzU5Lj1/70dPwnxe1rH2GF5MQIhZ1pg8oS3bVti/+sNb7Z3vudIuu2yj1oVYh+IRfHhBPAmLsAhARAxOJYgKjCAkgKri2dMhCaAEkLxNzGHpAALXZ0/BJEHeewAoFp1B0759c/Zf/8s37cFvP2q/fPJl92bEE6WVhGp/eE9AS7YIbAAN8k3v9DR9vUaXCYpiPXrzxRP2zz55k33gt3baNVdfqWlbff8HANVF8ZKBTB6oWw2Lj2vcudkngKru2VcD8EeV+Rg+n4It4SmY7Gbxi4gYUZiUXyjDPdaAuPLS3o796Zf/2r7zncftyd0CkGwOyAAfn2rzDRfTr7oN1v0AUUyt5CBRjG+UtUkA+oNPvNt++0M32M7rd2iWxmI1LyCSCACVxDqLjOyjlhydeRwx5+o3AVT7gb33E08JeFciAZQAWiKAMBy3IwyIQ/aKGKxfKkZujANoz7x95ct/Y9994Al78qlDASBdYYblr4g4gMgLZdgQE3LxgOKdH6UlShvFOoD+qQD0wZ12/c4diqwAIk0BomfAs8OXIhcboe7j7Fz/JoCq/tl7pyaAcg1oOVOwGLIBiQDFawDk8MG85AHt6QpA37TvPLjbdu/e7wDiKRe25396Qzc/wOXwYQpW4OPYcLCwqCxfCa9J0AJRmy6RB+QAus4BFJ4SsCrBZVO3swE0SFFTnvN9Aqj2AXv6SJ2eHlDcJ9MDWpoHxKitfsXANWH4Vw9oAKC+ANS3r3zpWw6gJ3e/5PmYhp0NoMEiNmL4p31MqwJATOr0YvQiAL1LHpAAdP12T8dLifH01AUorgKIJ3ZgS/ELiNLxaEICiH4gsE8ASQ35LRhvMGMOS1uExngCEu75uD1hSDrQzqc7fghGTACyAqCntQa0R3F6ouV2pxwCVfwpDSQiCMwoKkQVAKluStc8wwMaLx7QtQKQ1oAac8rNEkLIQEA8EaNdLExT0wohnY4wJIDoIwJ77+30gHIKtlwAYTgKZboUhlQMCy9I8fGvAujb9p0HntEa0K88fgFACBEYKnUAxcB7AiJ6uuWLyosApLSbLhWAtAj9jz50rRahwwNq2FyRFaBJAKHbXyfQgYN83jPqCCLoKF1TVH4Llm9Cj/JPsjoxzoBPNdiAUMUP1vvSnoY8oAcEoGcFoOf9CRg+CaEgy8VxhsgAEGtBXAVA8qkWe0AaA5suGXMPCABdv1MAauoPmwlA/v4R60g6i3eBACvvBEXcohIpfiQhPaDa6+ydb+kBpQe0fA/odRehfUiDjOr/9G3vnmYB0HMC0HNnAIh3erihuh1qFyZJ/gBQwGMRgHwNqCUAtQSg98gDuiYApClYUxsAir8NxFNdJS5/miMB5B2zxJ/0gGQ8mCLPabHOgX3qiLukrzLkt2DPj/ZbsIVecVxo8NNnbFzhXxwFgB7Ui4jP2e6nnvH46gENABRJPXfwqHox8dr0wAMCQHpsv+nSpgD0XgHo6tcBULzQGJ9k8LlIekDeFUv+SQDJaBJAjNQYzsVy/ETDSfGsoYxuCia4lDUefBVwAy6obYVQACiu7d3Tsq/8ZwHogecFoKc95RkAonlK6s3TPnJxpiUH92AQXdaAuuzHBCArAMID0pvQZ3hAAEibfxMGgIBYTsGkhCWGBJCMBgNMD8gHZTUbP3njAMj7J7BRfmtFgUh4QMAk1oAWLULLg3UAAR3Wi0lUgq8B6biCjD+bUZodzrCbRMs2+xTsvXoTOtaAmH4BIUlUZtZKgReJyc+fNkNK3aIwlxuH5/Q314Cq5tn77SbXgHINaDlrQJADwICRMqh103Sz8inzAnwwL38P6Mt6D+iBp/QYfl+sARXoxMOVYofaLYTqTalepQiHE0xRos2X8BTsff4UzBehiwck18xFNLiJe1106nWN+AX5IWfx+bk6TgDVvmCfAJJB53tAy3sPCAABH4xHUxu8DaZL7mfENTcraZb9S3v1JvSX/lbfgj1pTz55KP7+D6AgKYtAhMUr0R5RjRQJCjolhmTsN/Mm9Ce0BsSnGDyGt1lfhHaZ+vG0+uXIJRChABrL4WAfV87dbwJocQ/QOzKgfBMaQ80/x7G0FxGhQALo10VWAigBJNthAHH35o6aHlB6QL8uTpaf7/8AAAD//6v9SDkAAC1kSURBVO2d+ZNkx3Hfq4+ZPbC7OBc3uCSIgyQIkCApGZCCtBwKyiGBFuUjbEqW7d9sKwgERCv8P/gH28ThcPgXmz/4CNpBSqIl0RJl2qRs8RB4CARAaAUChHBocRLYe+fobn8/mZXvvZmdhWeajcH2RNbue/VeVVZWVlbm92XV6+nujUb/YlLO5zTplVZArial10Pgvi5Vp6KJCno6jrz4Unnomy+UB+/7vfLkEyfL0spyp63oRAtd0f8JNyTjVXNj3y+9yUDFK1Z9+cH95fYPXlnuvvfj5eZ37S979+5S3Ui9j8QbGXSoJNiowPvsVf5wkZwUjkU/6fXLa0dPlEcefqU8+MAXymOPvFKOHlsqKvZ2nWYuKLzhPtatV7YkqtE4qD2w/4Jyy60XlU/e+7Fy2/svLZdceMDaqEdrP6ky0LZncgRP8YU3ZarslYGu0PmknD51ujz+Z8fL/Q/89/Lt77xUXn3lqGqUQgDpacJRViU/8lGpJB2bFiodYlNFvmtxoVx/475yz69/rHzoJ68uV115qcrR51htXJeej02K0kM2pcrDb3S2vjQTKh/r+IunV8r9//o3yze+9mx5/siPbEQq9qSxQ24yhYzUxDWEmkfmvWhee2pN1bWHdpdP3vML5ac//I7y9kNXaVirklBjlY4mJpaobHDcwAQdMgaOVn5jr1bkf/n8qHzm33+pfOUrh8vhwy+Lz0Tyi48qe/0qkNkm1JFquXFQGd0q8/kq5aprdpW/94mfKh/9uVvLbbfdqLql0u8tO0+1MVqduTKulR36qJdNHj1uV95LAKqq9lnSpCUAJQAlACUAhQb0dGifBVwJtQ22CRlUp6KMgDICyggoI6CAjNnmCUAKj0FcljgOxS0g5xIsl2C5BJst4KznlgCUAIRNCHVjv8JMxG5yDwg15B6QWcSbdEoASgDCtBKAXAnoQqgD8OQmNMp4s1MCUAIQNpYA5EpAFwlAaGGbUgJQAhCmlgDkSkAXCUBoYZtSAlACEKaWAORKQBcJQGhhm1ICUAIQppYA5EpAFwlAaGGbUgJQAhCmlgDkSkAXCUBoYZtSAlACEKaWAORKQBcJQGhhm1ICUAIQppYA5EpAFwlAaGGbUgJQAhCmlgDkSkAXCUBoYZtSAlACEKaWAORKQBcJQGhhm1ICUAIQppYA5EpAFwlAaGGbUgJQAhCmlgDkSkAXCUBoYZtSAlACEKaWAORKQBcJQGhhm1ICUAIQppYA5EpAFwlAaGGbUgJQAhCmdj4DkAnH17IKGcxeQQgJbImcL8b148jzy+U//ccvlf/95cfK9x9/tYz1laz+9a4ig1Tftse/+EpbvjSVr9A13nxdLF9RK/Yk/hq+r69xvfrqxfIrv/rh8td+9rZyy7uvV9my6HQYw/gi1vhiP29s0lU+dNxcOuttO+dXsobmyZmV/EpWmbs7QH4n9Ca/ExrDie+urq5rDl7delKGsiu+P3tYXnl5ufzu7/5x+f0vPlQeeuhIWVlx5+e7ypfOTMqCSBf0vdmrqyMHJ9ljvzdUWwx0tQyHfIc0depSuDRc6JVDb9tT/vE/vav8lTvfVQ5dd7AMhvr28T7fac5XywKMLo2LFgbPXRg9l10ap9yOcwJQzEfMRQJQApA57ua/lD4ijYmcOBzev1WaqEeGNVkQgCwoXywnTo7LY48+Xb70P/64fPnL3ytHjpwpK0vu/KsCo4FAZTAYlhUBkIPOUNigH0kQCPX6q8KEJQGQR0F7LuiXq67arS+iv678yt+/Sz+acF256KI9Fv0UAZDLUqOmii9u7pLYAE13BjyqTAA6B97mEkyGhNlgdG5F1ZZUphrF4dTmr2K8Rb+Kgdm6V+vC5wjHJ+6I1ERAioRGK4Ny4sRq+drX/lS/jPGt8ueHj5STujdMgY8egPxiy6pCHOa91yNy0iJMeX8wKaPRktUPh/2y/8BCuenmK8oHP/Su8pGP/EQ5ePmBMtQPe0wKvwYDAGEp2IdyAxyzmBZ8VOORm+oTgGK61uUJQJihlJIA1Pg5JmI358FXspogCKPDlmHMEz8xhPMDQ+S+/2O5lmHjsUDo+FJ5/fWT5dix02VZkQ8AxJ4OB4mf6JmoMMCH+vGECGhcFhb6OkQ7XhEI7S4XXbyvHDiwV8suAZ+WZ4AQ/Ya+zH4MgFQSeVOrDgGfdUtIOGxHyiVYO0vMmY78WZ7cA9rCz/LYBnEAzMgcuddTLqDwJVAbDTm26BfQsDFFNADS0vJqGUMuEOj3PfrRLo+iHeIWUElU2uwZrYqPCAdao/U5RD8arQhsejoMcTDeerhR+4OLc93EVr/YtzrTQSJXG8AnAcg0cvYpIyCZCYaCkbgJ+xlVqSaXYHLot/CHCatzW7xhTizgiZw50+Fw5vAA6Gh7R0CyoJ831F7PyPd6AJUhyy2j58cRmV2Sn+FCRDTUXhDXY21Ie7jk1sBvGjrUrF8AUuo82uin5WtdGAi1VuVl23POCKjOjc0Rc5ARkFyEp2/+MuqmfhnVDMd2WYQAGFAAEJAEAFkco9xp+FVVwY8OIiHV8lzpD8qAV1pKIy2zRqv+BquvfZ6BQAm4MbDRmzJROo2Aa+BrLbpo2nPjyz9jZ6cqXVuw5iocYE3htt0kAIX+yROA5Cb508wAB+awaQASMabj4GNGpOsuAMENGPAYRbGO14rUl0eADzcWRxmfkfZyjJ/OCql08h78c0Zca+ll4CSA04+j8Rq/b3Q0CAiCjjrPqbH74GV0sSSjj+1PCUCh95jjjIAyAtoKAFX7cXjoOjtg4o7vcBaGBsCz1FKtqnm7RT4as8Gsz/VoKeagpEhIy6yx3oaxNxTmOR5xLx5qB5wBNSOVjcWEvSI+mEhyCPL+raQBoZArqBKATGHnPOUekBkaT8PcA+pYiXuVliPSjI637qeZXSYc3gDH5HLHp4ayNQCkBxxvtgAdjqE+80OyvR+BDfs8HgmJn7CBqAbQ6QmEABijVTsAR40MjHoqB6gsNVGQUeokIh1tFJQAZHra9CkBKAEIY5Ef+bO9Ws55BUAIh6OTIu9eh+QAj67Npr3MhxHbxIIxAZBiGuNjAKR4ic8FOVvFRop++CAiUY9HPHxIkY1tPnDI2zU4evzjjZAnAYjZmC4lACUAYTnyI3fZakbuuedJBIRwOHqk9dchufJqzwYWIo/IxcEGOgCIaIYDPr5vBAiNFOUM9fYMABqzCa3oCT5QAUgeJXl05W1VEalZgkVBNw/5umXbc517QKF7cmYy94ByD6gumja1CW32I8NZA0A4L8a0UVpncEQ3JLVnuebtAny4h77u08StSoy0u9xS3UT3vi8U9RCSok+/a0WjHKZK60i88M0/JwCF4mMuEoASgGYCQDhvde5z+nEXdKCNowtAgE8cMDoXz64hQ0cC0iivR7Oa6NJ6n75HZI229ZQAdNZcaB3NH//pb2lIlx/cX27/4JXl7ns/rj/221/27t2lupFMQh8gwzAEWExwsMFAzES6T0RNPIVatesp1S+vHT1RHnn4lfLgA18ojz3ySjl6bMk2HK2dnaxr40vI7txllJVnS6IaPUHpO/8W7C36WzCb+Jib1gpiBpvcJs3rY/484oFCJXVu2ygoqMLGsDPK4tClsQs63a9LbhkUQqgjAWidhjZz2ygNYle+R55MjKZLRRZ6qvDIiy+Vh775Qnnwvt8rTz5xsiyt8Ed5bYLWNumYiyb0rfXMkbFPAOKlLzCaX8exla/j6FoaNoVBKTX2W++jXFVR4oZnxJzWJVHxkOMwkDIjFQ3GHBDTlqk7Sz6D0QM5fBze2p4p97YZAbnezj43SqMqlMV1AhCGlBGQIkuZxVv3Gl6d259eYJukjtM3tlsBwECgS2MNNjit5WGfC7JIu9vX2dcOOpTD8v8nDzQQQicgqxEYpduZcgnWmWufi4yAMgLyT+5sbhPaHTiWUO681agaAKI0DO2N3LtL0/KwJbh4rY2A4APY1P4rkKwFH2iCp3KRRszUljufBCD0sFFaM4mu7FyChaIyAjo/Poi4bg8IsDhXaiKN+KxOEHbbcO2AcXYtPhCpXjc8Ke/Wcx98a77GnyirkLSGB+22J2UE1J0fw7eMgDIC2koEhKPKcHDgNc5dXb9x7AAGHN4MzT7pU1sr6xoipdwT+3i7yKnZWgq+tKrXbyjn1rj/uNQJQDE/5GYXCUAJQLMBIJzTzGoNCDn4dB03ICZAZ22OLLyW5yB1DdZL2rK436gk6ry3uHsjypbmzbtKAOrOZwKQzDv/Gn5Lfw1v9iPD2SACatz2LACiJoAgYhsY6cWKAYyubRmn3Da4+X4g/jyDZB3WnOvuvW6DrS7jxihMhqj0nJ59AdblYw237ZQA1J0/5kVvG/JzQG6a+Rp+M6/h8VUZzhsCkNP4rk+AAGWRMMIKPva2y+8Bh16Pv5KPI4Ai8mgDH8ribJc6mUFb7pvMfu+QF3X8KUcAX7TbvjwByOfNZ87mJAEol2DTLsFw3IhoOk5sNhYOH+Xch/FRFmBCe8prnSIgj342WoJVOlgFPZdNsgrdieO6CCikbPvqytIweNMvEoBC7+RmIwlACUA/DgDhs2FU7r/8XM/ZibK1dHZvpFGuvPmMUfCIOjjW66g6uxMrMapGho2IuzzPweRNKk4ACt2TMze5BNOzmOdjfhJ6c58DwjNlOI2Dc59psxpIAEoAkq0Q3vO9MzxTcxN66k3ozXpd0jUaSABKAJIxJABF5Ktv1hEIT7kEa9wqLzargQSgBKAEoM7SOwFos9AxG7oEoASgBKAEoNmgyRRcEoASgBKAEoCmgI7ZNEkASgBKAEoAmg2aTMElASgBKAEoAWgK6JhNkwSgBKAEoASg2aDJFFwSgBKAEoASgKaAjtk0SQBKAEoASgCaDZpMwSUBKAEoASgBaAromE2TBKAEoASgBKDZoMkUXBKAEoASgBKApoCO2TRJAEoASgBKAJoNmkzBJQEoASgBKAFoCuiYTZMEoASgBKAEoNmgyRRcEoASgBKAEoCmgI7ZNEkASgBKAEoAmg2aTMElASgBKAEoAWgK6JhNkwSgBKAEoASg2aDJFFwSgBKAEoASgKaAjtk0SQBKAEoASgCaDZpMwSUBKAEoASgBaAromE2TBKAEoASgBKDZoMkUXBKAEoASgBKApoCO2TRJAEoASgBKAJoNmkzBJQEoASgBKAFoCuiYTZMEoASgBKAEoNmgyRRcEoASgBKAEoCmgI7ZNEkASgBKAEoAmg2aTMElASgBKAEoAWgK6JhNkwSgBKAEoASg2aDJFFwSgBKAEoASgKaAjtk0SQBKAEoASgCaDZpMwSUBKAEoASgBaAromE2TBKAEoASgBKDZoMkUXBKAEoASgBKApoCO2TRJAEoASgBKAJoNmkzBJQEoASgBKAFoCuiYTZMEoASgBKAEoNmgyRRcEoASgBKAEoCmgI7ZNEkASgBKAEoAmg2aTMElASgBKAEoAWgK6JhNkwSgBKAEoASg2aDJFFwSgBKAEoASgKaAjtk0mQsA8qGCFBP9G5eegUa/TGQ4k6KbyaCU3qC88MKr5aE/ebb8m/u/UJ78wbGytIxlQdPnZPSl11d7+Iyszut1FptepSuTnmhGFJWDB3eV2z9wbbnn3r9dbrr5orJ374LqVlVDPX1DxeF9WS7+PcnpZZKz0o3LUNcL5bXXT5ZHvvdiefD+z5fHHn2pHDsuXrCy8aiZ0UvmmuBe4Ce+3cQdVNQf2L9Y3nPLZeXuX/94ufV9l5dLLrpApSuqQ04fv1GbvLVVbyzxkVM61T/42ZhEP1Hx6dNL5fDh4+X++3+7fOe7L5RXXj7hOhRhT/ouZaB72qkf+NCNM1Ed4qpOR28inZdVG+OuxV65/oZ95Z5Pfbx86CevKVdecZmaIaPmQ3RIwHy5NMgGQw6vUUWTxsipNqNxrzzzF2fK/Z/+XPnm158uzz1/vIzVxPk4J28kfut0aOX0iw1pPMjZt/kt5dq37S6fvOcXyk9/+Iby9kNXSv5lq0efNk7GZfKos434eqd5fgMNzAUA9WyWmWnBz1iGLHvpyVhWx4ARxrqo8gUB0Gvl2996ujz4wOfKU0+eLMsAkCxlMpHjyxEwyj705iircruRGRLGNBgMS7/fL6urK9aGLgeDXrnssmF5//uvKfd+6hPlxhsvLbv39EUHYIhOPbv9uWxuhAE+ABwOVB1VRjuuch59fak8+uhfln/1L/9LOfxnPyonT44lv4SwNJCcXSeEH3UbOw8u2+/3yr4L+uXd77ms3PvP/m55761XlAsv2qWx4jDLUBigABqD3lB9IS96EACF86vEgFI5QLC6OinLS6PyA+nx05/+vADoiADoVFldgaov3SyUwXBYRiNxGJ8WO8kotuhS01IGEmzQXyiaLvU9kIxLalOKmpS3v/OC8hv//G+WD/zEdeWKgxerGQCkRho3crleGXN7mA4MLKnVeNRmZST6HnM/FACdKA/c91/LN7/xVHn++aWygpwab1+dTrABceOhUeBBN16gC4xBgslGyPu9JbVZtTZXX7tbD567BEA3CYCuEO0ZNV1WHW0khfi7bYpny1DXmTargfkAILMYTBBH1RNKwAAAjXhMm8HultXvLq+8eqo8/N2nyn334dhHyyk5tkhlGwtqq2fbqgCrPzRHGOtJh0HylKTOWIk/TuLO7gB0xRWL5QMfuK588u5PlBveeVAApL77cmpzbmjdnt0A4YRMgI8DkDiKfwUhyTiZ7CnHFfE8/v3nywP3/2cB0YvltR8hizgIGKD1A2CFFyDrefcpy7BIpgn5w0UXDRQBXVF+7e6/IwC6ulx88S7VntRxWjQCTYu+cG4dY3hLJgFQyAoUUUuif3B4RccPf3hKEdDny0MPPVNeOHKqEjAO0UlpEyF1r68IaKCC6tg4vJjoEPCP5NRFYDg4qaJR2SMAv/Hm/QLKXyq3f/C6ctmlF6oZEVhEajART9obE93Z+Ct4UKxyWYKAb0HAtld2sFCeefpo+Xf/9r+Vb3z9BwKj02UkAJ2MpQOxY5TGTlFtqdGNs2FeNOoKPj3lvd6pOr+KgK7bUz71G79U7vipG8u1114qyiXRL4mX5gkAkk6F/SYNM5dp6xqYAwBiULhZNbuRIqAhk69IQZOOMZTJLp13y7FXyuOPawn24GfLw3/6cnnllRXMS0ZljcuK/JzoB5Ah4OjJejwakrPJYMeyz127VCZ6jqHQ6/rr95Y777yx/Oo//Fg59LZLyq7dMJNnKgIyqdyyrQNq3HPcoTB9rvBHooqJZOz19pSTJ8blySdfLJ/5D79V/uShp8uzz5ypDu1PavjQxPnpwq+4aMZi1/VegVu59urdiijeJjl/vtz87qvKhfsBXUUmdgzkKoumKyKWnqIgAIgIyAFI0SBCqkP0BQCNFV2sSl/PPnu6fOYzXyz/548OlyefOmmRDWA9kgKXlgRa0tFQy6o+vhyCw1W6HEunAMlQAvYFUERVlx5cKO+//bLyT37tb5R3CzAvvHCf+kQONCUGNQqysaMEpRaAHUrswSN5JxrTEADS6J5/7lj57Gd/v3z1K4/KBo7aXI4UBa1KTqIUY2vMXIc2J9zThw1dJ66hVbZHD5qbbgIo/5Yi4ENaiu+XnHr4KQJCUuwHAMoISMr6MdKcABC2jVmMFXbLCARAWkzYsGXncl4tB+TYywpMnnv+tfJbv/k/y//9o8fK9x8/ZssbnKABHSxbB2CkVZfK5WhySpYxgM7yksxLF4tyqsWFXvmZn7mu/OIvfqTcced75SxqICMc2NNeQCgTDIcxYZoTPNypooiYQ/BmT+uVlX558YXj5Q++9LXyv778nfKtb79Yjh1VBCB2C+qTJQyjJdFqfbKySuCA2it33nFF+fm77ig/99fvKBdfyj6Vll86+gaUivq090S8N1ohylM9zlMByJeiuJWcSicASJoxEPrRa2NFFYfL7/zO18tXv/oDgbx2slSNnOyxGZCrDVtCXOPYAKJFlBoHESh80S0iv/e9B8rPfvTW8su//NFy8EqBoghZrlFrAAS10MKvKWZeHHiYf6rR+0jzQIS2uLBPpYNy7Niqospny+c+94fli188XJbPjMuZMw56Q8mKnpqEQKSqwzU5/HXceOO+8pG/ekP5B//ornLNNQe0dNSOk3SpuFsNtfQE2HTHQ8za5x6QqXSrp/MfgMwwMTqeeOw3KPLQpLOoIOFU7PH0eywLhuX4iZXy54ef1ebuU+WJJ57TMmxF4TjRh8xXnj3QoxpjXB0RxeAsupHFsQfD0gHjw6YAn4sv2VduueX6cuttN8gIFf3sUsw1Yf8HI8Rh1db2A5BFjZoDh8FZMFJvM4Cpntgrq/Q1lHOU8swzL5dHHnlST+ynbGN6NGJ/SbIibDiHLi2MqPdwsX50z/VgYVIOHNhV3vWed5Tb3nd9ecc7rzQ5BaWq1xjZA9LexkB7JbAgCulrGUoE6Usw4kj2wtzJGb85lupZZpw5MyxHXjhRvvfwD7VcfLK8+upxLc8Yr0dBUANkvYGivYkiKVRDWd1vKtr/YWkzGK7Y8vWGG68pt912qLzvfYfK4q5lRSiKUo0dunI9qrVkZnQ1FwD5A6gOWjXElmPxHvQBdYHhmV45emxZke8T5bvfPaz9quOK0MRG4+Klgyk0ctNEhz/91L76g5FFue+84epy663vEGAeKnu1n9+bSE49eIi7Ae8WgJivVi4xyrQFDcwRADEqPdFk5AYS1WgAIECgJwfjyUQ0NJGDv/rqCS3BXpcRjmwzenV1pGXBSE9/LUf0CB8LSMbyFkyTzdQVrTfGqt+7Z68Z1FDGdtVVl5V9+3YrGtITf5EnIFGPO6wBDE68HoBwnMbQcWqce9mjJgEQG+O9HnsXe1S224AHOY8fP12WFZ20m9Fq2iTGiFviKErVOXnLtKBtjksPXlgOXLinXLBPwDKQo5icIIE2UwVCgMJwgH602EEk4wQQM3oO6QIAMgBGPtUZGIhe+mSD/9SpkaKMMwZAJwXqKwoh+wJzAJP9n754AUAs8fBHQG6gcbIJjcMuLAKUu8sll1xQLrp4oSwM2U85ZdrUhUnh46vjrGP0CCjkhI5+NBf0y3xLzpFEB9R5w7iy3CsnTi6X5559ySIkItuRomafL/iQyFvQ8WvKBb2KdPZdsFgOXn5hueTSvdKd9oTYmNac+kMEBQp0tF8XEZAvX4M3fDJtVgNzAUA8xfpCHf7xtAYCSJgg5sCT2tYA7LPoaT/i7Yg2WtVKBoQBqpV4jGWpLK9sExsUk6fAiycYBk10hBGuAkbynL17d2mpoahEEc9orDcgevtFn60xA0AVhKxcT3CTBfn84G2Zv7YnGsGxFyznWcoykLdKLAFFZEbNk933FUSmRG+WADrd8c9KAV39mxCNSS6WjCw1xE2lgA9gRpSnnohG1C+6Gte+ABhUQD36tQhI13CwfmzNAoF0Ckdt4LPEXV6WfP1F6cR1BTVvlnB0AIjxLy7uMoDiLRr98DaMt18LknHAsq+nPa/xKS2ltZzlrZxY0EeMzcGPwiijk06SWMwZUQhA0BfzQY9N96EeUHp7JxlXBOZEezxkFhbYCO8mxkUyBfiljZsSzbGiucVFyS1gXV46oYiI9gD4iuZKe0AA+lA6EMiSTH/SXaata+C8ByCeeCx7BvIW/nEfoEEZJuMGjCFgmZSxlGGjtW+RjTzGAAYQ42mFUdoTFFIl+IXxT2wpRqkcVxsY0QOOzUHyHoxCfVYQMhNXjfUPFaAiSWwvZkV3ejMj58cZiYAAI57k9Awh47LEbb2zy1poTlnHxudqYpxjAZC90VME4oDMRmnrDK41gJle1E46ULdK4u7/a28UhiatU6Nlt8XLqWMBEm/1xIduDKjQqYBP7Fna0Y/Nk5oYUBl4aqvYlqGMWa/JV09btDGQYxvAqU1oO3JVNGVIZN1xoVIAyA560yYS0QicNX3Gj49nIJ8/vKyFtXO9hWYjhzPVSMIDIHTBQ2tF0SPwBdioB+tXfQI+Aj+LHKlOAJIStp7OfwCyCeepi1kz05r3anxECh4tYJAyFiwOg2RpoJy7JW0E9GRAC0NtVMuIFMvoKcbygcgGA3QjxHhHFsvLkbU7TbgN1Lk5E69wpSWG+rEoyu7ZJ0EmHQYOLT+oSfaZITNcPpsiZ5ZjLCwsqlcMGjf1/ld9rWIyRb8hm1HUflh22bKPdiqbKPohAgpwNIdAU3VsrjOiOm2gavlJNOQfX0A675srlxeZXe4mJ7pp9IDMLHXETyDOchFd0dXKsj7nMyTaURSipaxFlIpu6H+keQGgcGR6ND2OtSy1JaBHUsRKLk2bI0rchaxMMSDgn+cCZIzI5p5+zSbUj/fkrYmaRaiefZ6Aak/qEX0a4GhUTQ4tc08LtwMeHmZXGpPxkXBjRYUjPRwNAG0s1iRPW9DAHACQGxxGzlMNQ/SnkJukAZAqLQyWkeG8Ezabtc8DDLGkoRRqDJwrv/anF040lBPRjmv6wEmhZb9pbPsH2l1gDWHcMEzAEF6ccQKoOUiR154ARpyPV0f1KWoAqr7cgeUsAkPeREVLOGP2bUJ2ar2/iH4s7xOV8U7ojByfN1RaGmi5Bf0KH+Zh+WWODz8/OHtf6I2r6Dn6bGlteaV2I5ZXeuIPxJ9oAwr2zQYG7EQf0pX+MTfoL/RpQC+JkGfE2kU1tpy2OWNpK0CXfF2ZQhoKQ041VJK80htL5MVFffZLYLC6qqWxeBGtkny+/cHh43UQsUrTH/PgdhTcHWxoE+2UEybKFnhQ8PKC5fuQDbf6KFrWg81AVqDLWDMCcg1v9XzeA1AYiT3A5Cw9OSuO14AQyGTm60Zgf2ahp5IbBBAR9bYdbHcRFaiF8eFpaiBlXoCreCv44jREFQtyEu5pE7XIBlSEjG2uItVYkqzsuwz16huDNkBTE5yGTXHEV3ET+bA5biuVaG/84SzCDaKtiT4EyN7EyD4kF3tMLPHUlwGqYFjLA/j68sLFQnKDOQMgRtSOw0eJ/K7TvjmjKcf2XYhy0BGfRMcJuYabt0NWP0x/6ndgjqzIS/TMnUUvgJRuAV41V7Frkja0t6Qum+u4srlHX6Y06ZO51n+LQBzgGBuQDHefq5AI8NHBstlSlDNO2ipX2+Ywuk6UK262pFQzIkrmzsyRNhY9GdM8bUEDcwFAOAeAI3/ShONk3MtM6uFrdxmuDAIAMgPUa9ORIo8FlgjVpPwJrNY4BAaM5ct4eKpCZHwxJv3nHsfBrbwdvHEequF4rkQdDGoy0BBnlksq4m3cUNEU47DX1kQA9CWnJorAsP2T3rR3Pi6lzgYWCEAffky0yT2xfSacTX+WoPNEG/DI6PtgOJv4jnhiE53QjkSsAC+4u05NEOO91hEBr6Ft0OsT0qt6eyW98KcryADIAdA8GNAPuofeQYelGp8aR5dEEowHSAAEoFUOOMp5+Zs0l8znTwT2H37GQGeSz5siVgEPEdjCImCr0Wiu+YgGG85wXtWbR5ZUDkBGIn6ACXJ7/85XvRr48DCo4646sr8zEy4R9QE88eaPaEtSixdvOAEv5Kp9ZLYlDcwBALXjYbnA05YZ96UDdcw8RqoD8DEAwpBkOSCUGcZaI272bVTprcPonZMaW8KoaAkfKOp/r7Sz1arY805Fc2nLNJy8PnUBUhzVLNb4itTkDqOujmjjUF3DGkkhJfdr8oleuXMwXj6Zyx+8FnslrbEZyEJLPcsxaGDIgY58U9llQxfoFSCpjhidd2RmOYLs/COZXoLOvLBty4hwVKfC6Zm7qosKfPHHsB4BBW3I2M4LfXkCUjQK6SF06SpiqQ0QRpuIaKIduYALALK5kPyhSwBIB2/A6rCsES8YTB8GlPRXeWluArS8JLRR6zPbtAbmBIDqzMto3eAxYhwgDuoxCmoxYhniGieiPmjD8DBijNnbmrNAYvfkbfI+nZJSI8MIm7b0GSn68nu2rx3wcEDKrHUQe1779ZYt3y7RmlY2dmpViuPgQHIeLfTUFw5GVBDyyjkAKEVKeieocnfyACDfVA4ZXa+hE1tWrNEzbAGVSGukqsNr+Tsfi8lUp/EbcKAHjgoEmicDIeUxdzZ/xk2aNz1Hf8pNHp87Lw0ZmHMkU//N3Ics0Z4+Q0e0q0fVH3q0sVWW7bwhuydXPfpE53zkAVBtAbmSZbZJDcwBALlDYsy+6aurNU6BtYRLABVuhG6MbXljbFZUgewsAOrStxps+jWDbcvNYSoQeb/UwYM7N27nWC062rsVV0ZRh295K68IWbir5VbULVeVtaFM+gnnIgqqiZoAII+E3CnZ9ralCKAFOFhEIlksd37wbJPqbKzWE1zbqnrlwwqnB1C6fHDUehgAVSAyNkGnttZHBSO7dhma3urcOzhEKbnzaECI+6Y9dcgV4IN+1CbsCDCpINQdlvcBKEtW8XJJaEpE6YctIzUuByIVZ9qSBuYCgPzJyPS3js01BtQYhdUydpXIWFrjp4wEfc2tFsPiyUVhpTcj83sorY3OLQDhQJEw+q6jUG4dKKdOnDFwcwKMn4NyUjdvr2kdd0ZWZYtr6toRt30ZPJkz1T0OHIZkfZOz/MJhiIBo51GJA5DaBAAZ+DBGaOrRCBT9qQq+za0kqv14EePkqgtAurWRwbseJqOuTW4fmenIopfatolkaO8cuvRrH0QhkOcROfneEp+VcgDiz0KaJRjaxAYaABJN6Ez9NQAkmQ1+rA7+LQABaoCQAxFSZtqKBuYAgKqTmwGFoTJEXLF73x2213RL3GGC3g0PHnDBYSxvDIz9BGiVtK8Rhuj7OVZoVQEuvtyjqDqBHNnby8Hq05L3Mm1q5XCHjJraZ/Rt/KpD1Ws4ez+1Lxl/CyAeVbAUc2eutBWA+PyNj3czAIRMah86aRwz+qXek5dEhBAAVPtu5GVsgE/kXMtxAb0G+GgbIKB53xCARGI8GIl4WdvQG3XrksCFT4ujfwOJdQDkvIiA6C/mKEaEbPSj3MaPXdDregAChNqoc50EefsGGpgDAGLCq2Hqqk3VANsCXVF/toMYSX3SOgd3Q4yrXnkuI7NN08bZnNo2I+PJTR/RRXWQjQDInA0gap6uGK3zM3nsmvsoW38NVXTUzbluD3eqrhOrT5zSxlDpTAY+yY0TRlv4i86e3rV91VHDv9EDtG+QTG/Ud3l3r6nzcTowx1ilf+tTSxjL1cZ4QeXXa3lWPrA2fpWPtaWM5P34NbcAEMARAORjZu49KQd8eEDYfDYtaVwfPsq7+oTWQIic6MejoG7LvN6cBuYCgDBCB6HuoMKAvLZb49dtvd1Xg2tL65UZM6YmPmaA8QQOjrgCTs2ypi5toqoCYwtAtQIAsCcz9O4AZxs3tCGN8q5DGBuTyK78hENyhcBxcF+d2NrjXBBFWwEqjmPjiiiANpGgd1mBYpeBtq4DRu6AAT3l505QtiTI101t241q/NPdojEnZ3QBQPBY36LD18YcvMnrtTXx69jgtjdkVh9zE3wYeX3AvQEA0dTGaPIAPBy0Y/8nl2Chza3mcwJADKsapY1wvVFWYzMDg6AaotHW69qkW2PVblnWogUgDKul5O+f2DfwNzneirMZroz2LHA0API25vyi8dfRbdu1V/RVj47zrKExcdwFzCmrsxq+QHgWgImRKq2F0YYMMS4cj+sAIHjASMnGxA0HMCQ6A1Sr5HR2sr7WF9OOMuV0pRu/Dd7oTlW6Jbc6yIyWi25qaruFunbitftBkAQTB9MWgFS+jhUjpDD2jWhNCp42/srOR1ABqwGg3IR2jW39fP4DUGMssgBzpCjwfOOnNEbmZuUqcVdrLa/lYW8v4klqT0A92SxvlXlOALI9A4yRp6EnYgqPlnBsIiD1VQGgktSsykDdGvColh6OZdSUhcwUBM96qcy6oIqhk1uCjntKqvNbOfwqAFnfOJDTkDV7L+ghdNNpZ6R2X09Nn/CAN8n78PbsXMGYeqpCZ+RQ+vx4bae9Csz5jai2tRbdayuop+jTGujEvWiNZW1TM+8l+AT46N6KvJaG7QuI2oWxZjTIjnTQ+rlDkZeb1MB5D0DxFPL9CqyDSVduxuz31cJ8yHIYN1o3DC/EQIKWknptzl8jAD3hY79m7ZIKUwNIeMNUAcWZ1k3LCMe90F25gk9EDY2s0NA3SbnKkcvl9dKNwGhNvbWr7ZXB2sdW269h4335OahCL9JJgEvwqPL4EswdbA3XoFePa5P34GX0U/uw8XNtsGwjdYFDZ3wwssvL24XTo4s1YzfSkCv6jJzegxc5fSq36iiHhgK4Kq/zEpqxumaM0AKczCXtRdVlU/lAZfyMl9/lefMamAMAwgAwJpxfxleNhuu1n/Vx63DA2sj4MDgUgwHSthoyoBJHbBgr7xplC0DwJQWv1pHCNp0i9oyC3ltVCWt7l8Pl8fqWCsqQwK+7FH5Ne5KcqYrjUYaXWVU98c7L+cHLr/Eml0dna88plpPoGf24jpwOZlxB35ZQ2iQJ4m8MqUcH9KUD/VZ922ed9GawfZMUvMhru5A32tcOvNtWLhPc5jN0EbzqGMXPI1xkUF3XdmzQMV7vwDRunXj7GEsDiOK2BhCtmWwAvdn4qqCZbVoD8wFAGKYZEOPC2PxoASgMTzVmQNy3ZX4d7bjTdRhjGBzGHk4XdXSn5EaHEWOYJNqThzOQe4KifWoGfdQiAyn6r7J4YXNujXz9OBqSeuH8TFx4ktQkevEC7kMXwQ+iKPNGvo9FSz8agDYmwbG2X9MWglpPteq8P27QWW0DmQS1eM8AHp0B4NRHctrG4Rtetd5IQ8bQecjW5cF19KvcZPCZcVmRUO3qPNt1NDfatn07l162vreGRwJQaHBL+RwAUBhSjMtNwGzRPS8qPDejjSKjihvl0Rbjo1i5GVz0QT115G1qHKpbHO2NZ1vhPerc8G35GO+4XddHFK/Nndvasg3umj9SUt0GTVy6qKi5FUYZzWIM5DqsKsq6fariHMVGZXXBlzyuqbUYrYlcY/O+BUhogl65eK2piyoTYCMhaB8piJ2P8/U2XqPrjeagYdtpbyybVtFBJ5eUG/HqUOTlxho47wFoY7GzNDWQGtgJGkgA2gmzmGNIDcypBhKA5nTiUuzUwE7QQALQTpjFHENqYE41kAA0pxOXYqcGdoIGEoB2wizmGFIDc6qBBKA5nbgUOzWwEzSQALQTZjHHkBqYUw0kAM3pxKXYqYGdoIEEoJ0wizmG1MCcaiABaE4nLsVODewEDSQA7YRZzDGkBuZUAwlAczpxKXZqYCdoIAFoJ8xijiE1MKcaSACa04lLsVMDO0EDCUA7YRZzDKmBOdVAAtCcTlyKnRrYCRpIANoJs5hjSA3MqQYSgOZ04lLs1MBO0EAC0E6YxRxDamBONZAANKcTl2KnBnaCBhKAdsIs5hhSA3OqgQSgOZ24FDs1sBM0kAC0E2Yxx5AamFMNJADN6cSl2KmBnaCBBKCdMIs5htTAnGogAWhOJy7FTg3sBA0kAO2EWcwxpAbmVAP/D1tUn4hc7umxAAAAAElFTkSuQmCC;" vertex="1" parent="1">
          <mxGeometry x="590" y="706.29" width="32.2" height="32.42" as="geometry" />
        </mxCell>
        <mxCell id="KT6xFQYIPRrfO0EYKUDw-28" value="" style="shape=image;aspect=fixed;image=data:image/png,iVBORw0KGgoAAAANSUhEUgAAASAAAAEiCAYAAABZSw+LAAAMPmlDQ1BJQ0MgUHJvZmlsZQAASImVVwdYU8kWnluSkEBogVCkhN4E6VVKCC2CgFTBRkgChBJjQhCxI6KCaxcL2NBVEUXXAsiiIqLYFsXeFwsqK+tiwYbKmxTQdV/53uSbO3/+OfOfM+fO3HsHAI0WjkiUi2oCkCfMF8eFBzPGp6QySM8AERgDHP6cOFyJiBkbGwVgGWr/Xt7dAIisveoo0/pn/38tWjy+hAsAEgtxOk/CzYP4MAB4FVckzgeAKOMtpueLZBhWoCOGAUK8WIYzFbhKhtMV+IDcJiGOBXEbACpqHI44EwD1y5BnFHAzoYZ6H8TOQp5ACIAGA+KAvLypPIjTILaFNiKIZfre6d/pZP5NM31Yk8PJHMaKuciLSohAIsrlzPg/0/G/S16udMiHNaxqWeKIONmcYd5u5UyNlGE1iHuF6dExEGtD/EHAk9tDjFKypBGJCnvUiCthwZwBOsTOPE5IJMRGEIcJc6OjlHx6hiCMDTFcIWihIJ+dALE+xIv5ktB4pc1W8dQ4pS+0PkPMYir5sxyx3K/M1wNpTiJTqf86i89W6mPqRVkJyRBTILYsECRFQ6wOsZMkJz5SaTO6KIsVPWQjlsbJ4reEOI4vDA9W6GMFGeKwOKV9WZ5kaL7Y1iwBO1qJD+ZnJUQo8oO1cTny+OFcsMt8ITNxSIcvGR81NBcePyRUMXfsOV+YGK/U+SDKD45TjMUpotxYpT1uzs8Nl/HmELtLCuKVY/GkfLggFfp4hig/NkERJ16UzRkTq4gHXwGiAAuEAAaQwpoOpoJsIOjobeiF/xQ9YYADxCAT8IGjkhkakSzvEcJrPCgCf0LEB5LhccHyXj4ogPyXYVZxdQQZ8t4C+Ygc8BTiPBAJcuF/qXyUcNhbEngCGcE/vHNg5cJ4c2GV9f97foj9xjAhE6VkpEMeGRpDlsRQYggxghhGtMMN8QDcD4+C1yBYXXFv3GdoHt/sCU8JnYRHhOuELsLtKYJi8Q9RjgVdUD9MmYv073OBW0NNDzwY94fqUBmn44bAEXeHfph4IPTsAVmWMm5ZVhg/aP9tBt/dDaUd2ZmMkvXIQWTbH0eq26t7DKvIcv19fhSxpg/nmzXc86N/1nfZ58E28kdLbDF2CGvHTmLnsGasATCwE1gjdhE7JsPDq+uJfHUNeYuTx5MDdQT/8Dd0Z2WZlDjXOvc4f1b05fMLZc9owJoqmiEWZGblM5jwjcBnsIVcp5EMV2dXNwBk7xfF4+sNXf7eQOjnv3HFbwHw5w0ODjZ/46LgXj+8EG7/p984m+PwMaEHwNlyrlRcoOBw2YUAnxIacKcZABNgAWzhfFyBJ/ADQSAUjAExIAGkgMkw+iy4zsVgOpgF5oNSUA5WgLVgI9gCtoPdYB84CBpAMzgJzoAL4DK4Du7C1dMNXoA+8A4MIAhCQqgIDTFATBErxAFxRbyRACQUiULikBQkDclEhIgUmYUsQMqRVchGZBtSg/yCHEVOIueQTuQ28hDpQV4jn1AMVUN1UGPUGh2FeqNMNBJNQCehmeg0tAgtQZeh69FqdC9aj55EL6DX0S70BdqPAUwVo2NmmCPmjbGwGCwVy8DE2BysDKvAqrE6rAne56tYF9aLfcSJOA1n4I5wBUfgiTgXn4bPwZfiG/HdeD3ehl/FH+J9+FcClWBEcCD4EtiE8YRMwnRCKaGCsJNwhHAa7qVuwjsikUgn2hC94F5MIWYTZxKXEjcR9xNbiJ3Ex8R+EolkQHIg+ZNiSBxSPqmUtIG0l3SCdIXUTfqgoqpiquKqEqaSqiJUKVapUNmjclzlisozlQGyJtmK7EuOIfPIM8jLyTvITeRL5G7yAEWLYkPxpyRQsinzKespdZTTlHuUN6qqquaqPqrjVAWq81TXqx5QPav6UPWjmraavRpLbaKaVG2Z2i61FrXbam+oVKo1NYiaSs2nLqPWUE9RH1A/qNPUndTZ6jz1ueqV6vXqV9RfapA1rDSYGpM1ijQqNA5pXNLo1SRrWmuyNDmaczQrNY9q3tTs16JpuWjFaOVpLdXao3VO67k2SdtaO1Sbp12ivV37lPZjGkazoLFoXNoC2g7aaVq3DlHHRoetk61TrrNPp0OnT1db1103SbdQt1L3mG4XHaNb09n0XPpy+kH6DfonPWM9ph5fb4lend4Vvff6I/SD9Pn6Zfr79a/rfzJgGIQa5BisNGgwuG+IG9objjOcbrjZ8LRh7widEX4juCPKRhwccccINbI3ijOaabTd6KJRv7GJcbixyHiD8SnjXhO6SZBJtskak+MmPaY00wBTgeka0xOmfzB0GUxGLmM9o43RZ2ZkFmEmNdtm1mE2YG5jnmhebL7f/L4FxcLbIsNijUWrRZ+lqeVYy1mWtZZ3rMhW3lZZVuus2q3eW9tYJ1svsm6wfm6jb8O2KbKptblnS7UNtJ1mW217zY5o522XY7fJ7rI9au9hn2VfaX/JAXXwdBA4bHLoHEkY6TNSOLJ65E1HNUemY4FjreNDJ7pTlFOxU4PTy1GWo1JHrRzVPuqrs4dzrvMO57su2i5jXIpdmlxeu9q7cl0rXa+5Ud3C3Oa6Nbq9cndw57tvdr/lQfMY67HIo9Xji6eXp9izzrPHy9IrzavK66a3jnes91Lvsz4En2CfuT7NPh99PX3zfQ/6/uXn6Jfjt8fv+Wib0fzRO0Y/9jf35/hv8+8KYASkBWwN6Ao0C+QEVgc+CrII4gXtDHrGtGNmM/cyXwY7B4uDjwS/Z/myZrNaQrCQ8JCykI5Q7dDE0I2hD8LMwzLDasP6wj3CZ4a3RBAiIiNWRtxkG7O57Bp23xivMbPHtEWqRcZHbox8FGUfJY5qGouOHTN29dh70VbRwuiGGBDDjlkdcz/WJnZa7K/jiONix1WOexrnEjcrrj2eFj8lfk/8u4TghOUJdxNtE6WJrUkaSROTapLeJ4ckr0ruGj9q/OzxF1IMUwQpjamk1KTUnan9E0InrJ3QPdFjYunEG5NsJhVOOjfZcHLu5GNTNKZwphxKI6Qlp+1J+8yJ4VRz+tPZ6VXpfVwWdx33BS+It4bXw/fnr+I/y/DPWJXxPNM/c3VmT1ZgVkVWr4Al2Ch4lR2RvSX7fU5Mzq6cwdzk3P15KnlpeUeF2sIcYdtUk6mFUztFDqJSUdc032lrp/WJI8U7JYhkkqQxXwd+yF+U2koXSh8WBBRUFnyYnjT9UKFWobDw4gz7GUtmPCsKK/p5Jj6TO7N1ltms+bMezmbO3jYHmZM+p3WuxdySud3zwuftnk+ZnzP/t2Ln4lXFbxckL2gqMS6ZV/J4YfjC2lL1UnHpzUV+i7YsxhcLFncscVuyYcnXMl7Z+XLn8oryz0u5S8//5PLT+p8Gl2Us61juuXzzCuIK4YobKwNX7l6ltapo1ePVY1fXr2GsKVvzdu2Utecq3Cu2rKOsk67rWh+1vnGD5YYVGz5vzNp4vTK4cn+VUdWSqvebeJuubA7aXLfFeEv5lk9bBVtvbQvfVl9tXV2xnbi9YPvTHUk72n/2/rlmp+HO8p1fdgl3de2O291W41VTs8doz/JatFZa27N34t7L+0L2NdY51m3bT99ffgAckB7445e0X24cjDzYesj7UN1hq8NVR2hHyuqR+hn1fQ1ZDV2NKY2dR8ccbW3yazryq9Ovu5rNmiuP6R5bfpxyvOT44ImiE/0topbek5knH7dOab17avypa23j2jpOR54+eybszKl2ZvuJs/5nm8/5njt63vt8wwXPC/UXPS4e+c3jtyMdnh31l7wuNV72udzUObrz+JXAKyevhlw9c4197cL16OudNxJv3Lo58WbXLd6t57dzb7+6U3Bn4O68e4R7Zfc171c8MHpQ/bvd7/u7PLuOPQx5ePFR/KO7j7mPXzyRPPncXfKU+rTimemzmueuz5t7wnou/zHhj+4XohcDvaV/av1Z9dL25eG/gv662De+r/uV+NXg66VvDN7seuv+trU/tv/Bu7x3A+/LPhh82P3R+2P7p+RPzwamfyZ9Xv/F7kvT18iv9wbzBgdFHDFH/imAwYpmZADwehcA1BQAaPB8RpmgOP/JC6I4s8oR+E9YcUaUF08A6mAj+4xntQBwAFbreVA7CADZJ3xCEEDd3Ibr0FlNfq6UFSI8B2wNkKHr+rx54IeiOHN+F/ePLZCpuoMf238B3tR6sv9VZBAAAACKZVhJZk1NACoAAAAIAAQBGgAFAAAAAQAAAD4BGwAFAAAAAQAAAEYBKAADAAAAAQACAACHaQAEAAAAAQAAAE4AAAAAAAAAkAAAAAEAAACQAAAAAQADkoYABwAAABIAAAB4oAIABAAAAAEAAAEgoAMABAAAAAEAAAEiAAAAAEFTQ0lJAAAAU2NyZWVuc2hvdLm8PucAAAAJcEhZcwAAFiUAABYlAUlSJPAAAAHWaVRYdFhNTDpjb20uYWRvYmUueG1wAAAAAAA8eDp4bXBtZXRhIHhtbG5zOng9ImFkb2JlOm5zOm1ldGEvIiB4OnhtcHRrPSJYTVAgQ29yZSA2LjAuMCI+CiAgIDxyZGY6UkRGIHhtbG5zOnJkZj0iaHR0cDovL3d3dy53My5vcmcvMTk5OS8wMi8yMi1yZGYtc3ludGF4LW5zIyI+CiAgICAgIDxyZGY6RGVzY3JpcHRpb24gcmRmOmFib3V0PSIiCiAgICAgICAgICAgIHhtbG5zOmV4aWY9Imh0dHA6Ly9ucy5hZG9iZS5jb20vZXhpZi8xLjAvIj4KICAgICAgICAgPGV4aWY6UGl4ZWxZRGltZW5zaW9uPjI5MDwvZXhpZjpQaXhlbFlEaW1lbnNpb24+CiAgICAgICAgIDxleGlmOlBpeGVsWERpbWVuc2lvbj4yODg8L2V4aWY6UGl4ZWxYRGltZW5zaW9uPgogICAgICAgICA8ZXhpZjpVc2VyQ29tbWVudD5TY3JlZW5zaG90PC9leGlmOlVzZXJDb21tZW50PgogICAgICA8L3JkZjpEZXNjcmlwdGlvbj4KICAgPC9yZGY6UkRGPgo8L3g6eG1wbWV0YT4Kn3JsEgAAABxpRE9UAAAAAgAAAAAAAACRAAAAKAAAAJEAAACRAAAz7pMn3FEAADO6SURBVHgB7Jz5k13Hdd/PW2bBMgOCIDYuAEgRoLiA1ELtolmWHW2mQ6nKjpVFqspvsURKVCmuyp+QqlRkLk4qP0SSU/nBiWXTIhXFlmWRkhOtFKkFpEiCuwgQK0nsg5k37718P+d0vxmAdDKjl8Ijqk4D9917+3af7j59+nNP9713Gt3uv+1bhtRAaiA1MAINNBJAI9B6FpkaSA24BhJAaQipgdTAyDSQABqZ6rPg1EBqIAGUNpAaSA2MTAMJoJGpPgtODaQGEkBpA6mB1MDINJAAGpnqs+DUQGogAZQ2kBpIDYxMAwmgkak+C04NpAYSQGkDqYHUwMg0kAAameqz4NRAaiABlDaQGkgNjEwDCaCRqT4LTg2kBhJAaQOpgdTAyDSQABqZ6rPg1EBqIAGUNpAaSA2MTAMJoJGpPgtODaQGEkBpA6mB1MDINJAAGpnqs+DUQGogAZQ2kBpIDYxMAwmgkak+C04NpAYSQGkDqYHUwMg0kAAameqz4NRAaiABlDaQGkgNjEwDCaCRqT4LTg2kBhJAaQOpgdTAyDSQABqZ6rPg1EBqIAGUNpAaSA2MTAMJoJGpPgtODaQGEkBpA6mB1MDINJAAGpnqs+DUQGogAZQ2kBpIDYxMAwmgkak+C04NpAYSQGkDqYHUwMg0kAAameqz4NRAaiABlDaQGkgNjEwDCaCRqT4LTg2kBhJAaQOpgdTAyDSQABqZ6rPg1EBqIAGUNpAaSA2MTAMJoJGpPgtODaQGEkBpA6mB1MDINJAAGpnqs+DUQGrgDQ+gvjX8X5++6vPL+ZkhYktcg7O+/vU8eaOxKLULWSyBa0rreciv835Tm/aNnkXWHhcUSmY/LjJJtzgM5BC5OA3HbFEvrlqjGc1RvF/VT9SZFpNa5Ume7z0f9dJmbMiJ6xzHpl3JSf1DammLdIEsT7eojsQM8khOlFXivG3E1HIipWepP6TRZdKErnQu+XRTVTttColFlk4atR3sS728HE8YtdIFzxd74tQfFEb7S928cI+reXS5ZKvyOI18xJC3pU26r/rw/Eq0KAzqLrH12KX0aGfo1kvkp+qz7hfJycP/twbe8ADC4BraMONer2dNDdxmsQrOyyjWVaVqKq0MoW9d6/bnbL7btbH2mOdHFb1e19M1JCPMKAZMr88A5X/L+j0ZpzZrdK3dwnTnyUl2BVkc/5U/TsO8y4nL8AQewTUFGTv1N2RLTme+Y622Yhpjqh+QbFpLY6LdaKnWHevOz6kdqp2ye6tVDy+/31ba2ICjb5LX57jUv2VttZtRIR3pmM3bQxs8j2R5O5VEeX1I+2AOvdHawSBXburmUCSl9IpUtBstU0ovmpgYmNSbi71+1/sJHc+rHxi05KVEQqNPn7RVb22Ko7+8HTqqQKINURL6QweS6WlbShIbefoqq0HbPJA/jpBKQIrrj7JVbk+b9bQN9FHzenL90DdoQf8AjtpEDZDU6ajvWtJrs2092ZaDtlnqnACqClzW/g0PIL9rFTPCIAAQho1d9X2wcRBW52BpzcvUOrrccWNq+cCP6z2lJ2/IEBRkez2MW0bEP2FAstoxQJrzipGs/qzietZqihJuxIgFKNrIQl20eX4ZYYM0fl7iHWhCW1ODTlk6XQ1IiWrYmMmG1YaWDFrt8jqoTEGypWMkxsADgAzAcaUdVwZtglJfG9cZ1Axgr5vaCpNbzXEdTSitoDffdBg31J5Gi8GqpF5xcjI8oy1RHkii/uhB18gv2ZQVwHPNK42ESOdAxfXAqXQUOpRSXA9RTlc6pEhhVpKpp3KrDU1tfYHAAd9U3gpa5Q05IRsINryt85Ih/QDhrnq1qfYpX3f+tAOchoUevFO8nKobWhH6QSeTOpxUeUC5bF5DJRnsSR9tpV0RaCR1Efz0r9dV/2CL6itvl9e/JM3dkjVwHgAIw1Lf0+06cLNw8EQbMW5iB1EyhG6/Y/ACjyCGRRgTQyZSc04emWxfhq27HEbUV/qmwNDU4NW92+Z7MxrQcxLft3Hd+TA1INaUEfrAHUwFqAWVo6YEjJV6s5dkkaYtN4dyVDtdJ53qpgFuKo/B0e113Jhb7i2Qk420dSNdgZDaGIOtykJCDBQA1NYduknaHgMFyAjGGmxNDVju6DEYaU0Z5NpTVvEzdR1PS3XrCRoMLOXrSR8UgZdJ2xoASEp2T0a/put4mKQMfSoxg1ft4Sol1TqSBz33VTe8TwbxYEr0fwEQZQDVnqA61hJIJHR+fka6lfAGdabv6QeVoHNq0+3N2pjkhx4FIMAsAKEPh5DrV9FeS2qqy97H4e/1ZB899Q1tbrfJL53qRsg57SdbX2nCg/Ps+bMMDZwHAAqDkJW6EXvbZLTAA1fZzVtG4LOxuCjDxODYzGZmmdK0bHxsXGYPkDSU5jUYGei4JBi/x2pQl0HXbEwoj1IKPg0ZqmZiUY4GAEM+TNOt3g3RR0IpjzIdPG6Z3DHlATCIBcWOBijjN9alJjRYNIApS3nwFBhA+inlKVL55L/4VeDTw2NgCjGYPgCiACl3YzBC6cgAPl2N17GW5GvK54DQdKinyEaLSijKSwZ1ASBp0csDxD49EoDcM5GOADQBj5Lg+oYv5EWNApsDQBdIjXxg13bPhzjyh2bwhvpAjLzqBx/PCHWA0x/0HVrBCyMNefGk8PpUPnpj+iY9cOvw/lOW7jwwE9y4WbgIQd+9YXmx7hHLe+wtQBz9uhdEWaqPTnxzu9AR3plPHKW3rqbL3HiYgtEqAnytbV24+fil/FmiBs4TAMmwAIa6ng6vUy+8hRowaGzO7ciPuCannXUfjZCWjIchirn2NUhaGhykQB6DnyP3GhgwujNr7iJDxugYlEgmDfdUpOABBYAYIDFYtKvBKxHxzaYg5oNgRgDCC4mB17RJxaosDQjWVwg0h1zUhVA9IB8EeEqCz2IAMaipNdMB1iUAJXdjBiXaAkBNeQIaMwrhNfm6GQ0nQA6lBAu1LCDEAGOA+xRMg5S7O/9cY6pagIPeiLIBT7tNIdIlHg1Q0T/6ieMASk9SyROyWE8ZU55WQ0AgJzrzev3DAKINAIi1LWNq62XQv6XOWlejX7AF8UJBfdXCgwVA2rsOmcYCcfKFTkLr0oXy+T/qTKUEHgDVcvlMZZVHaQAU9aUu9Jn31sD7Vb4MS9bAeQCgapCYu5u4erzcSX0AyQwxBgEGQ2JAdrsyc8UxZ5/HE5DdMPB8UVF5GAYACDlMwTpysTV+NXWZ1JW2dWYVL9d95aoxeU6S2hR4eqc1XhncAR5qg6HLQsumXZhinDuYVC/lASB9m3V8kZ68DVthHQ2E2dMteWSaflEvWbMPWHcJaCOehCrPHvgUCMXAqdei3HFVdJyx1T2tQYfnxEDkHP0Jm6o2TSYwxYhBExEce1kOWQZzWSTuMY2R/tROaoMe52Y1HZF+m5pStltax5rXtEce5di4gEU7JbulY+I7ImAPr0TtassLm5wc8/WavvTd6Zy2iXGhRDIin+paBnHUjt6mDdKVIAB8wgti2qc4eUGkQ3d4la3WCsWvUNtaNjvX1SZvVfVsNLnO2pdkAB48J7XP154KhICKQ4iydARUxscAt2T0TtrEGK0njzwhbmgVblrXY0pK70qwtgzL1cB5AyA3DLWOOTkGAkYiyHx1N2zIGHztAkORob388gk7fPiozc52ba4jc+tooOi22JY7wHoMXlCsWcg4NTg73Y48CZnw5Gpd04Bp9e3ii9fZ6qkJm5zQ0B+jXO6kxdTcaDmrNatGGMPZ433gCl7zsxqUIKGtp0J4UeRZJSBM2dFjXXv1lSN2/PhJm5mZVT11x2VEKU1AgQHMwNbAAUIMIh84mL2e8o017MILp23tBVM2vUYDvKk6Nk47bH0qAWzklbRos/bABwUCBYLX2uMY4FoA99EVujQApPLmtWB8aqZvJ47P2NEjJ+zEsZN2WnVlWusgpkWapiGyymNP8KmWT4FNQJ+wdarrhWtXCj6kPa0+YYrsuVSvQE/kXQyggE8ASOBX/+DZAWy8ElrS708IagL6XNNOnpy1g4eO2NwceqPf51xX8QgeParDAVIFEBK4YWhD9ROq3KaN623DxpUC3BHdnLTQLXoHnqAPfQMA1UO6WbguQ500OcMyNHCeACiGrCxExicQuDHEICWup7WKpp6KdGVAx493bfcTe+zRx563p5960U6e6siIMC7BS7bD0yyMiXUg7us+b5Hh+5RBhg3aeE8Fb2Lduim77ror7fobLrdLL1lj7XEZsoRg+Mp8VmDYAAsGPBfrRv0AAMiUd6U7KIY7MzNmv/rVEdv1ixfs8cefFoSOaaDgpURd/a4s8LhM5fD1KaZFTD+ABNe0tcd6dsGaFbZjxxa7bucW2759s61YEfn8yRR3bFWtrdcRqEeX+ksHddAw5GNKy4BUPZEtiDvM9bRp5vSYHTh82h555Bn7xc8ft5MnZq0jDwPPJjxKYKasqnZXfeMLtIrwxWoi1Wr00ZJXNjnZtu1XbpE+r7Ab3vImgV0L/XqKhYfSFAxQG1pkw/uJvNQVDyi2wABy0S8h9p3OuB0+NGsPP7LbfvqzJ1TPOdVd8gX0gC3pKCDqtAAgtVcFs6jufa/+a2kuu2P75XbD27baNddcbKunAaB0oyT4O+EFR7sAOt7roDpKmWHpGjgPACT78Ds0jQqvBYCwGMrg4X9PAxMAzc717cUXj9i99z5o//vvf2mPPX7ETp1kQOGiCzc6rOzoyCtiWsD6iGYp5dF4Q1OigB2excRE0z7wm1farbfeZO9695vlYVAiXpQgJUP1wl06SEEIZRFPKAavfawZxTSG2ZXGrh06MGff/NuH7FvffNh+/NAeO35MBq66MC3pzitREUN9PdQo9jVOe9aTqefb3rrBfvuDN9gtt7zXNm5a4cOXd6EANoPOAaSGOoDkDdVBQ3teD0AAj6dNr7zat4cefs7+8t7v2t/93W7rojexgT6Y01SVqjC9YwxqrAuiMYCdPbXqpS0q1q679kL7wG9db3/wiQ+qnpMOHgDjj9glrGhSOZXYYYHwCiC8HfSpwa8U6LIuGB8/0bLHHt1j/+3PvmVf/8aTal/DTqsvsYlx9fNAj9SJzFS8bjrnsOocO9mxfZXd/Jtvtk/9yw/bJZeuUDlkksfprNE7W97VsgOde3AB5Th3S9bAGx9A6ne6HgtiCFcPCAD5dMKbyrRkwo4dP22/fHSf/Yc/+Qv72c/2awrGom/k1SjT3VAGq3MGbRivsgEmFdDRwMFZmBgPS+KXddU3XX6Bvef9O+xffOrDtnXbal1XJIuRA9gswKdOmXTRa8W+p0Hk0xAGlKYNkO74iRnbvfuwfeVL37CHfvy8vbQvpnY0dMDagYRyoJ3rwROozqUIBhaHWy6btHe8c4t98lMftCt3XGhTqyd1x6Zu3L2jDrFwq1O/Y5MRoOofI07peNrEHR4PiPWTbqdhL7w4Y1/507+2v/9fu+3ZZ49rnUwpmdKKCWKQwI5OaafEIRJ9K8xLnwtp8IBYP+rbRRe17S1v22R/+OmP2Zuv2WhrpoGQ+klbhQ/71wKIdrAhVyAQrVtadPaaq/4v7T1tX/3zB+2Bbz9mux47ojapP9Gng8Kz6WdRoAgCdWaPcmkDxwoTEw3bftWU/dG/+X3becMmeZkrVUfdfDx9S9N66sw6EbpVIQ6oyJu/S9fAeQCg8BziBTCMio5nSMlTEDG4H5o/SRm3gweP2c9++qLddedX7cknXrVTp8p0SU+cgMC8XA+mHwDIH3k7RGLwYPQYH1MlXdT/GR80mzZO2dtuvMw+c/vv2ZXb1/g0gneE6uIwtQNGC/DB4msgVtDRFJHFz77gw1Oao1rv+eWjB+3uu75qu3Yd0LpKTBPcE2EgeNDd1YdXPWdPaYzwMHggRCpi1l7Qsuuu32C3ffZjdvW1F9m0D+y6psObu+R2WtA8BeUqryAAIW+T5Eqruqa1KsFnXt7DU8+dtLvu/it76Ccv2sH9MxpnSk0SUgneTLnwBvAmJUT9g+58LPuPr9fwYmRLb3kr4YoVTdtx1bTd8YXfE4gusfWa5jYaWij2x+S0OPr7DABRJ9ZrgCT69o1fWi9vRFG/euGk/af/eJ/94HvPODTFKA/0aa/LTUNzas9XYYFM+lH/XSQpkUcZEbZcvsK+8Ecft3e+e4tt3rxO8dge13XzU3Z/GufrV8jUlmHZGjgPAMTwkmFo8GKegIPpD7jgUwt3wQUg1oFe2vey/eShF+xP7vmaPfvMibIIicny7kcMFtL7W8eS4y+Qyfh8Vi93h8VpXhrkbWRGGd7S+nWTPlDu+MLv2/YdAEhPPtzYYqgU6/W6ORgkza1aMewDGCwAy7dQHZjaHD1+StOFg/bv/91/t8d/+bKd0DTR105KTu0UGAxnGjXjJGRrkId4TwUzV0027aqr1+qO/U/s2p3rbXpKT/T0HlNLrxI0eIdIo9SfbqlRdZ1GET5wmIZF3asH1NKCrvl09Cnp8Y/v/Et75Gf77OVDWjSW98PrD0xDgfXcXEfegNnkCtrGNCwAxHSSt7+ZTvZ9jW7OPUq8ym1XrLLP/+uP243vvNQ2rl+ramhga+BTw4U24lkImLrino/rnPoRQ2o9vdSDhbYWwtHx88/N2J1f/HP78Q9fsH37T0c9lJYmxgK+Cqadpe8qMLjuAYWqjwYI1OllW1fYpz/7EXvfTVfYti2bVY4aykMQpeNtc72lqT6VPeqdsSqvisv90jRw3gDIXz6T8QwApEGAx4DRc8fuyx3ev+8Ve0gAuufu++zZp49r/s9TH9kMi6rstbE2EN8Osa7g0b5XJP8jEel0yLb+okl769svsdvv+Lju3Gts5Yp4byfgoIQe6tDhnMFcczOg4tgB6MOnba8ePWGP/kIe0J332mOPHbJjehLmyQbian4iaqQXNJh6efpSEjfh6akx93w+e8fHNGVYL49opbIKQH7Hln7cC4snNy6JxvoUjMFDGdKt3/0BltJrkM2c7NgTu4+5B/TwTwNAoVDWkNQy8kvB6Jh1IIL3B9X3oMhSbqOh96G02DyuNa43XbnKbv/8LQLQxbZ5w0UqD8+L8iNj7IUa1WHB40OvAf3QDu9vccRUXFPF52btzj/+C/vRD35le186rjjVjeuV1K579IycEqI4pdG5p+Mmp1zKy/7SrRP26ds/au+/+XIB6GIlApTUgXYhW3s8M2S6h1YF536pGjgPAKROliG6S67OxzPhjgNIMHbMzO+UAGj/y1pTedEB9MzTx3wBMtIw8AgYVgCIfB6KEXJW7ZHxWI83OIAutts/d6vtePO0AMRnGmGgIaCKQULdSEGdqxSvpdcTUL6qR9m7BKB77rrPPSEexXt7yO8iqCX5qzzlr6KIrcfSAYPFAbR6lV173Vr7zOf+sV3/lovsQgGIFyBZ3A2gBAyoudfLZSCXwUM5ASDKZGrB78zJOXv8SQD0NXtEADp8aEaXJcE/5tTAoz8IZC9i/VzHRPEYvz76dgBpqsXaypu2rxbQPyIAbRaA1nvW2tqqM9efGup7r1/UsYIfEPDMjutdweCF5zt21xfvtR/+AAC9omqSkveZIl+AR8febv/xqsaP4lGqpsmE2v+XbmnJA/ode/9N22zbtkuUFQ8M7Klc3jECQIJqQAh9ZFiuBs4DAGGa2mQgmBTTBX8iAYD4h+3oekMDe9/+wwLQHg3s++0Z94BIwXWl5UChekD1XJckuhik0iCVs2rzGy5aaW+9cbMA9LsC0JQAxAtvkcYF8oPxegY/iasOTSQpra75I3EMV1PJANChANCug3oXSJCgiVUW8mizS4oWIL80gUp64Jxi2dZMTdk1111gtzmA1glAq3RVHtAAQBpc8kaQgia9CJcJgBAXuqXMBQDNLgKQFvUPnfRKNvT2dtzxARBt06nL0M+iugV8uIHgMellSwFxAUAftRvftQhAEuJ1KgJCw3hAXlsvh1oG9PCY3BKwBk0pK4D+SgB60fbuPez5AkC0j3qyKdR6xpl+0WLZ+ZRPSVQRkl26ta21v4/a+27e5h5QAAgPSKWrTP+zIg7wWoZLyp9laOA8ABCmEJsDSE8cFgAk88FwZRALANqrgf31swAUGomBIsPRwGPa4IPGQRZm6KUQj/lil9o2XLRaU7CNumMLQFevtpWTAChqVEZxPfMMZAt4kAqIYLDhLcSwYQp23Hb9/LB7ao/tOiQAMT2hLUVy3ZfBQX18AHFZIcrQXufUk23N1HQB0O/KA6oA4mMPrVv4FLR6QGqb8rkMZaxvHxPDkCb4Y26mYKcA0HG76y48oAN6qnhc1aCieBblzk8+6uCPv8BClS9ZDOiyxaN2AWi8ZVfs0BTsDgC0qXhA6kEHUGmg6gB40DL7aD81I1BHejw8ILQbAJqXByQAfX+PPKCDnoIF/9Bb5FHSCEFLrzeyCN7fJHD4ABcANGafYQ3oN7b+AwBSeq+m5IeAkJ+/S9bAGx5AZ7RERgqEorPDmqo54hbvO3DIHvrRSwLQ/7Bnnjphs1owxbzCxLTXQUAnjsN4Qs5gMCu9rwGUjBvWTcsD2qABc4sAtKoAiEGhfGQaeDpRU6IW1i5IxfRKg1VTRwfQwAMSgDQFe3TXy1oD0tMlxjXA8spq75WLmi8AKM7jN8ojPaVMC0DXugckAN0gAK1d8IBYI/PpEB6Q7tjukZUB4/V1UegqJC8A6HQB0H328E8PahH6qOoHVCqAeHSuPJ6N9RPkAyBi1TPoxtPHsjG6AEBv2rHSbgNA7z4LQNQjuiNE6gTRrmuu6QTZQIUr7v3oyAH0XFcA+poAtNf27tunq8CwAqhMj4psCUGa7MEr7scu2yMpTf+kmADQh+39v7HFtmoNiPrHGpBkUxfaN5C5SFZIzN8laOA8ARCdC3y0956nZRhYnGJs3IH3HdAUzAH0jQCQ3th1RpCc3MoQj+01QORJuSdQDV4nsfiIYcVGAevXrdNj+IsKgFZoCsbaCtf9VxUoey+jnHoc9cOUC4C0Dw9IUzD3gF5eAJDeXwoASQiNogTf+1GVvPikXva6kmBaU7Brd67VY/jqAa1WLB4Qg08DkcXgAYAC4hThVfUW6bjoNgCkt7VPLQDIPaBDxzxDfImOXOSQj13AZgFwAIiL6hs2h0ZPABrTGlABEB7Qxg26Jk0hhOCAUbY4K7/IcSzonMIk21MIBzqNReiunoItBpBnUbqqS+09X0SRPcpQfAlhX1HO6wEI+ASAsCUEILPkXxBTxeV+CRo4DwDEMK4Gpxa5tdPbMcCZtvhAdwDhAe2ze+4EQKfkAfENkK4ruX+17gbDYOCcu6gCd2vfdC6bIs73nqkhAG0UgC7UU5uP6jH3pAMIy8VMXXDkQCLSXJZPvbxegJFFYAZrAAjSvOKL0HhAX7fHdh3WFGxW0W7+SKiiXHIRG8deOV2OovwSdSVMT6/2RWgAtNMXoVcrj74r87LxgAQIviDnqVhZtxisfQEPBX+xU/VDQ5SxAKBFUzDF+52/wId83iV+oHKQrYcE6L1WdLFeA0Cr5AH9jr1DANoEgCSgtt6Vr9ylWUjVNWQBOO0LfMLLkmUoDgi9sMgD2oMHRBZtCPL6+gKz6qb8MdWkzWFDJIono0qsTLEGhAekNaDPVg/oEqWuHhByaw2pOfWisAzL1cB5ACBAAYDYaqCzWVCVAclgMIDwgA7aQz/cr4H9P+2Z3TMBICXFVGJ6E/kwaO5gbjIaHYMnQSXOBwMfuMroA0AXFABNlEVoBJLbJZR9GGSsqcQ198xktO4FCQb+FgsAGnhAFUBaA+KNbEnCsF1qse/B8VlFRVoyhO1PTa0UgC6Mp2A38BRsSrLqn5LA+5EABxAL3gxE3rthECI49q8F0ExZhL5Pa0AsQp+ofPBstUqDsYinxXRTgzEG/0JbSAuIJsbwgAqA9BRs06YAkC4r4JXSstL4ugc+1NH3JY2DSEhQ0rMBxBSM5vZ5Y1UXG/40ju/blLgALGpWAKQ4v0n4VLkCqCkAtQYA2ralPgXDC5Ik3cBCHjJCf4rIsEwNnAcAwlRKZ9M4bFOD2O9eMsgAEFFMwQ7IAxKA3AMCQLNKDmDICHRAD2sVGJALUjTXOY4NDHDqj1g1ZVkA0EfsqmvGYwrGdeQhtoJoIANJlOCS9Itxk5JFU8Wr7q8eOW6/+AVTsK/rfSCtAfkUTKmiYl4+oj14WeWY6wTFRdl1wOMBTQpA6zRg9Bhe7wEtAIjaSF/uAVEGAAISeGV18MQAYiATx8e26GfmFABiERoAHbCXDzMFo3yv6OCmHwBSnNaGQr68DDwCXfAqK0/oFABNaA1IAPrcLfp05GIBiPeAEBp97H29SJdci5uH2qr+PuO6ytC3tQGg5+cXTcH2F4cp6oBonzYiayAb2wk7Cmiij+h7dMDNJzygWIS+fAAgaiM5WtMjfehQ5dDeDMvWwHkBIDcMOh1TVZ8zSQgPiPMwX5h0JoBOLnhA2IbykRc7qR6Qa0vnmJEi+R8DhXOMVnfO9es22dvescZu+/yHBSB5QP4UjLskiTyH76ldifR6co361nUlLg8AdPSYvix/RQC6X4vQr2gR+hSfiJV8dRBIbCnD15v8zh0lerQWd/0NX/29G+7q02vG7Rp9gnGbA2hDARCfYlALKQdoyC0IQNRPSSqAVLhSBYB4ZE7ZFUAn9MmIFqEfAUAsQuua5AUIOPak+qEkvskLwHkyLzvSUH10NtleaVdoDeh2vS5w47sAEJ84AEQlcA2VhJ4XKWg24EMZ0dvSpITRMurM9sIAQHoKtv+AA9D54uJCp0jzoPZhCw4PyQwAIVNRxEtXASA9BbtdALp5mzmAlIknsGitx19lILEyUQ/+Z1i+Bs4DANGoYjrABuNgAIg4Dh/iZBQBoP2L1oAEIH19qstujFgcRvd6APISdKHCgoES44Ep2GYH0O2f/5DtwAOa1EeJA2tz4cpe6uD1ZIUBawzDpLYOEOrp6cID2iXP524H0KsCkKY2DqCFpro902y/6wMI7rghOTwC/jaQ1lyap7V1BaC2HsOvF4Butev1TdiFF0wrb6xZOLBRhANI7+O4B8Sb4AwlZLNpeRUGSJG8K4WyZk6dssefAED3l6dgr5LAB2d4UH6qd2K0F3z8j+bzvg9/0N8VSOoInDblhU2MrYxFaNVzACD/Jov60L6qfLSF4AogFLQYQMgVulTPBQCVx/D79Rie6ReFIw49kohmka0E7CHaDgB1WNJHnlY8BavvAV12qWvLkS2BCwAqMsmbYdkaOE8AVNolgwmIMKzxAGSubAMAMQWri9B4QBVAkd/z6tDHlw8aTmLDFv1QB25Luo7hrl+3QQC60B8bX3WNnoJN6uttpcXsAIHDRTk4C0v3izqrFlkBxPBSTg3whSkYHhCP4asH5GJDgH6r7IWpR6m0wwxosOjLnw2VBzQ9rilY8YC0CL12zbTyx3M3f0cnxnKAQenj7yxTb+pJi+KJUsBdcVLWKU3BnhCAmIL5Y/jDR3y0oX0/qL8or4DMF7l9EVqRqIRLCuiS9ky2V7gHxAuT71jkAcXf/CGlC/M2cQyEArh4caA/rp/pAfWLB8SLiPKA9h3ym46KizrQ8WQrlSklUJjbT6w7+an/UFcJEIAm4kVEvQl9+dZLlV1Ax9a47B9CK6GMKfp+IX8eLV0Db3wADayldLTahgGc4QFxrjteTMEqgMpTMCUeiOBA525ANdKFKZ6gOE4xPn8srPMNF6098z2g8ikGj2NjYDAcuS8isAh1IXHmg9UvMZR0Qa5OLELzFKwASH9pEA/OcxcRVMPrQR5GknsUMn5OPU14LzzpQjPT0yvkAQmUWlvxTzEEIFyTGDAhPPIps2Toou+j3hxWAJ01BXMA4QHFFMwHJ9k9qORaX5epSCeNSy8/UZxHK+3CGpCmYHyK4WtAsVA/kIkYr1+hJhWmT9iHlkpSpmDFA3quozWg8ia0PkqmWixED+pLRK3jmVJcll8qbanHl22djG/Bbrrctm3lPSC+hqcXVTs8KkKVOSgoovN3aRo4DwDkplhaQ6fHIPS7toySAcCCJ9OGfQf0FGywCF3WgBbpgbQ+vZDRxCK0Lg4MyEXrAl4Nrj5vEAtA66f0JvQmDexb7So+xVjJt2BMbcpTJF9oiKHhGVQ/N83FBglAFOn+CB6QPkZdeBO6Pob3JOUnJHnlBgOvuGS65PI9icpVo2jC9JS+Bdt5gZ6CASC9iAiAokRdR09RB/I6MCGZrte1F/Tp+pEnE35GWQN6QovQdwtAj+hFRK0BkWtQAemJ7/D0F3oEUGRxUUGyXQulog4fonXOY/gr/Fuw8jEqa0BlquhAp66qAXXjKOqnUw61GwQ/YQqmlNoG34J9X59i6KPkii5P7zpExFlCqkBF136PP/nhtwp5QJPFA7pcANqsZvExKsBXmymAGrkM5CIkw3I1kACqRsh+kSEmgBJACaDl4mT56RNACSBZDbfz9ID81Qt5tmWynB7Q8nmy7BwJoARQAmiR55tTsGUzZKgMCaAEUAIoATQURIbJnABKACWAEkDDMGSovAmgBFACKAE0FESGyZwASgAlgBJAwzBkqLwJoARQAigBNBREhsmcAEoAJYASQMMwZKi8CaAEUAIoATQURIbJnABKACWAEkDDMGSovAmgBFACKAE0FESGyZwASgAlgBJAwzBkqLwJoARQAigBNBREhsmcAEoAJYASQMMwZKi8CaAEUAIoATQURIbJnABKACWAEkDDMGSovAmgBFACKAE0FESGyZwASgAlgBJAwzBkqLwJoARQAigBNBREhsmcAEoAJYASQMMwZKi8CaAEUAIoATQURIbJnABKACWAEkDDMGSovAmgBFACKAE0FESGyZwASgAlgBJAwzBkqLwJoARQAigBNBREhsmcAEoAJYASQMMwZKi8CaAEUAIoATQURIbJnABKACWAEkDDMGSovAmgBFACKAE0FESGyZwASgAlgBJAwzBkqLwJoARQAigBNBREhsmcAEoAJYASQMMwZKi8CaAEUAIoATQURIbJnABKACWAEkDDMGSovAmgBFACKAE0FESGyZwASgAlgBJAwzBkqLwJoARQAigBNBREhsmcAEoAJYASQMMwZKi8CaAEUAIoATQURIbJnABKACWAEkDDMGSovAmgBFACKAE0FESGyZwASgAlgBJAwzBkqLwJoARQAigBNBREhsmcAEoAJYASQMMwZKi8CaAEUAJoSAD1TQIaCIngJrVwqsizjMzTRoI+u0ZDKRYyRP5eERZ5SedplNZT+o/yDc49QZTVJw8bccghcYnj2qCuNV6XRxQSQPQLofSX9Zvqn5ZOOx69Yf2UvfXtm+y2z91qV715ylaunNC1rjW19fVLejJXMXQ23brQyTqm0xXZU/p+o2mvHj1hu35+2O65+z57bNdhO3ps1hQd+TwzAgjkQzbSZUjFcBaS6Iosk6vTU6vs2p0X2Gc+d4td/5Z1duGaac+jEj1/v9SBvA2vR5WJgbIppS42rKUjjLxvM6dm7PEnjttdd99vDz9y0F4+fFRXFGoFpKc+m82r/tSPiwo+KJSopKPaXGI/MT5mV2xfbbffcYvd+M6LbfOmdYpHnz0lD13Gvue1iAGkzEUG4j14WeoJxfe0vfB8x+764r32w++/aHv3veItUnQE1yEizhJS60vC0u+mfm0oN5cu3Tppn7n9o/a+my63bVs3q1nzqqHaKh31URmp9L+vhvGvivP9oPCSzhOqfQDBoYAAleT9p35ElIQCFOK7vTlr6riBYei8r2u9Xs9arbZK6llXDW+1sNMWBSi96ubp25IpGdill0V7iq26HPWu29HiCnqNXc65/kkAVd2zX2SICaAE0FIA5GN9EYAwIzepMr7drPwmFSABcP1GV4m0AQTRs9kEJECkYy0dwKBud95aTU4EGO4MyCORAykA1NS1hvJyod9DJodtEZkbg/ZN3UQFzYag6TcYwAloBwCqQnXZM7M/tyEBRKcR2NMf5U6YAEoA/X8DEJ4dpHIPT56MIBReEJ6N/NECoPkOXo8u8SOPJwAkz3RenhGgId6NFG+IQ3lI5FV0Tx4QYOmbwCOv1LemwOMAwpvHU8XLBXYy9LOnZkoxipAAok8JtW8TQDJTTDQBtDwAxbQNM3KTcuBUs6oA0pWSgB1A6DF/JFL/e92etdtMgfGWFN+ft67gw7TLKSModeXpNAWiRlNxpJN3NC/Pqa+0TZ028IDwuNgGADrTA9JFhxX7CNRmNCEBVHXPnv5IAMmsE0CYw9IAJFS/3hSM8YyHws5/YzUO0tR1HgDUFXSARhN6CDC+Dse6kGeUbNkkUy0nVFnZ6mvNDJmtttZ7BDCmbk2twTXcq8HLkSzghPfT6CjlvNIjIzwgoU7xbuyKI1DYaEICqOo+LCUBJENNAIU3sxQAMXZxdvAY+cWMfIrDeFZUoDxiPa2nWIDRvACEh9NyQJi8mXnrdQQNEci9IU2xBl6SBDItAzgdeUbt9lgUzuJ4k7IBDSBDPhDSArTWmmIROqZlgCjqtxhAVJrzcx8SQNgGgb33iYafz5PzKVg+BVvKU7AynGU/dWDXPQYVx25hbmDgYF5PsJqCTlMwwJcJLyeeP5KHf5gjNwJ/YqlfVo568nzaWoSWz+NP/lg/IiXgaTS7Lq2u9bgHhKejDY+HtSHWf1gbqibvtXLw8GQuAeT6eM2PK7nGBrXdPXXSqwMU1VcEd4x9Bw7aQz/ab/fc+Q175qmTNqtFvcVqJa27v+qBPieE2hvsicopmBs+gyABtAQASVvhAQECDKhOhUBDDP5iWLrmPoliw0NxC5Qddua7vrbTZhrmQVcUj60yNQNCna6gw5OxtjwjFqM1LZvvyAtqjckTQhLrPLHYHChjykXgGr1ZAdSWvGL0VNyfyAEg6nruQ3pApS+8T7yv0gPC5BNAS1sDEiVcVz6WdcRgDxBxzP2t+jMFBf0xeS9j9uqR03bk6DE7PTtvs7OaUmnv60DkgAXKDoB4D4h9V2s9PU29WOcZazcFHdZ/zKampmzt2klbs2ZMXpVuuPWxvvIAQwQN3rGS98NZODvV8ClI6dIDkq5eL6QHJJMsxlSMJEwbZekKd0od5YuIo3wRkSlO9EMAqBiybJe+YdDHVXkynXE7drxn3/vez+273/2xPfvsATt+vKOnXbxYCHwEGk3R2JrARx4QLysCJ9Z5uvKE6H/STq2esKuu2mZvv3G73XzzW2z9xhXyjkiPJwR84nE/a0DYChvTNo5eExJAr1FJRCSAZDCYzMJdKgEkdfgo0tCSMjRmR/gmtNAjD4J1mTqwmUgBHX8UTqx7HuF9HD/Wsl27XrRv/s2P7MEHf2L7D562uVnJUPf6YrPa4nJ4ktUDXKWt8miaWmzGU/F3gBS9cmVTb5KvtetvuMz++Sc/bFddvdEuuGCVyhOA/P0f0rMQzfSM4NIGh5QTMTryQuPSufzNKVhVfO2NXAPCSZdh5hrQ0p6CVQDVqVcs/waAMCp0WR+BN+3QoXm7/77vCUCP2E8e3qP1nxjupOzMhZ/Ucm9HUzU5Lj1/70dPwnxe1rH2GF5MQIhZ1pg8oS3bVti/+sNb7Z3vudIuu2yj1oVYh+IRfHhBPAmLsAhARAxOJYgKjCAkgKri2dMhCaAEkLxNzGHpAALXZ0/BJEHeewAoFp1B0759c/Zf/8s37cFvP2q/fPJl92bEE6WVhGp/eE9AS7YIbAAN8k3v9DR9vUaXCYpiPXrzxRP2zz55k33gt3baNVdfqWlbff8HANVF8ZKBTB6oWw2Lj2vcudkngKru2VcD8EeV+Rg+n4It4SmY7Gbxi4gYUZiUXyjDPdaAuPLS3o796Zf/2r7zncftyd0CkGwOyAAfn2rzDRfTr7oN1v0AUUyt5CBRjG+UtUkA+oNPvNt++0M32M7rd2iWxmI1LyCSCACVxDqLjOyjlhydeRwx5+o3AVT7gb33E08JeFciAZQAWiKAMBy3IwyIQ/aKGKxfKkZujANoz7x95ct/Y9994Al78qlDASBdYYblr4g4gMgLZdgQE3LxgOKdH6UlShvFOoD+qQD0wZ12/c4diqwAIk0BomfAs8OXIhcboe7j7Fz/JoCq/tl7pyaAcg1oOVOwGLIBiQDFawDk8MG85AHt6QpA37TvPLjbdu/e7wDiKRe25396Qzc/wOXwYQpW4OPYcLCwqCxfCa9J0AJRmy6RB+QAus4BFJ4SsCrBZVO3swE0SFFTnvN9Aqj2AXv6SJ2eHlDcJ9MDWpoHxKitfsXANWH4Vw9oAKC+ANS3r3zpWw6gJ3e/5PmYhp0NoMEiNmL4p31MqwJATOr0YvQiAL1LHpAAdP12T8dLifH01AUorgKIJ3ZgS/ELiNLxaEICiH4gsE8ASQ35LRhvMGMOS1uExngCEu75uD1hSDrQzqc7fghGTACyAqCntQa0R3F6ouV2pxwCVfwpDSQiCMwoKkQVAKluStc8wwMaLx7QtQKQ1oAac8rNEkLIQEA8EaNdLExT0wohnY4wJIDoIwJ77+30gHIKtlwAYTgKZboUhlQMCy9I8fGvAujb9p0HntEa0K88fgFACBEYKnUAxcB7AiJ6uuWLyosApLSbLhWAtAj9jz50rRahwwNq2FyRFaBJAKHbXyfQgYN83jPqCCLoKF1TVH4Llm9Cj/JPsjoxzoBPNdiAUMUP1vvSnoY8oAcEoGcFoOf9CRg+CaEgy8VxhsgAEGtBXAVA8qkWe0AaA5suGXMPCABdv1MAauoPmwlA/v4R60g6i3eBACvvBEXcohIpfiQhPaDa6+ydb+kBpQe0fA/odRehfUiDjOr/9G3vnmYB0HMC0HNnAIh3erihuh1qFyZJ/gBQwGMRgHwNqCUAtQSg98gDuiYApClYUxsAir8NxFNdJS5/miMB5B2zxJ/0gGQ8mCLPabHOgX3qiLukrzLkt2DPj/ZbsIVecVxo8NNnbFzhXxwFgB7Ui4jP2e6nnvH46gENABRJPXfwqHox8dr0wAMCQHpsv+nSpgD0XgHo6tcBULzQGJ9k8LlIekDeFUv+SQDJaBJAjNQYzsVy/ETDSfGsoYxuCia4lDUefBVwAy6obYVQACiu7d3Tsq/8ZwHogecFoKc95RkAonlK6s3TPnJxpiUH92AQXdaAuuzHBCArAMID0pvQZ3hAAEibfxMGgIBYTsGkhCWGBJCMBgNMD8gHZTUbP3njAMj7J7BRfmtFgUh4QMAk1oAWLULLg3UAAR3Wi0lUgq8B6biCjD+bUZodzrCbRMs2+xTsvXoTOtaAmH4BIUlUZtZKgReJyc+fNkNK3aIwlxuH5/Q314Cq5tn77SbXgHINaDlrQJADwICRMqh103Sz8inzAnwwL38P6Mt6D+iBp/QYfl+sARXoxMOVYofaLYTqTalepQiHE0xRos2X8BTsff4UzBehiwck18xFNLiJe1106nWN+AX5IWfx+bk6TgDVvmCfAJJB53tAy3sPCAABH4xHUxu8DaZL7mfENTcraZb9S3v1JvSX/lbfgj1pTz55KP7+D6AgKYtAhMUr0R5RjRQJCjolhmTsN/Mm9Ce0BsSnGDyGt1lfhHaZ+vG0+uXIJRChABrL4WAfV87dbwJocQ/QOzKgfBMaQ80/x7G0FxGhQALo10VWAigBJNthAHH35o6aHlB6QL8uTpaf7/8AAAD//6v9SDkAAC1kSURBVO2d+ZNkx3Hfq4+ZPbC7OBc3uCSIgyQIkCApGZCCtBwKyiGBFuUjbEqW7d9sKwgERCv8P/gH28ThcPgXmz/4CNpBSqIl0RJl2qRs8RB4CARAaAUChHBocRLYe+fobn8/mZXvvZmdhWeajcH2RNbue/VeVVZWVlbm92XV6+nujUb/YlLO5zTplVZArial10Pgvi5Vp6KJCno6jrz4Unnomy+UB+/7vfLkEyfL0spyp63oRAtd0f8JNyTjVXNj3y+9yUDFK1Z9+cH95fYPXlnuvvfj5eZ37S979+5S3Ui9j8QbGXSoJNiowPvsVf5wkZwUjkU/6fXLa0dPlEcefqU8+MAXymOPvFKOHlsqKvZ2nWYuKLzhPtatV7YkqtE4qD2w/4Jyy60XlU/e+7Fy2/svLZdceMDaqEdrP6ky0LZncgRP8YU3ZarslYGu0PmknD51ujz+Z8fL/Q/89/Lt77xUXn3lqGqUQgDpacJRViU/8lGpJB2bFiodYlNFvmtxoVx/475yz69/rHzoJ68uV115qcrR51htXJeej02K0kM2pcrDb3S2vjQTKh/r+IunV8r9//o3yze+9mx5/siPbEQq9qSxQ24yhYzUxDWEmkfmvWhee2pN1bWHdpdP3vML5ac//I7y9kNXaVirklBjlY4mJpaobHDcwAQdMgaOVn5jr1bkf/n8qHzm33+pfOUrh8vhwy+Lz0Tyi48qe/0qkNkm1JFquXFQGd0q8/kq5aprdpW/94mfKh/9uVvLbbfdqLql0u8tO0+1MVqduTKulR36qJdNHj1uV95LAKqq9lnSpCUAJQAlACUAhQb0dGifBVwJtQ22CRlUp6KMgDICyggoI6CAjNnmCUAKj0FcljgOxS0g5xIsl2C5BJst4KznlgCUAIRNCHVjv8JMxG5yDwg15B6QWcSbdEoASgDCtBKAXAnoQqgD8OQmNMp4s1MCUAIQNpYA5EpAFwlAaGGbUgJQAhCmlgDkSkAXCUBoYZtSAlACEKaWAORKQBcJQGhhm1ICUAIQppYA5EpAFwlAaGGbUgJQAhCmlgDkSkAXCUBoYZtSAlACEKaWAORKQBcJQGhhm1ICUAIQppYA5EpAFwlAaGGbUgJQAhCmlgDkSkAXCUBoYZtSAlACEKaWAORKQBcJQGhhm1ICUAIQppYA5EpAFwlAaGGbUgJQAhCmlgDkSkAXCUBoYZtSAlACEKaWAORKQBcJQGhhm1ICUAIQppYA5EpAFwlAaGGbUgJQAhCmdj4DkAnH17IKGcxeQQgJbImcL8b148jzy+U//ccvlf/95cfK9x9/tYz1laz+9a4ig1Tftse/+EpbvjSVr9A13nxdLF9RK/Yk/hq+r69xvfrqxfIrv/rh8td+9rZyy7uvV9my6HQYw/gi1vhiP29s0lU+dNxcOuttO+dXsobmyZmV/EpWmbs7QH4n9Ca/ExrDie+urq5rDl7delKGsiu+P3tYXnl5ufzu7/5x+f0vPlQeeuhIWVlx5+e7ypfOTMqCSBf0vdmrqyMHJ9ljvzdUWwx0tQyHfIc0depSuDRc6JVDb9tT/vE/vav8lTvfVQ5dd7AMhvr28T7fac5XywKMLo2LFgbPXRg9l10ap9yOcwJQzEfMRQJQApA57ua/lD4ijYmcOBzev1WaqEeGNVkQgCwoXywnTo7LY48+Xb70P/64fPnL3ytHjpwpK0vu/KsCo4FAZTAYlhUBkIPOUNigH0kQCPX6q8KEJQGQR0F7LuiXq67arS+iv678yt+/Sz+acF256KI9Fv0UAZDLUqOmii9u7pLYAE13BjyqTAA6B97mEkyGhNlgdG5F1ZZUphrF4dTmr2K8Rb+Kgdm6V+vC5wjHJ+6I1ERAioRGK4Ny4sRq+drX/lS/jPGt8ueHj5STujdMgY8egPxiy6pCHOa91yNy0iJMeX8wKaPRktUPh/2y/8BCuenmK8oHP/Su8pGP/EQ5ePmBMtQPe0wKvwYDAGEp2IdyAxyzmBZ8VOORm+oTgGK61uUJQJihlJIA1Pg5JmI358FXspogCKPDlmHMEz8xhPMDQ+S+/2O5lmHjsUDo+FJ5/fWT5dix02VZkQ8AxJ4OB4mf6JmoMMCH+vGECGhcFhb6OkQ7XhEI7S4XXbyvHDiwV8suAZ+WZ4AQ/Ya+zH4MgFQSeVOrDgGfdUtIOGxHyiVYO0vMmY78WZ7cA9rCz/LYBnEAzMgcuddTLqDwJVAbDTm26BfQsDFFNADS0vJqGUMuEOj3PfrRLo+iHeIWUElU2uwZrYqPCAdao/U5RD8arQhsejoMcTDeerhR+4OLc93EVr/YtzrTQSJXG8AnAcg0cvYpIyCZCYaCkbgJ+xlVqSaXYHLot/CHCatzW7xhTizgiZw50+Fw5vAA6Gh7R0CyoJ831F7PyPd6AJUhyy2j58cRmV2Sn+FCRDTUXhDXY21Ie7jk1sBvGjrUrF8AUuo82uin5WtdGAi1VuVl23POCKjOjc0Rc5ARkFyEp2/+MuqmfhnVDMd2WYQAGFAAEJAEAFkco9xp+FVVwY8OIiHV8lzpD8qAV1pKIy2zRqv+BquvfZ6BQAm4MbDRmzJROo2Aa+BrLbpo2nPjyz9jZ6cqXVuw5iocYE3htt0kAIX+yROA5Cb508wAB+awaQASMabj4GNGpOsuAMENGPAYRbGO14rUl0eADzcWRxmfkfZyjJ/OCql08h78c0Zca+ll4CSA04+j8Rq/b3Q0CAiCjjrPqbH74GV0sSSjj+1PCUCh95jjjIAyAtoKAFX7cXjoOjtg4o7vcBaGBsCz1FKtqnm7RT4as8Gsz/VoKeagpEhIy6yx3oaxNxTmOR5xLx5qB5wBNSOVjcWEvSI+mEhyCPL+raQBoZArqBKATGHnPOUekBkaT8PcA+pYiXuVliPSjI637qeZXSYc3gDH5HLHp4ayNQCkBxxvtgAdjqE+80OyvR+BDfs8HgmJn7CBqAbQ6QmEABijVTsAR40MjHoqB6gsNVGQUeokIh1tFJQAZHra9CkBKAEIY5Ef+bO9Ws55BUAIh6OTIu9eh+QAj67Npr3MhxHbxIIxAZBiGuNjAKR4ic8FOVvFRop++CAiUY9HPHxIkY1tPnDI2zU4evzjjZAnAYjZmC4lACUAYTnyI3fZakbuuedJBIRwOHqk9dchufJqzwYWIo/IxcEGOgCIaIYDPr5vBAiNFOUM9fYMABqzCa3oCT5QAUgeJXl05W1VEalZgkVBNw/5umXbc517QKF7cmYy94ByD6gumja1CW32I8NZA0A4L8a0UVpncEQ3JLVnuebtAny4h77u08StSoy0u9xS3UT3vi8U9RCSok+/a0WjHKZK60i88M0/JwCF4mMuEoASgGYCQDhvde5z+nEXdKCNowtAgE8cMDoXz64hQ0cC0iivR7Oa6NJ6n75HZI229ZQAdNZcaB3NH//pb2lIlx/cX27/4JXl7ns/rj/221/27t2lupFMQh8gwzAEWExwsMFAzES6T0RNPIVatesp1S+vHT1RHnn4lfLgA18ojz3ySjl6bMk2HK2dnaxr40vI7txllJVnS6IaPUHpO/8W7C36WzCb+Jib1gpiBpvcJs3rY/484oFCJXVu2ygoqMLGsDPK4tClsQs63a9LbhkUQqgjAWidhjZz2ygNYle+R55MjKZLRRZ6qvDIiy+Vh775Qnnwvt8rTz5xsiyt8Ed5bYLWNumYiyb0rfXMkbFPAOKlLzCaX8exla/j6FoaNoVBKTX2W++jXFVR4oZnxJzWJVHxkOMwkDIjFQ3GHBDTlqk7Sz6D0QM5fBze2p4p97YZAbnezj43SqMqlMV1AhCGlBGQIkuZxVv3Gl6d259eYJukjtM3tlsBwECgS2MNNjit5WGfC7JIu9vX2dcOOpTD8v8nDzQQQicgqxEYpduZcgnWmWufi4yAMgLyT+5sbhPaHTiWUO681agaAKI0DO2N3LtL0/KwJbh4rY2A4APY1P4rkKwFH2iCp3KRRszUljufBCD0sFFaM4mu7FyChaIyAjo/Poi4bg8IsDhXaiKN+KxOEHbbcO2AcXYtPhCpXjc8Ke/Wcx98a77GnyirkLSGB+22J2UE1J0fw7eMgDIC2koEhKPKcHDgNc5dXb9x7AAGHN4MzT7pU1sr6xoipdwT+3i7yKnZWgq+tKrXbyjn1rj/uNQJQDE/5GYXCUAJQLMBIJzTzGoNCDn4dB03ICZAZ22OLLyW5yB1DdZL2rK436gk6ry3uHsjypbmzbtKAOrOZwKQzDv/Gn5Lfw1v9iPD2SACatz2LACiJoAgYhsY6cWKAYyubRmn3Da4+X4g/jyDZB3WnOvuvW6DrS7jxihMhqj0nJ59AdblYw237ZQA1J0/5kVvG/JzQG6a+Rp+M6/h8VUZzhsCkNP4rk+AAGWRMMIKPva2y+8Bh16Pv5KPI4Ai8mgDH8ribJc6mUFb7pvMfu+QF3X8KUcAX7TbvjwByOfNZ87mJAEol2DTLsFw3IhoOk5sNhYOH+Xch/FRFmBCe8prnSIgj342WoJVOlgFPZdNsgrdieO6CCikbPvqytIweNMvEoBC7+RmIwlACUA/DgDhs2FU7r/8XM/ZibK1dHZvpFGuvPmMUfCIOjjW66g6uxMrMapGho2IuzzPweRNKk4ACt2TMze5BNOzmOdjfhJ6c58DwjNlOI2Dc59psxpIAEoAkq0Q3vO9MzxTcxN66k3ozXpd0jUaSABKAJIxJABF5Ktv1hEIT7kEa9wqLzargQSgBKAEoM7SOwFos9AxG7oEoASgBKAEoNmgyRRcEoASgBKAEoCmgI7ZNEkASgBKAEoAmg2aTMElASgBKAEoAWgK6JhNkwSgBKAEoASg2aDJFFwSgBKAEoASgKaAjtk0SQBKAEoASgCaDZpMwSUBKAEoASgBaAromE2TBKAEoASgBKDZoMkUXBKAEoASgBKApoCO2TRJAEoASgBKAJoNmkzBJQEoASgBKAFoCuiYTZMEoASgBKAEoNmgyRRcEoASgBKAEoCmgI7ZNEkASgBKAEoAmg2aTMElASgBKAEoAWgK6JhNkwSgBKAEoASg2aDJFFwSgBKAEoASgKaAjtk0SQBKAEoASgCaDZpMwSUBKAEoASgBaAromE2TBKAEoASgBKDZoMkUXBKAEoASgBKApoCO2TRJAEoASgBKAJoNmkzBJQEoASgBKAFoCuiYTZMEoASgBKAEoNmgyRRcEoASgBKAEoCmgI7ZNEkASgBKAEoAmg2aTMElASgBKAEoAWgK6JhNkwSgBKAEoASg2aDJFFwSgBKAEoASgKaAjtk0SQBKAEoASgCaDZpMwSUBKAEoASgBaAromE2TBKAEoASgBKDZoMkUXBKAEoASgBKApoCO2TRJAEoASgBKAJoNmkzBJQEoASgBKAFoCuiYTZMEoASgBKAEoNmgyRRcEoASgBKAEoCmgI7ZNEkASgBKAEoAmg2aTMElASgBKAEoAWgK6JhNkwSgBKAEoASg2aDJFFwSgBKAEoASgKaAjtk0mQsA8qGCFBP9G5eegUa/TGQ4k6KbyaCU3qC88MKr5aE/ebb8m/u/UJ78wbGytIxlQdPnZPSl11d7+Iyszut1FptepSuTnmhGFJWDB3eV2z9wbbnn3r9dbrr5orJ374LqVlVDPX1DxeF9WS7+PcnpZZKz0o3LUNcL5bXXT5ZHvvdiefD+z5fHHn2pHDsuXrCy8aiZ0UvmmuBe4Ce+3cQdVNQf2L9Y3nPLZeXuX/94ufV9l5dLLrpApSuqQ04fv1GbvLVVbyzxkVM61T/42ZhEP1Hx6dNL5fDh4+X++3+7fOe7L5RXXj7hOhRhT/ouZaB72qkf+NCNM1Ed4qpOR28inZdVG+OuxV65/oZ95Z5Pfbx86CevKVdecZmaIaPmQ3RIwHy5NMgGQw6vUUWTxsipNqNxrzzzF2fK/Z/+XPnm158uzz1/vIzVxPk4J28kfut0aOX0iw1pPMjZt/kt5dq37S6fvOcXyk9/+Iby9kNXSv5lq0efNk7GZfKos434eqd5fgMNzAUA9WyWmWnBz1iGLHvpyVhWx4ARxrqo8gUB0Gvl2996ujz4wOfKU0+eLMsAkCxlMpHjyxEwyj705iircruRGRLGNBgMS7/fL6urK9aGLgeDXrnssmF5//uvKfd+6hPlxhsvLbv39EUHYIhOPbv9uWxuhAE+ABwOVB1VRjuuch59fak8+uhfln/1L/9LOfxnPyonT44lv4SwNJCcXSeEH3UbOw8u2+/3yr4L+uXd77ms3PvP/m55761XlAsv2qWx4jDLUBigABqD3lB9IS96EACF86vEgFI5QLC6OinLS6PyA+nx05/+vADoiADoVFldgaov3SyUwXBYRiNxGJ8WO8kotuhS01IGEmzQXyiaLvU9kIxLalOKmpS3v/OC8hv//G+WD/zEdeWKgxerGQCkRho3crleGXN7mA4MLKnVeNRmZST6HnM/FACdKA/c91/LN7/xVHn++aWygpwab1+dTrABceOhUeBBN16gC4xBgslGyPu9JbVZtTZXX7tbD567BEA3CYCuEO0ZNV1WHW0khfi7bYpny1DXmTargfkAILMYTBBH1RNKwAAAjXhMm8HultXvLq+8eqo8/N2nyn334dhHyyk5tkhlGwtqq2fbqgCrPzRHGOtJh0HylKTOWIk/TuLO7gB0xRWL5QMfuK588u5PlBveeVAApL77cmpzbmjdnt0A4YRMgI8DkDiKfwUhyTiZ7CnHFfE8/v3nywP3/2cB0YvltR8hizgIGKD1A2CFFyDrefcpy7BIpgn5w0UXDRQBXVF+7e6/IwC6ulx88S7VntRxWjQCTYu+cG4dY3hLJgFQyAoUUUuif3B4RccPf3hKEdDny0MPPVNeOHKqEjAO0UlpEyF1r68IaKCC6tg4vJjoEPCP5NRFYDg4qaJR2SMAv/Hm/QLKXyq3f/C6ctmlF6oZEVhEajART9obE93Z+Ct4UKxyWYKAb0HAtld2sFCeefpo+Xf/9r+Vb3z9BwKj02UkAJ2MpQOxY5TGTlFtqdGNs2FeNOoKPj3lvd6pOr+KgK7bUz71G79U7vipG8u1114qyiXRL4mX5gkAkk6F/SYNM5dp6xqYAwBiULhZNbuRIqAhk69IQZOOMZTJLp13y7FXyuOPawn24GfLw3/6cnnllRXMS0ZljcuK/JzoB5Ah4OjJejwakrPJYMeyz127VCZ6jqHQ6/rr95Y777yx/Oo//Fg59LZLyq7dMJNnKgIyqdyyrQNq3HPcoTB9rvBHooqJZOz19pSTJ8blySdfLJ/5D79V/uShp8uzz5ypDu1PavjQxPnpwq+4aMZi1/VegVu59urdiijeJjl/vtz87qvKhfsBXUUmdgzkKoumKyKWnqIgAIgIyAFI0SBCqkP0BQCNFV2sSl/PPnu6fOYzXyz/548OlyefOmmRDWA9kgKXlgRa0tFQy6o+vhyCw1W6HEunAMlQAvYFUERVlx5cKO+//bLyT37tb5R3CzAvvHCf+kQONCUGNQqysaMEpRaAHUrswSN5JxrTEADS6J5/7lj57Gd/v3z1K4/KBo7aXI4UBa1KTqIUY2vMXIc2J9zThw1dJ66hVbZHD5qbbgIo/5Yi4ENaiu+XnHr4KQJCUuwHAMoISMr6MdKcABC2jVmMFXbLCARAWkzYsGXncl4tB+TYywpMnnv+tfJbv/k/y//9o8fK9x8/ZssbnKABHSxbB2CkVZfK5WhySpYxgM7yksxLF4tyqsWFXvmZn7mu/OIvfqTcced75SxqICMc2NNeQCgTDIcxYZoTPNypooiYQ/BmT+uVlX558YXj5Q++9LXyv778nfKtb79Yjh1VBCB2C+qTJQyjJdFqfbKySuCA2it33nFF+fm77ig/99fvKBdfyj6Vll86+gaUivq090S8N1ohylM9zlMByJeiuJWcSicASJoxEPrRa2NFFYfL7/zO18tXv/oDgbx2slSNnOyxGZCrDVtCXOPYAKJFlBoHESh80S0iv/e9B8rPfvTW8su//NFy8EqBoghZrlFrAAS10MKvKWZeHHiYf6rR+0jzQIS2uLBPpYNy7Niqospny+c+94fli188XJbPjMuZMw56Q8mKnpqEQKSqwzU5/HXceOO+8pG/ekP5B//ornLNNQe0dNSOk3SpuFsNtfQE2HTHQ8za5x6QqXSrp/MfgMwwMTqeeOw3KPLQpLOoIOFU7PH0eywLhuX4iZXy54ef1ebuU+WJJ57TMmxF4TjRh8xXnj3QoxpjXB0RxeAsupHFsQfD0gHjw6YAn4sv2VduueX6cuttN8gIFf3sUsw1Yf8HI8Rh1db2A5BFjZoDh8FZMFJvM4Cpntgrq/Q1lHOU8swzL5dHHnlST+ynbGN6NGJ/SbIibDiHLi2MqPdwsX50z/VgYVIOHNhV3vWed5Tb3nd9ecc7rzQ5BaWq1xjZA9LexkB7JbAgCulrGUoE6Usw4kj2wtzJGb85lupZZpw5MyxHXjhRvvfwD7VcfLK8+upxLc8Yr0dBUANkvYGivYkiKVRDWd1vKtr/YWkzGK7Y8vWGG68pt912qLzvfYfK4q5lRSiKUo0dunI9qrVkZnQ1FwD5A6gOWjXElmPxHvQBdYHhmV45emxZke8T5bvfPaz9quOK0MRG4+Klgyk0ctNEhz/91L76g5FFue+84epy663vEGAeKnu1n9+bSE49eIi7Ae8WgJivVi4xyrQFDcwRADEqPdFk5AYS1WgAIECgJwfjyUQ0NJGDv/rqCS3BXpcRjmwzenV1pGXBSE9/LUf0CB8LSMbyFkyTzdQVrTfGqt+7Z68Z1FDGdtVVl5V9+3YrGtITf5EnIFGPO6wBDE68HoBwnMbQcWqce9mjJgEQG+O9HnsXe1S224AHOY8fP12WFZ20m9Fq2iTGiFviKErVOXnLtKBtjksPXlgOXLinXLBPwDKQo5icIIE2UwVCgMJwgH602EEk4wQQM3oO6QIAMgBGPtUZGIhe+mSD/9SpkaKMMwZAJwXqKwoh+wJzAJP9n754AUAs8fBHQG6gcbIJjcMuLAKUu8sll1xQLrp4oSwM2U85ZdrUhUnh46vjrGP0CCjkhI5+NBf0y3xLzpFEB9R5w7iy3CsnTi6X5559ySIkItuRomafL/iQyFvQ8WvKBb2KdPZdsFgOXn5hueTSvdKd9oTYmNac+kMEBQp0tF8XEZAvX4M3fDJtVgNzAUA8xfpCHf7xtAYCSJgg5sCT2tYA7LPoaT/i7Yg2WtVKBoQBqpV4jGWpLK9sExsUk6fAiycYBk10hBGuAkbynL17d2mpoahEEc9orDcgevtFn60xA0AVhKxcT3CTBfn84G2Zv7YnGsGxFyznWcoykLdKLAFFZEbNk933FUSmRG+WADrd8c9KAV39mxCNSS6WjCw1xE2lgA9gRpSnnohG1C+6Gte+ABhUQD36tQhI13CwfmzNAoF0Ckdt4LPEXV6WfP1F6cR1BTVvlnB0AIjxLy7uMoDiLRr98DaMt18LknHAsq+nPa/xKS2ltZzlrZxY0EeMzcGPwiijk06SWMwZUQhA0BfzQY9N96EeUHp7JxlXBOZEezxkFhbYCO8mxkUyBfiljZsSzbGiucVFyS1gXV46oYiI9gD4iuZKe0AA+lA6EMiSTH/SXaata+C8ByCeeCx7BvIW/nEfoEEZJuMGjCFgmZSxlGGjtW+RjTzGAAYQ42mFUdoTFFIl+IXxT2wpRqkcVxsY0QOOzUHyHoxCfVYQMhNXjfUPFaAiSWwvZkV3ejMj58cZiYAAI57k9Awh47LEbb2zy1poTlnHxudqYpxjAZC90VME4oDMRmnrDK41gJle1E46ULdK4u7/a28UhiatU6Nlt8XLqWMBEm/1xIduDKjQqYBP7Fna0Y/Nk5oYUBl4aqvYlqGMWa/JV09btDGQYxvAqU1oO3JVNGVIZN1xoVIAyA560yYS0QicNX3Gj49nIJ8/vKyFtXO9hWYjhzPVSMIDIHTBQ2tF0SPwBdioB+tXfQI+Aj+LHKlOAJIStp7OfwCyCeepi1kz05r3anxECh4tYJAyFiwOg2RpoJy7JW0E9GRAC0NtVMuIFMvoKcbygcgGA3QjxHhHFsvLkbU7TbgN1Lk5E69wpSWG+rEoyu7ZJ0EmHQYOLT+oSfaZITNcPpsiZ5ZjLCwsqlcMGjf1/ld9rWIyRb8hm1HUflh22bKPdiqbKPohAgpwNIdAU3VsrjOiOm2gavlJNOQfX0A675srlxeZXe4mJ7pp9IDMLHXETyDOchFd0dXKsj7nMyTaURSipaxFlIpu6H+keQGgcGR6ND2OtSy1JaBHUsRKLk2bI0rchaxMMSDgn+cCZIzI5p5+zSbUj/fkrYmaRaiefZ6Aak/qEX0a4GhUTQ4tc08LtwMeHmZXGpPxkXBjRYUjPRwNAG0s1iRPW9DAHACQGxxGzlMNQ/SnkJukAZAqLQyWkeG8Ezabtc8DDLGkoRRqDJwrv/anF040lBPRjmv6wEmhZb9pbPsH2l1gDWHcMEzAEF6ccQKoOUiR154ARpyPV0f1KWoAqr7cgeUsAkPeREVLOGP2bUJ2ar2/iH4s7xOV8U7ojByfN1RaGmi5Bf0KH+Zh+WWODz8/OHtf6I2r6Dn6bGlteaV2I5ZXeuIPxJ9oAwr2zQYG7EQf0pX+MTfoL/RpQC+JkGfE2kU1tpy2OWNpK0CXfF2ZQhoKQ041VJK80htL5MVFffZLYLC6qqWxeBGtkny+/cHh43UQsUrTH/PgdhTcHWxoE+2UEybKFnhQ8PKC5fuQDbf6KFrWg81AVqDLWDMCcg1v9XzeA1AYiT3A5Cw9OSuO14AQyGTm60Zgf2ahp5IbBBAR9bYdbHcRFaiF8eFpaiBlXoCreCv44jREFQtyEu5pE7XIBlSEjG2uItVYkqzsuwz16huDNkBTE5yGTXHEV3ET+bA5biuVaG/84SzCDaKtiT4EyN7EyD4kF3tMLPHUlwGqYFjLA/j68sLFQnKDOQMgRtSOw0eJ/K7TvjmjKcf2XYhy0BGfRMcJuYabt0NWP0x/6ndgjqzIS/TMnUUvgJRuAV41V7Frkja0t6Qum+u4srlHX6Y06ZO51n+LQBzgGBuQDHefq5AI8NHBstlSlDNO2ipX2+Ywuk6UK262pFQzIkrmzsyRNhY9GdM8bUEDcwFAOAeAI3/ShONk3MtM6uFrdxmuDAIAMgPUa9ORIo8FlgjVpPwJrNY4BAaM5ct4eKpCZHwxJv3nHsfBrbwdvHEequF4rkQdDGoy0BBnlksq4m3cUNEU47DX1kQA9CWnJorAsP2T3rR3Pi6lzgYWCEAffky0yT2xfSacTX+WoPNEG/DI6PtgOJv4jnhiE53QjkSsAC+4u05NEOO91hEBr6Ft0OsT0qt6eyW98KcryADIAdA8GNAPuofeQYelGp8aR5dEEowHSAAEoFUOOMp5+Zs0l8znTwT2H37GQGeSz5siVgEPEdjCImCr0Wiu+YgGG85wXtWbR5ZUDkBGIn6ACXJ7/85XvRr48DCo4646sr8zEy4R9QE88eaPaEtSixdvOAEv5Kp9ZLYlDcwBALXjYbnA05YZ96UDdcw8RqoD8DEAwpBkOSCUGcZaI272bVTprcPonZMaW8KoaAkfKOp/r7Sz1arY805Fc2nLNJy8PnUBUhzVLNb4itTkDqOujmjjUF3DGkkhJfdr8oleuXMwXj6Zyx+8FnslrbEZyEJLPcsxaGDIgY58U9llQxfoFSCpjhidd2RmOYLs/COZXoLOvLBty4hwVKfC6Zm7qosKfPHHsB4BBW3I2M4LfXkCUjQK6SF06SpiqQ0QRpuIaKIduYALALK5kPyhSwBIB2/A6rCsES8YTB8GlPRXeWluArS8JLRR6zPbtAbmBIDqzMto3eAxYhwgDuoxCmoxYhniGieiPmjD8DBijNnbmrNAYvfkbfI+nZJSI8MIm7b0GSn68nu2rx3wcEDKrHUQe1779ZYt3y7RmlY2dmpViuPgQHIeLfTUFw5GVBDyyjkAKEVKeieocnfyACDfVA4ZXa+hE1tWrNEzbAGVSGukqsNr+Tsfi8lUp/EbcKAHjgoEmicDIeUxdzZ/xk2aNz1Hf8pNHp87Lw0ZmHMkU//N3Ics0Z4+Q0e0q0fVH3q0sVWW7bwhuydXPfpE53zkAVBtAbmSZbZJDcwBALlDYsy+6aurNU6BtYRLABVuhG6MbXljbFZUgewsAOrStxps+jWDbcvNYSoQeb/UwYM7N27nWC062rsVV0ZRh295K68IWbir5VbULVeVtaFM+gnnIgqqiZoAII+E3CnZ9ralCKAFOFhEIlksd37wbJPqbKzWE1zbqnrlwwqnB1C6fHDUehgAVSAyNkGnttZHBSO7dhma3urcOzhEKbnzaECI+6Y9dcgV4IN+1CbsCDCpINQdlvcBKEtW8XJJaEpE6YctIzUuByIVZ9qSBuYCgPzJyPS3js01BtQYhdUydpXIWFrjp4wEfc2tFsPiyUVhpTcj83sorY3OLQDhQJEw+q6jUG4dKKdOnDFwcwKMn4NyUjdvr2kdd0ZWZYtr6toRt30ZPJkz1T0OHIZkfZOz/MJhiIBo51GJA5DaBAAZ+DBGaOrRCBT9qQq+za0kqv14EePkqgtAurWRwbseJqOuTW4fmenIopfatolkaO8cuvRrH0QhkOcROfneEp+VcgDiz0KaJRjaxAYaABJN6Ez9NQAkmQ1+rA7+LQABaoCQAxFSZtqKBuYAgKqTmwGFoTJEXLF73x2213RL3GGC3g0PHnDBYSxvDIz9BGiVtK8Rhuj7OVZoVQEuvtyjqDqBHNnby8Hq05L3Mm1q5XCHjJraZ/Rt/KpD1Ws4ez+1Lxl/CyAeVbAUc2eutBWA+PyNj3czAIRMah86aRwz+qXek5dEhBAAVPtu5GVsgE/kXMtxAb0G+GgbIKB53xCARGI8GIl4WdvQG3XrksCFT4ujfwOJdQDkvIiA6C/mKEaEbPSj3MaPXdDregAChNqoc50EefsGGpgDAGLCq2Hqqk3VANsCXVF/toMYSX3SOgd3Q4yrXnkuI7NN08bZnNo2I+PJTR/RRXWQjQDInA0gap6uGK3zM3nsmvsoW38NVXTUzbluD3eqrhOrT5zSxlDpTAY+yY0TRlv4i86e3rV91VHDv9EDtG+QTG/Ud3l3r6nzcTowx1ilf+tTSxjL1cZ4QeXXa3lWPrA2fpWPtaWM5P34NbcAEMARAORjZu49KQd8eEDYfDYtaVwfPsq7+oTWQIic6MejoG7LvN6cBuYCgDBCB6HuoMKAvLZb49dtvd1Xg2tL65UZM6YmPmaA8QQOjrgCTs2ypi5toqoCYwtAtQIAsCcz9O4AZxs3tCGN8q5DGBuTyK78hENyhcBxcF+d2NrjXBBFWwEqjmPjiiiANpGgd1mBYpeBtq4DRu6AAT3l505QtiTI101t241q/NPdojEnZ3QBQPBY36LD18YcvMnrtTXx69jgtjdkVh9zE3wYeX3AvQEA0dTGaPIAPBy0Y/8nl2Chza3mcwJADKsapY1wvVFWYzMDg6AaotHW69qkW2PVblnWogUgDKul5O+f2DfwNzneirMZroz2LHA0API25vyi8dfRbdu1V/RVj47zrKExcdwFzCmrsxq+QHgWgImRKq2F0YYMMS4cj+sAIHjASMnGxA0HMCQ6A1Sr5HR2sr7WF9OOMuV0pRu/Dd7oTlW6Jbc6yIyWi25qaruFunbitftBkAQTB9MWgFS+jhUjpDD2jWhNCp42/srOR1ABqwGg3IR2jW39fP4DUGMssgBzpCjwfOOnNEbmZuUqcVdrLa/lYW8v4klqT0A92SxvlXlOALI9A4yRp6EnYgqPlnBsIiD1VQGgktSsykDdGvColh6OZdSUhcwUBM96qcy6oIqhk1uCjntKqvNbOfwqAFnfOJDTkDV7L+ghdNNpZ6R2X09Nn/CAN8n78PbsXMGYeqpCZ+RQ+vx4bae9Csz5jai2tRbdayuop+jTGujEvWiNZW1TM+8l+AT46N6KvJaG7QuI2oWxZjTIjnTQ+rlDkZeb1MB5D0DxFPL9CqyDSVduxuz31cJ8yHIYN1o3DC/EQIKWknptzl8jAD3hY79m7ZIKUwNIeMNUAcWZ1k3LCMe90F25gk9EDY2s0NA3SbnKkcvl9dKNwGhNvbWr7ZXB2sdW269h4335OahCL9JJgEvwqPL4EswdbA3XoFePa5P34GX0U/uw8XNtsGwjdYFDZ3wwssvL24XTo4s1YzfSkCv6jJzegxc5fSq36iiHhgK4Kq/zEpqxumaM0AKczCXtRdVlU/lAZfyMl9/lefMamAMAwgAwJpxfxleNhuu1n/Vx63DA2sj4MDgUgwHSthoyoBJHbBgr7xplC0DwJQWv1pHCNp0i9oyC3ltVCWt7l8Pl8fqWCsqQwK+7FH5Ne5KcqYrjUYaXWVU98c7L+cHLr/Eml0dna88plpPoGf24jpwOZlxB35ZQ2iQJ4m8MqUcH9KUD/VZ922ed9GawfZMUvMhru5A32tcOvNtWLhPc5jN0EbzqGMXPI1xkUF3XdmzQMV7vwDRunXj7GEsDiOK2BhCtmWwAvdn4qqCZbVoD8wFAGKYZEOPC2PxoASgMTzVmQNy3ZX4d7bjTdRhjGBzGHk4XdXSn5EaHEWOYJNqThzOQe4KifWoGfdQiAyn6r7J4YXNujXz9OBqSeuH8TFx4ktQkevEC7kMXwQ+iKPNGvo9FSz8agDYmwbG2X9MWglpPteq8P27QWW0DmQS1eM8AHp0B4NRHctrG4Rtetd5IQ8bQecjW5cF19KvcZPCZcVmRUO3qPNt1NDfatn07l162vreGRwJQaHBL+RwAUBhSjMtNwGzRPS8qPDejjSKjihvl0Rbjo1i5GVz0QT115G1qHKpbHO2NZ1vhPerc8G35GO+4XddHFK/Nndvasg3umj9SUt0GTVy6qKi5FUYZzWIM5DqsKsq6fariHMVGZXXBlzyuqbUYrYlcY/O+BUhogl65eK2piyoTYCMhaB8piJ2P8/U2XqPrjeagYdtpbyybVtFBJ5eUG/HqUOTlxho47wFoY7GzNDWQGtgJGkgA2gmzmGNIDcypBhKA5nTiUuzUwE7QQALQTpjFHENqYE41kAA0pxOXYqcGdoIGEoB2wizmGFIDc6qBBKA5nbgUOzWwEzSQALQTZjHHkBqYUw0kAM3pxKXYqYGdoIEEoJ0wizmG1MCcaiABaE4nLsVODewEDSQA7YRZzDGkBuZUAwlAczpxKXZqYCdoIAFoJ8xijiE1MKcaSACa04lLsVMDO0EDCUA7YRZzDKmBOdVAAtCcTlyKnRrYCRpIANoJs5hjSA3MqQYSgOZ04lLs1MBO0EAC0E6YxRxDamBONZAANKcTl2KnBnaCBhKAdsIs5hhSA3OqgQSgOZ24FDs1sBM0kAC0E2Yxx5AamFMNJADN6cSl2KmBnaCBBKCdMIs5htTAnGogAWhOJy7FTg3sBA0kAO2EWcwxpAbmVAP/D1tUn4hc7umxAAAAAElFTkSuQmCC;" vertex="1" parent="1">
          <mxGeometry x="705.9" y="777.58" width="32.2" height="32.42" as="geometry" />
        </mxCell>
        <mxCell id="KT6xFQYIPRrfO0EYKUDw-30" value="&lt;font style=&quot;font-size: 14px;&quot;&gt;&lt;b&gt;Database Management&lt;/b&gt;&lt;/font&gt;" style="text;strokeColor=none;align=center;fillColor=none;html=1;verticalAlign=middle;whiteSpace=wrap;rounded=0;" vertex="1" parent="1">
          <mxGeometry x="129.5" y="630" width="160" height="30" as="geometry" />
        </mxCell>
        <mxCell id="KT6xFQYIPRrfO0EYKUDw-33" value="&lt;b&gt;Clickhouse Container&lt;/b&gt;" style="image;sketch=0;aspect=fixed;html=1;points=[];align=center;fontSize=12;image=img/lib/mscae/Docker.svg;" vertex="1" parent="1">
          <mxGeometry x="289.49999999999994" y="260" width="86.59" height="71" as="geometry" />
        </mxCell>
        <mxCell id="KT6xFQYIPRrfO0EYKUDw-34" value="&lt;font color=&quot;#ffffff&quot;&gt;&lt;b&gt;External Storage&lt;/b&gt;&lt;/font&gt;" style="sketch=0;points=[[0,0,0],[0.25,0,0],[0.5,0,0],[0.75,0,0],[1,0,0],[0,1,0],[0.25,1,0],[0.5,1,0],[0.75,1,0],[1,1,0],[0,0.25,0],[0,0.5,0],[0,0.75,0],[1,0.25,0],[1,0.5,0],[1,0.75,0]];outlineConnect=0;fontColor=#232F3E;fillColor=#7AA116;strokeColor=#ffffff;dashed=0;verticalLabelPosition=bottom;verticalAlign=top;align=center;html=1;fontSize=12;fontStyle=0;aspect=fixed;shape=mxgraph.aws4.resourceIcon;resIcon=mxgraph.aws4.s3;" vertex="1" parent="1">
          <mxGeometry x="505.5" y="331" width="70" height="70" as="geometry" />
        </mxCell>
        <mxCell id="KT6xFQYIPRrfO0EYKUDw-40" value="&lt;b&gt;EC2 Server&lt;/b&gt;" style="outlineConnect=0;dashed=0;verticalLabelPosition=bottom;verticalAlign=top;align=center;html=1;shape=mxgraph.aws3.ec2;fillColor=#F58534;gradientColor=none;" vertex="1" parent="1">
          <mxGeometry x="294.54999999999995" y="420" width="76.5" height="93" as="geometry" />
        </mxCell>
        <mxCell id="KT6xFQYIPRrfO0EYKUDw-42" value="&lt;b&gt;Cloud Infrastructure&lt;/b&gt;" style="text;strokeColor=none;align=center;fillColor=none;html=1;verticalAlign=middle;whiteSpace=wrap;rounded=0;" vertex="1" parent="1">
          <mxGeometry x="346.48" y="210" width="138.05" height="30" as="geometry" />
        </mxCell>
        <mxCell id="KT6xFQYIPRrfO0EYKUDw-47" value="" style="shape=image;aspect=fixed;image=data:image/png,iVBORw0KGgoAAAANSUhEUgAAAMgAAADICAYAAACtWK6eAAAAAXNSR0IArs4c6QAAIABJREFUeF7tXQl0VFWa/t9Se1WK7IQkhCTshCCLyI6KCtK24xw3REenZcYGHcdxGuyjPXTbjjqOYyvHrbVnnDntgi042jNOt4qCqCgBZA8JEJKQjZB9qb3qvXfn/DfQjQqkXtWrV9u957wD5+Te/7/3u/eru/33/zlgiSHAELggAhzDZngE6u6/3yS2tFik6mqD69Qpgz0nxxzgOJPS0yNIimIyT5lSCQAjYXAwM9TZaZb7+gQhO7ucM5szOZ4vBEIEJRDIAEURlGCQJ263SAgJG3uO4whnt0u80agAz8u8yTQIHCcTRWmT/f4+0tNTL2Rny4acHD9kZPQBwGnfkSMHDTwf5LOzZUJIQOru9jtGjQqJFRUhqbjYN+6FFwLDt5zlCLuT0gGqU/fcY/V3dY1z7d2bw0lSPjGZxii9vU4iSdmcxVJAfD47CQZtvNmcDxyXqfj9ZhIMComKDWc0yrzZ7AdC+hS/v4MzGj2cxeImPl87J4o9YnZ2P/F4mojJ1OGYObPbnJtbN+o3v/EmanviUa+0JQjOClx//3xfVVWF4vXOAkW5NNTZmckRYiKE4KAXgeOMQAgPKn7t49GJEenkOAIcpwAhQQCQcEYCjgsY8vL6CM/vEazWbxxz5x4OOZ1fp/Nsk9IEabn5Zovrm2/yJL8/R/F4coTMzJmhrq4Jgt0+XxoYGE0CAUNEgyuNCnFmc4jPyGgGt3uHmJt7PNjXt9dgs3WLZnO3Y9aszuLNm32pDEfKEaT+zjvHez/7bLoSCl0q9faWcTw/mnBcIYRCeUSS+FTuTD3axomiAgZDJxDSBorSLGRlNQgGwx7rvHn7y99557geddBTR0oQpP7GG2e5du68GbzelVJ//ygAONuulGifngMiAl3kTBkiZma2gcXytn3+/E1jN2/eG4GshCuSdAOoYcmS/MGamnGy2z1ZEMUrSCCwQPb58KQo6dqScKNBqwpxHOEtllbeZPqKSNI2zmyuFSor66Zu3dqhlQq95CTNoDo4ZswyeWDgBuJ2zwBCioks5+LxqV5AMT0RIoCbf0Ho4jmumbfb94lO5+8rTp78OEJpuhdLSIIQAG4ngNlWUjIS/P6VssezTnG7nbqjwxTGBAHebu8XbLZnjBz3Vt/p0x1zAfwcwNmlWkx0Rio04QhydMKESl9b20IlFFrKA1wuBwKOSBvHyiU2ApzJ5AKAz8Bg2GIsLPxy6rFjhxKtxolCEG5fQcFMzut9SHG7LwNFyQdCjDiTJBpgrD7aIkBnDo4LAs93CHZ7FW+1Pl3Z3r4PEmRGiesArMrKyrCZzRXBwcG1xO+/HiSJ7Sm0HX/JJ00U8fb/f7js7F8FXK7qOb29g/FsRFwI8nVRkcUWDC6XBgbuIJK0BGSZLaPiOQoSUDcnCINEFLcZnM43PUbjH+e1tsblQlJ3ghwaNWqi1Nf3ouL3zwFCrOfcWSRgN7EqxRkBXH55eYtlpyUz875JbW26X0TqQhDcS+zNzCzmZfku4vOtI6EQmzHiPPKSTT1nMLg4i+Vpgyj+tqK3t1WvUy9dCLIvP/960tf3CAkGZwEA22ck2+hMkPoSAJk3GveImZlPTuvo+ECPaulCkENFRc3B1tYitpzSo0tTXgcxFhe3Vra0jNajpfoQpLi4NdjSUqhHg5iO1EfAWFzcVtnSgj+4MU+MIDGHmCnQGgFGEK0RZfJSCgFGkJTqTtYYrRFgBNEaUSZPdwQMhYVgmz0brHPmgPWSS4ATRXBt3w7d//EfILW3R1UfRpCo4GOF9UKAMxqBt9mGvowMsC9YAI7588E2bx6YysqA47//gDPY2goNK1aA5+uvAUhkBryMIHr1MNOjCgHOagVTaSmYxo0D09ixYMZ/y8rAWFYGptGj6SwRTgp1d0P9X/zFEEkiSIwgEYDGisQAAY4D85Qp4FiyhM4O1unTQcjIAN5iAd5sBhAE4Dj1B6GEEOj57W+h+cc/BhJEpyrqEiOIOrxY7mgQ4Dg66IXMTPoZR40C2/z5YJ01i+4hRGds3qm5d+2ChptuglBrq+raM4KohowVUIOAkJ0NlilTwFJZCebx48FYWgrGoiL64d8imRXU6Me8wbY2OHHtteA7fFhtUWAEUQ0ZK3BRBIxGcCxeDM5rrwXHFVeAedKkoQ30mU8PQny3frjMqlu2DFxbtqjuPEYQ1ZCxAniiJObmgmHkSBALCsA8dixYZ8wAy7RpYJk8OewNtJ5Itj78MHQ89ZRqlYwgqiFLzwLGsWPBNnMmWGfOBPPEiUPkyMsDQ14ecGazLkulaJDve+89aLjxRtUiGEFUQ5bCBfCkSBTpZygoAPuVV4LzmmvAvmQJGEaMSOqGB06ehOrSUtVtYARRDVnqFMALN7phxo3z6NFgnjCBfpapUylBznf5lqytJ4oCB7KyQBkYUNUERhBVcCV3Zs5konsF22WX0eNVc3k5CE7n0LGrw5GQewctET+6YAF4vvpKlUhGEFVwJUFmngfeah36HA56tGpfvHjILGPOnJQnwcV6qPHOO6H3jTdUdSIjiCq4EjOzoagITOXl1CQDTTNwZsBlE5pnIEnicbSaiEid+sUvoP2xx1RVjRFEFVyJkRmPVnE2cCxaBPbLLwdDbu6QSYbVCriMYoQ4fz91bNgArQ8+qKoTGUFUwaVfZjw6FUaMABG/vDx6x4DmGLh/wNkilTbQeqHa+8470LhihSp1jCCq4IpdZvzlN+EJ0qRJ9PYZ9w64dDIWF9MTJd5kip3yNJHMCAIAh5LFaQPPg3nyZMi46ipwXHkltWDFZRInCEOWq+d535Am4zhmzWQESUCCCFlZ9LZZHDmSzgg2NMmorKSfmJPD9gsxo8P3BTOCJABBkBD47NOCX2UlmMaMGTLJyM+newo2M+jIiO+o6nzlFWhZs0ZVBdgeRBVcZzLjwx1cBgkCfQKKG+cMtF69/HK6hwj3tVskqlmZyBE4/cwz0LZunSoBjCDhwIW2SaNGUXMM3DTjU1D6vmHiRLqZxr0DS9ohoPh8EGxpoR+RZbpP02LmbVqzBrpfeUVVRRlBzgcXz4NxzBiwz51L7xvO7hfEMy/h6BNQljRDQAmFwF9dDZ7du8GzZw992CT39YHU1wcZV18NpW+9pclere6662DwD39QVe+0JggerVKTDIsFxPx8sM+fT0+UcMmEz0FZ0g4BfLREfD7A2UHxeMDf2Aju7dupMwV3VRUog+ePXTPqySeh4OGHNanI4fHjIVhXp0pWWhGEdzrpppl6ykDvGOXlQ94yxo2jSygtpnFV6Kd4ZvQoEqirg0B9PQQaGyFw/Dj9v7+uDuSenrBc8UysqqI/WNEm2eOBA2iyL0mqRKU0QXCGwNMkaqy3eDHdLwh2+5BvJTTLwDsHljRDQBoYAM/OneD+4gtwf/UVBJuaAAcm8XrpzKHWNxVekE5tagLOYIi6ju49e+DY7Nmq5aQcQZpWrz5hLC8vt8+bR8khWDGwFEtaIYD7Bbm/f+jr6wNfbS24d+wA75494K+pARIKaaUK8tetg6Knn9ZEXterr0Lz6tWqZaUcQQghuwHgUtVIsALnRQAJEWpuBu+RI+A/cgQCJ07QmSHY3AzouRD3FbFIvN0OE778kt4paZEa774bev/rv1SLYgRRDVlqF8CXd3i86tq6FQa3bKFLJbm3F4gk0Q8URRcAHEuXQtnvfkeNNaNNuPSru+Ya8O7G3051iRFEHV4pk1seHASpuxtCp0/Tz3foEHi/+Qa8Bw5AqK0tru1ErylFzz4LuWvWaHJw4t2/H+r/8i/pzKc2MYKoRSxJ80uDg+A/ehR8e/eC9+BBCDQ0gNTZCaH2dkoUvWaGcODDh1/jt28HY2H0gcLweLn37behadUqIH5/OOq/lYcRRDVkiVsABwMOdLx9xs0yzgaDn3wCgx99BL79+yPyTRuP1o7+9a8hN4IN9fnqili0rl0LnRs2RNQURpCIYEuMQrgnCOEs0NY2tGluagJfdTX4amrAf/gwKF5vYlRURS0yli2D8v/9X+A1ONpFtYrfD7UzZoC/tlZFLf6clREkItjiUwg30Lgk8uBeYdcu8O7dS/cPaJKBG2m8oU7mZCgpgfJNm+jLSa3S4KefQt3SpREvIRlBtOoJjeRQk4xQiK6X8ddP6u8fMsf44gtwffklBE+c0EhTgokRRRj1+OMwcu1azS5w8QelbvlycH38ccSNZQSJGDrtCuJtMy6RcOOM9wzf+urrVd9Aa1cz/SRlr1oFxc8+S8MjaJXw9Kp25syo8GME0ao3VMjBXza0WHV/+SW4d+4E34ED9GYal0hIFrX2QipUJ2TWzJUroeTVV6kZkFYJN+ct//AP0PXii1GJZASJCr4LF0YSyC4XtVLFOwe8dcZLN7ysQlJcyHo1RtVJTLEcB84f/hBGv/QSdYGqZfIfPw71N95IzeijSYwg0aB3TlncO+B9At41oE0SWqyi5Sp9+INGe3jXwNKfEOAsFshZvRoK1q2jXlu0Th3PPQetDz0U9WzMCBJFz+Am2vXFF/SuATfRSA66wUaTDPwijKwaRZWSoii+2y9+/nnIvOUWzY5zz2044n+4rAxCLS1R48EIMgyESjBIZwb6dXSA/8QJ8OzaRfcNeOcAshx1J6SFAJ6nXl0cCxfCyPXrwTJhQkyajXuPNgyW82//pol8RpDzwIgkwFto38GD4D92jAZ/PGuzFCvrVU16MwGFoG9g6tRi2TL6JgefL/NGY8xqikfhJ667TrM9XloShJpknP3QerW9HVyffAIDH34IeLGkNoZEzHo7mQSjpxd0dsdxYKmooITIWLqUXvrp9SYHD0VOrloF/Zs3a4Zc2hCEniShSUZLC50RfGi4hzPEkSMQOnWK7RfUDCmeBzE7e8g16hn3qBh0x1xRAdbKSk3vMtRUq2fjRhoPXXG71RS7aN6UJYjs81ECeKqqqBk3LpvQHEPq6QEZowyxvYOqQYReIDE+IXp5sU6fTskhZmVRoiRCiAV/QwMcW7gQJPyx0zClHEHa1q8/Mvjpp5PRhQwjgcqRIorUSTZ6lscXfbg8Qi8v1CHexIkqhemXnT6IWrYMvFVVmitNOYIkjfNqzbtSvUB0aoGO8DDYDg3Ag15exo8HE37l5TE5glVfy4uXwKN2DIrT8atfxcScnxFE6x5LcHmmiROp/y/8MF4hjU+Inl7sduo9JNmC7/Ru3gxNd9+t6b7j3C5kBEnwAa26ehw35AwvI4Nulg2FhfSYlXqJXLAADJmZqkUmYgG8DBz87DOo/+EPgQQCMasiI0jMoNVPML7hxhMk6i/4zPII/Qif9Syfag7x8Jh+8MMPofm++yB48mRMgWYEiSm8sRfuWLIE0D0nbqJpfEJcJqV48B20hD5+9dXUsiHWiREk1gjHSD6+vhu1fj1k33VX2oRbQLMfdEfUcNttul3mMoLEaADHUqyhuBjGvP46OBYsSBtyIJ7oHfHUo4+CdPp0LOH9lmxGEN2g1kYRmomP37qVbrrTIZ19gtzywAOqY3togQ8jiBYo6iWD5yHnnnvo09R0CNqDj87wkdnpf/kX6rooHs8HGEH0Gtwa6MGj2/L334eMK6/UQFpii0BPLR3PPAM9b7yhybuOSFvLCBIpcnEoZywvhyk1NTE1F49Ds/6k8myQHc/evdB8//3gP3gwntWhuhlB4t4F4Vcg6447oPSNN8IvkEQ50b0RLqP63n0XBj74ICZmI5HAwQgSCWpxKlP41FMw8qc/jZP22KjFh2jdr70GPW+9RZdSWpqqa1FjRhAtUNRJxqjHHoOC9et10qatGrp88vuphxfcX+BThL5Nm+iskcguUhlBtB0HMZWWuWIFlL39dkx1xEI4Pk7rf/dd+iaHOsc7dgykrq64nEqpbR8jiFrE4pjfWFICk2tqdHvCqlVT0eK2ccWKiP3jalWPSOQwgkSCWpzKoEl66dtvg/MHP0gqs/T+Dz6A+uuvjxNq0allBIkOP31LcxxkrVwJGD9DcDj01R2FNkaQ8MDjwssWXa6Uf1EoCFD27ruQecMN0QF1kdJ45Io32NapUwHN5qNNvZs2QeOtt0YrJi7l2QwSF9ijU4pLrZLXXoMR118PvNkckTC0jMVYI+jRBQPwoKtUGnxn/37qXR49RE6urdXkLXrnK69Ay5o1EdUz3oUYQeLdAxHqR/edGKZs5MMPh+UVHcM548DHoDvo5QXJQL1FdnXRf0kw+O2aiCJMd7kiJuC5wtqffBJO/exnEbY0vsUYQeKLf9TahexsKHz8cXBed93QvgQfS50JwkPDOW/fPhR8Z/t2kPv6wtZnrqyEKRqZejStXg3dr74atu5EysgIkki9EUVd0JDROGbMkJWvLFMHedG8uBv5yCNQ+MQTUdToz0Xrrr12yBo3CRMjSBJ2WsyrLAgwae9esE6bFrUqvDk/tmgRvTlPxsQIkoy9FuM6W2bOhPGffgriiBFRa0Ln3xgnMNjQELWseAhgBIkH6omsk+ch/6c/hcJf/pI6gIg2DXzyCTTedhvIPT3RiopLeUaQuMCeuErF/Hwof+89sM2dG/VtPRooduER7/33J60bWEaQxB2rcakZBtQsff11TUIx49EykiNZT7CwAxhB4jIME1OpWFAAE778Eszl5ZpUUHa74diCBUm7QWcE0WQYpIgQjoMxGzdC1q23Rr20OouI78gRqKmoSGqA2AyS1N2nUeV5HrLuugtGP/ccCE6nRkIBkvmC8CwIjCCaDYfkFYTHuuWbN4OptFSzRoQ6O6F67FhQXC7NZMZDECNIPFBPFJ0cB6Zx42DCjh1gyM3VrFZ4etX5wgvQ+sADmsmMlyBGkHghnwB67ZdfTuOVo1m7linU3Q0NN98M7u3btRQbF1mMIHGBPf5K8X170dNP01iDWgfN6f+//4PG22/XLBRzPNFiBIkn+nHQjYTIX7sW8mO0/EF3ofU33QQD778fh9Zpr5IRRHtME1KiOHIkZN58M2TdfjvYZs3S5CLwfA0d2LKFvj+PZdQnPQFmBNET7TjowhDNuffeC9k/+hE9peKNxpjVAp/q1kydSuPQp0piBEmVnhQEeoeBscvxtaF5yhRwLlsGzuXLw3pxGC0MaFaCXtjbH300KfxdhdteRpBwkUq0fBwHhoICSoSzsQnRb5axqIiGdsYAnnomdDiNJ1fBxkY91cZcFyNIzCHWTgHvdNLQB+gXy754MSUCjUd45tP6NEpNzTFmoOvTT9UUSYq8jCAJ1k0YQcqQlweGkSNBHDWKRq3FeOb4us88YUKC1RZA8fuh/fHH4bRGz3MTrYGMIPHuEUGgyyTrJZeA7dJLwTR2LBjy80HMywMxNzemm+pom05kGXrefBNa/u7vEs4re7RtO1ueEUQrJIeTI4o04CZ+aN7huOIKyLj6arAvWpR0vnbPNtV76BDULVsGUnv7cK1P2r8zgsSi6ziOniThHgE9E5rKysA0YQJYJk2is4UhJycWWnWV6d2/HxpWroTA0aO66tVbGSOIRojjfYNt9mz6VBX/xRMleuw6YgTg3+hmOkWSZ98+aLr77qR+CBVuVzCChIvUOfk4o5HuD2yXXQZo8OdYuJDuIVI9oZVuoL4eGleuBO+ePaneXNo+RhCV3YweB3P+5m+oX1xcPsXzaFVl1aPKjhvygY8/htZ//EcaACddEiOIip7OWL4cRr/88p/vH1SUTfasPa+/Dq3r1oHU2ZnsTVFVf0aQMOGyzplDw5+ZxowJs0TyZ8MlFbov7frNb+hdB4RCyd8olS1gBAkDMPQVNW7LFrBWVoaRO3WyDH72GZx+8smUvCEPt5cYQcJAqui55yDvgQfSZr8h+3xw6tFHoWvDhoSJVx5GN8UkCyPIMLAaioth/CefJKSZh9YjItTVBa6tW6Hj2WdpDBEMo5DuiRFkmBGQce21UPrmm9SMPFWT4vNB79tvU7MRT1UVEJ8vVZuqul2MIMNAlvO3fwujX3pJE0fOqnsnRgVw840xRNDzYf9778Gp9etpKDaWvo8AI8gwoyL3/vth9PPPp8TYIZIEgbo6QBsq944dMPDHPw6932BLqQv2LyNIODPIyy9TI8NkTGiO7tm9m4Zgwy/U0kJnC8XrTcbm6F5nRpBhIMfYf2Nefx3EzEzdOycahf6GBjh5553UJOR7ATqjEZxmZRlBhulwY1kZjPvoIzCPG5dUQwPDOh8ZPz6p6pyIlWUEGa5XeJ56H8y7777hcibU34NtbXC4qCih6pSMlWEECaPX8OnrpF27qEOEWCYlGKSXkVqEPgs0N0N1SUksq5sWshlBwuzmjB/8AEr+/d/BWFAQZonhs+EG2n/iBPhra8FXXU3j+KGlsBam8579++HojBnDV4LluCgCjCDhDhCOg8xbb6UkEez2cEt9Kx8es2LU18Ft22BwyxbwVlWB7PEASBLg39BRQ9m774J93ryI5J9byLVjBxxfuDBqOekugBFE5QiwXnYZFPzsZ/TVIDpW+O57EPRNK/f3g9TVBaGODgi2tID34EHwHzgA+Ksud3dfUCO+VR/74YeahEDreestOHnHHSpbx7J/FwFGkAjGBD6htUybRn3cWioqwDBqFJ0JQs3N9BKO3jV0dECovR3k3t6wNVhnz4YJ27cDb7GEXeZCGU898QS0/9M/RS0n3QUwgiTQCMi5914oeeklTWrUcPvt0Ldxoyay0lkII0gC9f64bdsg44orNKlR9aRJKe9xRBOghhHCCKIHymHoME2cCJMPHADeZAoj98WzoJf1gxhSTZKilpXuAhhBEmEEcBwUv/wy5K1erUlt8JSsbskSTWSluxBGkAQYAebJk+mTXmNhoSa1afv5z+H0P/+zJrLSXQgjSLxHgCBAwS9+AQUPP6yJxbASCMCJ5cvBtW1bvFuWEvoZQeLcjTh74N2HafRoTWriq6mB+htuoO8+WIoeAUaQ6DGMWALep5S99x44r7oqYhnnFsSXgn2bNsHJH/2IPZvVBFHmWVEjGCMQIwjUSjh3zRrNvKXgLX7zffdB9yuvRFAhVuR8CLAZJB7jguMgZ/VqKHrqKU1DpdEgmhUVEGpri0erUlInI4je3cpxkH333VD4xBM0UI6WqWPDBmh98EEtRaa9LEYQPYeAKMLIhx6i5NA6SW43HC4sBGVwUGvRaS2PEUSn7senu/k/+Qlk//Vfax5RCvceHc89B21r1+rUmvRRwwgS477GWCKZK1bAyHXrwDxpEnCCoLlGfD3YcMst4N21S3PZ6S6QESRGI4C32cBQUgLFzzwDGUuXxjTCVPd//ic0/fjHzPYqBn3JCKIhqBjCGWcJ+9y5NEBnxjXXaPK242JVxDcnxxYvZheDGvbjuaIYQaIEFh9L2ebPB8fixZQYYkEBiNnZuoRvxqhPDbfdBv2bN0fZClb8QggwgoQxNjizmd5X4Cfm5IB15kywL1wItjlzwBQnzyG4MUeH002rVgEJBMJoBcsSCQKMIOdBjbNawTx2LJgnTqRLJmNpKZhKS8E4Zgy1uI3FRltt5/nr66Hh5pvBt3+/2qIsvwoEGEHOgGWZMQMcixYBhjuwTJ1Kj2LxBAo/4HnNzEFU9M1Fs9bfeCP0v/8+czytFaAXkJM+BOF5EEaMoEsk/DDWoOWSS2goZ+v06SA4HDGGWhvx6HS6/V//FU4/9pg2ApmUiyKQ0gTBWOaWyko6I6AXEvSMaCgooF5IBKczpkevsRh36Dur+7XXoHXtWlDc7lioYDK/g0DKEaRp1ap607RpZeiV3VxamjIdjqbsrs8/hxPXXQcEnc2xpAsCKUcQQshuALhUF/R0UqKEQtQT48m77qLuSVnSDwFGEP2wjkgTfQT1zjvQ+pOfsDBpESEYXSFGkOjwi2lpfF8+8MEHdOZgEaFiCvUFhTOCxAf3YbWGOjtpOOaOp59mR7nDohW7DIwgscM2YsmB1lY6a3h27GDh0yJGUZuCjCDa4KiJFNnlgr7334eWv/97UAYGNJHJhESHACNIdPhpUhqNDjEsc+fLL8PgH/4ACjvG1QRXLYQwgmiBYhQypIEBaHvkEeqJHeOKsJRYCDCCxKE/8HQKI031f/ABdD3/PEidnXGoBVMZDgKMIOGgpFEeqa+PXvj1//734KmqgmBTEzuh0gjbWIlhBIkVsmfk4rsNdAfa9eKL0LtxIyguV4w1MvFaIsAIohGauNGmYdfa2mjotcCJE+Ddtw88u3ZBoKEBQFE00sTE6IkAI0gUaAeamsC7dy949uwB36FDIHV0gNTdTT92EhUFsAlUlBHkIp2BdlAYpUkJBumFHUauxRlh4KOPwP3558zFZwIN5FhVhRHkO8gqPh8EGhshePIk/TdQXw/+2lrwHz1KQzqDLMeqL5jcBEQg7QmCR66+6mpwV1WB+4svKBnwFhtvtWV048kIkYDDVr8qpQVB8CQJ9wQ46PElHm6a3Tt3UkLgHoKdLOk34JJNU0oShCjKpXj55q+rA//x4/RSDpdMwYYGumySe3uTrZ9YfeOEQMoRpPWhh2oGt22bFGxuBsXvpz6jmN+oOI2uFFCbcgQ5VFzcGmxp0SZcbAp0MGtCdAgwgkSHHyud4ggwgqR4B7PmRYcAI0h0+LHSKY4AI0iKdzBrXnQIMIJEhx8rneIIMIKkeAez5kWHACNIdPix0imOQMoR5EBe3mq5t/fnIEn5BIBP8f5jzYsRAhyAQkSxQ8zK+uUlnZ2vxkjNt8RyeihBUhzKypoteb33klDoJpBlix56mY4UQkAQfLzBsFmw2V6u7OnZg2TRo3W6EORsQ74uKrLYfL55ksfzAvH7JwKArvr1AJTp0BwBwpnNtaLNdr/HYtk5r7XVp7mGiwiMywA9OmGCIzgwsCbY3X0nyPJYIMSkZ6OZriRAgOMCIAgnhJyc1y1O568nHjsWF8cBcSHI2e45mJ9fSvz+a+RA4A4SCs0FWRaSoOtYFWOJgCDInMHKWRMzAAADZElEQVSwEyyWN0Wjccu0jo7GWKobTnZcCXK2cpsAjOV5eVfwweCzcn//5OEqzf6emggII0YcAaPxwbrOzs9vAQgmQisTgiDnAnF47NhrpFOnblSCwcsAYAKRJHMiAMXqoD0CnCj6AeAYZzRWGUpK/ntqbe0n2muJTmLCEQSbQy6/XNxbU1NikuVKKRhcTkKhFYrfb4+uqax0oiDAm81uzmD4HWc0/lEShEMzJ09u4rZvlxKlfufWIyEJcj6gqktL75QGBtbIfX0VZGhTL7JTsEQcUt+rEwEAieO4AJ+ZeVh0On89tbHxjaSoeTIOsNolS8YHq6sXygMDlxKOqwRZHk+CwaxkbEuyDJII6kk4o7GXE4RjhJDDgtO521RRsWPS1q3HI5AV1yJJM4N8FyVchu2vr88jbneOOSdnRrC7+yoIha6R3e4cRpa4jCnC2+3dnMHwsZCVtTXU27uPs9u7p5eXdybq8ikclJKWIBdqXP1f/dUs32efXSmHQkulzs4ywnF2juOsRFEsQEjKtTecTtY0D8cRjud9hBAvEOIW8/IaeIPhY+uiRVvHbty4V1NdCSAspQdM08qVmd7duycGfb5xZGCgBERxnOzxFHIWy2Ti8+WQUAj3MSxdBAHOYJA4i6Wb+Hw1gs3WpkhSncHpPClaLCess2cfLdm4sS+VAUxpgny341rmzrV019aaLA6HNSDLDmN5+VypqWmy7PfP5AiZIfX2OokspxUm3zqxEQQiZmcPEIB9gtm8VywpqQnW1+80CYLL53J5cyZNChTv3KmrqUe8yZe2g+F8wNffc49T6OqaObB/fzH4/aW81VoR6urKIT6fnRNFB5FlI368KNoAwEJkWSSynLDWyZwgKCAIeHzqI5Lk4QQhiB+RZRdntbrF7OwuzuutVszmk7bp01syi4q+yX7hhcF4D8pE0s8IEkZvIHGgqyvfdfiwLdTTYzU5nTlEUZxKX59J8XiMQn5+GS+KmSQYtMsul5F4vTzncBTwBoOdCEIupyg8CYWshBAeJIkjPp9AVBhqcgCEs1hkEEXCc5wMBoOP8LzCyXKXEgq5icvVzjkcimC1BonR6AZJ6gt1dDSINltQzMz0E54flHt6urj8fJ9j2jQ3X1zcVbphA4stF0bfM4KEARLLkr4I/D8m1X3IJGae1QAAAABJRU5ErkJggg==;" vertex="1" parent="1">
          <mxGeometry x="89.5" y="310" width="80" height="80" as="geometry" />
        </mxCell>
        <mxCell id="KT6xFQYIPRrfO0EYKUDw-50" style="edgeStyle=orthogonalEdgeStyle;rounded=0;orthogonalLoop=1;jettySize=auto;html=1;entryX=0;entryY=0;entryDx=0;entryDy=0;strokeWidth=2;" edge="1" parent="1" source="KT6xFQYIPRrfO0EYKUDw-48" target="KT6xFQYIPRrfO0EYKUDw-30">
          <mxGeometry relative="1" as="geometry" />
        </mxCell>
        <mxCell id="KT6xFQYIPRrfO0EYKUDw-48" value="&lt;b&gt;Flyway&lt;/b&gt;" style="text;strokeColor=none;align=center;fillColor=none;html=1;verticalAlign=middle;whiteSpace=wrap;rounded=0;" vertex="1" parent="1">
          <mxGeometry x="99.5" y="390" width="60" height="30" as="geometry" />
        </mxCell>
      </root>
    </mxGraphModel>
  </diagram>
</mxfile>
